<svg aria-label="Andhra" preserveAspectRatio="xMidYMid meet" style="width: 100%; height: 100%;"
  viewBox="400 800 500 1000" xmlns="http://www.w3.org/2000/svg">
  <title>Andhra</title>
  <g id="andhra">
    <path
      d="m 553.39042,1442.6463 c 0,0 0.24008,5.5219 1.32045,7.2025 1.08038,1.6806 4.20145,2.1607 5.64195,2.761 1.44049,0.6002 4.56157,1.5605 4.92169,3.001 0.36012,1.4405 2.16074,3.4812 3.4812,3.4812 1.32045,0 3.12107,-0.7203 3.12107,-0.7203 0,0 -0.24008,-3.7212 -0.24008,-4.6816 0,-0.9603 2.0407,-1.0803 2.76095,-0.3601 0.72025,0.7203 2.16074,1.4405 2.64091,1.4405 0.48016,0 0.72025,-2.4008 0.84029,-4.0814 0.12004,-1.6806 -0.36013,-1.8006 0.84029,-3.2411 1.20041,-1.4405 1.20041,-2.5209 1.92066,-3.6013 0.72024,-1.0803 2.16074,-0.7202 1.32045,-2.7609 -0.84029,-2.0407 -1.92066,-3.7213 -1.92066,-3.7213 0,0 0.12004,0 1.56054,-0.4802 1.44049,-0.4801 3.84132,-1.3204 4.56157,-3.2411 0.72024,-1.9206 -0.60021,-3.8413 1.44049,-2.5208 2.0407,1.3204 1.08037,1.3204 7.08244,2.6409 6.00206,1.3204 9.6033,2.2808 11.16384,1.3204 1.56054,-0.9603 2.0407,-1.9206 4.56157,-2.1607 2.52087,-0.2401 4.32149,-0.2401 5.76198,-0.1201 1.4405,0.1201 6.84236,-3.121 7.92273,-4.2014 1.08037,-1.0804 1.56054,-1.3205 1.92066,-2.4008 0.36012,-1.0804 -1.20041,-2.4009 0.84029,-3.4812 2.0407,-1.0804 4.68161,-3.2411 6.24215,-1.9207 1.56053,1.3205 2.64091,1.2004 4.56157,1.0804 1.92066,-0.1201 2.52086,-0.8403 4.32148,0.7202 1.80062,1.5606 1.20042,3.6013 3.36116,3.8413 2.16074,0.2401 3.60124,-0.7202 4.92169,-3.121 1.32046,-2.4009 0.72025,-3.7213 2.881,-4.5616 2.16074,-0.8403 3.12107,-2.7609 3.84132,-4.3215 0.72025,-1.5605 -0.72025,-3.001 1.44049,-2.881 2.16075,0.1201 3.96137,-0.2401 4.80166,-0.6002 0.84028,-0.3601 -0.36013,-0.12 0,-2.2808 0.36012,-2.1607 0.36012,-2.2807 1.92066,-1.9206 1.56053,0.3601 2.76095,0 2.40082,-0.8403 -0.36012,-0.8403 -1.44049,-4.3215 -1.44049,-5.0417 0,-0.7203 1.92066,-3.4812 3.48119,-2.2808 1.56054,1.2004 6.72232,4.4415 7.20248,3.3611 0.48017,-1.0803 -0.96033,-9.4832 -1.56053,-11.5239 -0.60021,-2.0407 -0.84029,-3.9614 -3.00104,-7.8027 -2.16074,-3.8413 -3.00103,-5.4019 -4.20144,-7.5626 -1.20042,-2.1608 -3.24112,-8.2829 -3.36116,-8.763 -0.12004,-0.4802 0.36012,-2.5209 2.64091,-4.0814 2.28078,-1.5606 4.0814,-4.2015 4.32149,-4.9217 0.24008,-0.7203 -3.00104,-15.6054 -3.36116,-16.9259 -0.36012,-1.3204 -5.64194,-15.7254 -5.5219,-16.9258 0.12004,-1.2004 -1.56054,-13.2045 -0.60021,-13.8047 0.96033,-0.6002 5.88203,-4.4416 6.9624,-6.0021 1.08037,-1.5605 3.00103,-4.3215 3.60124,-5.5219 0.6002,-1.2004 3.00103,-6.9624 3.4812,-7.8027 0.48016,-0.8403 10.68367,-9.3632 12.84442,-9.3632 2.16074,0 9.36322,-0.8403 11.28388,0.9603 1.92066,1.8006 2.52087,4.2015 3.84132,4.9217 1.32045,0.7203 5.5219,2.881 6.9624,0.7203 1.44049,-2.1608 6.84235,-11.0438 8.64297,-12.3643 1.80062,-1.3205 3.72128,-0.3601 3.60124,-4.5616 -0.12004,-4.2014 0.12004,-4.8016 2.88099,-5.6419 2.76095,-0.8403 3.24112,-13.0845 3.72128,-13.6847 0.48017,-0.6002 5.88203,-3.001 7.5626,-3.2411 1.68058,-0.2401 7.44256,4.5615 8.4029,5.0417 0.96033,0.4802 6.36218,-0.12 8.04276,-0.3601 1.68058,-0.2401 9.48327,-2.5209 9.48327,-2.5209 0,0 6.96239,-4.6816 9.72334,-4.8016 2.76095,-0.1201 8.28285,-3.3612 9.72335,-4.3215 1.44049,-0.9604 3.4812,-3.7213 4.92169,-4.2015 1.4405,-0.4801 2.16074,-2.6409 2.16074,-7.0824 0,-4.4415 -2.40082,-9.9634 -2.6409,-12.6043 -0.24009,-2.641 -1.4405,-8.523 0.24008,-8.523 1.68058,0 21.00723,-12.2442 22.44772,-13.8047 1.4405,-1.5606 3.96137,-1.9207 6.24215,-2.2808 2.28079,-0.3601 3.36116,-1.9207 4.68161,-2.881 1.32046,-0.9603 4.68161,-0.6002 5.88203,-1.2004 1.20041,-0.6002 15.00516,-12.9645 15.00516,-12.9645 0,0 1.92066,-9.0031 2.0407,-10.8037 0.12004,-1.8006 0.60021,-6.9624 2.28079,-8.0428 1.68057,-1.0803 9.6033,-9.2431 14.04483,-10.9237 4.44153,-1.6806 20.52706,-10.8037 21.84752,-13.0845 1.32045,-2.2808 8.04276,-11.7641 9.6033,-13.5647 1.56054,-1.8006 11.28388,-12.9645 12.60434,-14.645 1.32045,-1.6806 3.00103,-2.1608 3.72128,-7.4426 0.72025,-5.2818 5.40186,-6.9624 1.32045,-7.8027 -4.0814,-0.8403 -26.88925,4.9217 -29.41012,4.9217 -2.52086,0 -15.96549,-14.0448 -26.04896,-9.8434 -10.08347,4.2015 -31.81095,21.9676 -37.09276,25.5688 -5.28182,3.6013 -18.0062,10.8037 -21.00723,11.524 -3.00104,0.7202 -28.20971,24.3684 -28.68988,24.7285 -0.48016,0.3601 -20.40702,17.8862 -23.04793,18.1262 -2.6409,0.2401 -9.72334,-3.4812 -10.44359,-4.5615 -0.72025,-1.0804 -26.64917,-22.4478 -28.32975,-26.169 -1.68058,-3.7213 -23.28801,-16.4457 -28.44979,-17.286 -5.16177,-0.8403 -10.08347,-0.7202 -10.08347,-0.7202 0,0 -13.44462,-32.4112 -12.96446,-34.0918 0.48017,-1.6805 -2.40082,-13.3245 -11.0438,-13.9248 -8.64297,-0.6002 -16.32562,-1.5605 -23.16797,-1.2004 -6.84235,0.3602 -35.77231,-11.0438 -38.77334,-11.5239 -3.00103,-0.4802 -19.44669,-3.0011 -21.4874,2.5208 -2.0407,5.5219 -13.20454,21.4874 -17.64607,23.4081 -4.44153,1.9206 -17.04586,9.4833 -17.52603,14.0448 -0.48016,4.5616 -3.60124,22.0876 -5.88202,24.3684 -2.28079,2.2808 -8.64298,17.8862 -7.44256,20.407 1.20041,2.5209 -5.5219,42.7347 -4.44153,45.4957 1.08037,2.7609 -2.16075,50.7775 -5.04174,52.218 -2.88099,1.4404 -4.68161,18.1262 -3.36115,20.527 1.32045,2.4008 -21.96756,10.6837 -21.24731,16.4457 0.72024,5.762 -6.84236,36.8527 -7.44257,39.1334 -0.6002,2.2808 -9.24318,33.7316 -7.32251,38.5333 1.92066,4.8017 11.16384,35.4122 11.16384,38.5333 0,3.121 23.64813,16.4456 30.37045,15.4853 6.72231,-0.9603 49.93718,36.7326 49.93718,36.7326 z"
      id="path3874"
      style="fill:#c1e0b2;fill-opacity:1;stroke:#000000;stroke-width:1px;stroke-linecap:butt;stroke-linejoin:miter;stroke-opacity:1">
    </path>
  </g>
</svg>