<svg aria-label="ArunachalPradesh" preserveAspectRatio="xMidYMid meet"
  style="width: 100%; height: 100%;" viewBox="1100 380 500 500" xmlns="http://www.w3.org/2000/svg">
  <g id="arunachal">
    <path
      d="m 1383.9493,605.02128 2.8961,-7.03352 4.5511,-1.24121 2.8962,-0.41374 0.8275,-0.82747 4.1373,-2.89616 c 0,0 1.655,-2.89616 2.8962,-5.37858 1.2412,-2.48242 -0.8275,-3.72363 2.4824,-4.13736 3.3099,-0.41374 7.861,-0.82748 7.861,-0.82748 0,0 -0.8275,-0.82747 1.2412,-1.65494 2.0687,-0.82748 6.2061,-1.24121 6.2061,-1.24121 0,0 3.3099,-2.06869 4.9648,-3.72363 1.655,-1.65495 5.3786,-4.13737 5.3786,-4.13737 l -2.4824,-2.89616 -7.4473,-5.79231 c 0,0 -4.5511,-4.5511 -4.1374,-7.44726 0.4138,-2.89616 1.655,-5.79232 3.3099,-9.51595 1.655,-3.72363 3.7237,-7.44726 3.7237,-7.44726 0,0 0.4137,-2.89615 -2.0687,-2.89615 -2.4824,0 -5.3786,-0.41374 -8.6885,0.82747 -3.3099,1.24121 -5.7923,2.06868 -5.7923,2.06868 l -2.4824,5.37858 c 0,0 -2.8962,2.89616 -7.0335,2.06868 -4.1374,-0.82747 -5.3786,-0.82747 -7.0336,1.24121 -1.6549,2.06869 -2.4824,3.72363 -4.9648,4.96484 -2.4824,1.24121 -2.8962,3.3099 -7.4473,3.3099 -4.5511,0 -5.3786,-0.82747 -6.206,2.06868 -0.8275,2.89616 1.6549,3.3099 -2.0687,4.13737 -3.7236,0.82747 -7.861,-2.06868 -8.2747,0 -0.4138,2.06868 4.1373,5.79231 -1.2413,5.79231 -5.3785,0 -12.8258,-1.24121 -15.3082,1.24121 -2.4824,2.48242 -5.7923,6.20605 -7.0335,9.10221 -1.2412,2.89616 -9.1022,8.27473 -9.9297,10.34342 -0.8275,2.06868 -0.8275,4.96484 -4.1374,7.44726 -3.3099,2.48242 -3.3099,5.37858 -3.3099,5.37858 0,0 -2.4824,3.72363 -3.3099,5.37857 -0.8274,1.65495 -5.7923,2.89616 -9.5159,2.89616 -3.7236,0 -7.4473,-0.82747 -11.1709,0 -3.7236,0.82747 -5.3786,4.13737 -5.3786,4.13737 0,0 -4.1373,-0.41374 -7.861,-1.65495 -3.7236,-1.24121 -5.7923,-4.96484 -13.2396,-3.30989 -7.4472,1.65494 -4.5511,0.82747 -9.9296,3.30989 -5.3786,2.48242 -3.3099,2.89616 -7.861,3.72363 -4.5511,0.82747 -7.4473,2.89616 -7.4473,2.89616 0,0 -3.7211,-1.24121 -3.7236,-2.89616 0,-1.65453 1.129,-10.87638 2.0686,-14.06704 1.7375,-5.90011 -6.6197,-6.20606 -11.9983,-7.03353 -5.3786,-0.82747 -11.9984,0.82747 -13.6533,-0.41374 -1.655,-1.24121 -3.7236,-6.20605 -2.4824,-8.27473 1.2412,-2.06869 -1.2412,-14.89452 -0.4138,-16.54947 0.8275,-1.65495 7.0336,0.41374 9.516,2.89616 2.4824,2.48242 4.9648,7.03352 9.9297,4.5511 4.9648,-2.48242 -1.2413,-4.5511 7.4472,-5.79231 8.6885,-1.24121 8.6885,-1.24121 13.6533,-1.24121 4.9649,0 12.4121,-3.72363 12.4121,-5.37858 0,-1.65495 0.8275,-5.37858 -0.8274,-7.861 -1.655,-2.48242 -7.0336,-0.82747 -1.655,-3.72363 5.3786,-2.89616 6.6198,-5.79231 8.2747,-7.03352 1.655,-1.24121 -1.2412,-2.89616 3.3099,-4.55111 4.5511,-1.65494 13.2396,-3.72363 13.2396,-3.72363 0,0 2.8962,-3.72363 2.4824,-5.79231 -0.4137,-2.06868 -0.4137,-7.861 1.655,-9.10221 2.0687,-1.24121 2.8961,-6.20605 6.206,-6.61979 3.3099,-0.41373 4.5511,1.24121 8.2748,1.65495 3.7236,0.41374 0.4137,-1.65495 7.4472,-3.30989 7.0335,-1.65495 7.4473,-2.48242 7.4473,-2.48242 0,0 2.0687,-2.89616 5.3786,-7.44726 3.3099,-4.55111 4.5511,-2.89616 5.7923,-7.03353 1.2412,-4.13736 0.4137,-7.03352 3.7236,-9.51594 3.3099,-2.48242 6.2061,-2.48242 10.3434,-7.44726 4.1374,-4.96484 4.1374,-11.99837 7.861,-11.17089 3.7236,0.82747 4.1374,3.72363 5.7923,5.79231 1.655,2.06868 9.9297,6.61979 15.722,6.61979 5.7923,0 7.861,2.06868 11.5847,2.89616 3.7236,0.82747 10.3434,-2.48242 10.7571,-5.37858 0.4137,-2.89616 3.3099,-6.61979 6.2061,-9.51595 2.8961,-2.89615 12.4121,-9.51594 15.722,-9.51594 3.3098,0 5.7923,-3.30989 7.0335,0 1.2412,3.30989 2.4824,6.20605 2.4824,6.20605 l 7.0335,1.24121 3.3099,1.65495 c 0,0 1.2412,4.13736 -1.6549,6.20605 -2.8962,2.06868 -7.0336,4.96484 -7.0336,4.96484 l -2.0686,6.20605 c 0,0 1.6549,2.89616 3.7236,0.41374 2.0687,-2.48242 -1.2412,-2.06869 2.4824,-3.72363 3.7236,-1.65495 7.861,-2.89616 7.861,-2.89616 0,0 2.8962,4.5511 4.1374,7.44726 1.2412,2.89616 4.1373,7.03352 4.9648,8.68847 0.8275,1.65495 -1.6549,8.27473 -3.3099,10.34342 -1.6549,2.06868 -7.0335,5.79231 -7.0335,5.79231 l -4.5511,4.96484 9.5159,-2.06868 c 0,0 7.0336,-1.24121 9.1022,-1.24121 2.0687,0 5.7924,1.65494 7.861,3.30989 2.0687,1.65495 2.4825,2.48242 5.3786,2.06869 2.8962,-0.41374 2.0687,-2.06869 6.2061,-1.24121 4.1373,0.82747 5.3785,3.30989 8.2747,3.72363 2.8962,0.41373 7.4473,0 7.4473,0 0,0 1.6549,-0.82748 0.4137,4.13736 -1.2412,4.96484 -3.3099,4.55111 -1.6549,6.20605 1.6549,1.65495 2.8961,-0.82747 3.3099,3.72363 0.4137,4.55111 -2.8962,9.92968 -2.8962,9.92968 l -7.861,7.861 -7.861,4.96484 c 0,0 -4.9648,2.89616 -2.0687,5.79232 2.8962,2.89615 1.655,7.03352 7.4473,10.34341 5.7923,3.3099 4.5511,2.89616 6.6198,6.20605 2.0686,3.3099 3.3099,7.44726 1.6549,8.68847 -1.6549,1.24122 -9.1022,0.41374 -11.9984,0 -2.8961,-0.41373 -4.1373,-3.72363 -7.0335,-6.20605 -2.8961,-2.48242 -1.2412,-7.86099 -5.3786,-5.79231 -4.1373,2.06868 -2.4824,2.48242 -6.206,4.5511 -3.7236,2.06869 -2.8962,2.06869 -5.7923,1.65495 -2.8962,-0.41374 -4.1374,2.48242 -4.1374,2.48242 0,0 -6.6198,1.65495 -8.6885,2.06868 -2.0686,0.41374 -3.3099,-1.24121 -5.7923,4.96485 -2.4824,6.20605 2.8962,6.61978 -4.9648,10.75715 -7.861,4.13737 -5.7923,1.24121 -9.516,6.61979 -3.7236,5.37857 -11.9983,7.03352 -11.9983,10.34341 0,3.3099 3.3099,2.06869 -0.4138,4.96484 -9.4258,7.33105 -14.4807,2.06869 -15.3082,0.41374 -0.8275,-1.65495 -9.1022,-21.51431 -9.1022,-21.51431 z"
      id="path3901"
      style="fill:#c1e0b2;fill-opacity:1;stroke:#000000;stroke-width:1px;stroke-linecap:butt;stroke-linejoin:miter;stroke-opacity:1"></path>
  </g>
</svg>