<svg aria-label="assam" viewBox="1000 450 600 600" xmlns="http://www.w3.org/2000/svg" preserveAspectRatio="xMidYMid meet" style="width: 100%; height: 100%;">
  <g id="assam">
    <path 
      d="m 1252.381,602.9526 -9.1022,13.65331 2.0687,10.34342 c 0,0 -3.7236,-0.82748 -5.7923,-1.24121 -2.0687,-0.41374 -8.2748,-1.65495 -8.2748,-1.65495 0,0 -4.1373,2.89616 -5.7923,4.13737 -1.6549,1.24121 -10.3434,1.65495 -10.3434,1.65495 l -4.1374,1.24121 c 0,0 -2.8961,2.06868 -5.7923,1.24121 -2.8961,-0.82748 -5.3786,-1.65495 -7.0335,-0.41374 -1.655,1.24121 0.8275,4.13737 -5.3786,4.5511 -6.206,0.41374 -15.722,2.89616 -17.3769,1.24121 -1.655,-1.65494 -8.2748,-7.86099 -8.2748,-7.86099 l -4.9648,-0.41374 -4.5511,3.72363 c 0,0 -4.5511,0 -5.7923,2.48242 -1.2412,2.48242 0.8275,4.5511 -1.655,4.13737 -2.4824,-0.41374 -6.6197,-1.65495 -6.6197,-1.65495 l -2.4825,2.48242 -6.206,3.30989 -14.0671,15.30826 c 0,0 3.3099,20.2731 4.9649,21.10057 1.6549,0.82748 10.7571,4.96484 10.7571,4.96484 0,0 3.3099,0.41374 3.3099,4.13737 0,3.72363 -2.4824,2.06868 -2.0687,6.61979 0.4138,4.5511 2.0687,9.51594 2.0687,9.51594 l 2.4824,5.79232 47.5798,-13.65332 68.2665,3.3099 -7.4472,19.44562 4.1373,7.861 c 0,0 8.2748,4.96484 10.3434,5.79231 2.0687,0.82748 4.1374,2.06869 4.1374,2.06869 l -4.9648,0.41374 c 0,0 -7.4473,0.41373 -5.3786,3.72363 2.0687,3.30989 4.9648,4.96484 5.3786,7.03352 0.4137,2.06868 0,4.13737 0,4.13737 0,0 -5.3786,-0.82748 -5.7923,4.96484 -0.4138,5.79231 -0.4138,9.51594 -0.4138,9.51594 l 8.6885,18.61815 c 0,0 25.6517,0.82748 27.7203,-1.65494 2.0687,-2.48242 11.1709,-11.99837 14.4808,-20.2731 3.3099,-8.27474 14.0671,-33.92641 13.6533,-50.47588 -0.4137,-16.54947 14.8946,-34.75388 26.0655,-52.54456 11.1708,-17.79068 31.8577,-44.68357 40.1324,-49.23467 8.2748,-4.5511 26.0654,-17.79068 26.0654,-17.79068 0,0 19.8594,-17.37694 20.2731,-19.44562 0.4138,-2.06869 -6.6198,-17.79068 -6.6198,-17.79068 l -0.4137,-24.8242 c 0,0 -23.583,-4.96484 -33.9264,1.65494 -10.3434,6.61979 -45.511,24.82421 -65.3704,33.51268 -19.8594,8.68847 -39.305,25.65167 -44.6836,27.30662 -5.3785,1.65495 -31.8577,9.92968 -31.8577,9.92968 z"
      id="path3904"
      style="fill:#ebc5dd;fill-opacity:1;stroke:#000000;stroke-width:1px;stroke-linecap:butt;stroke-linejoin:miter;stroke-opacity:1" />
  </g>
</svg>