<svg aria-label="Bihar" viewBox="700 450 500 573" xmlns="http://www.w3.org/2000/svg"
  preserveAspectRatio="xMidYMid meet" style="width: 100%; height: 100%;">
  <g id="bihar">
    <path
      d="m 829.7402,785.64651 7.2508,0.0732 c 0,0 0.7324,-1.09861 3.0761,-0.0732 2.34369,1.02537 0.0732,1.68453 4.5409,2.05073 4.46766,0.3662 3.29582,-0.58592 5.71275,0.7324 2.41693,1.31833 5.05359,2.7099 7.47052,1.02537 2.41693,-1.68453 1.53805,-4.32118 2.78313,-6.00571 1.24509,-1.68453 4.32118,-1.90425 5.27331,0.65916 0.95212,2.56342 -1.31833,5.63951 1.68453,5.71275 3.00285,0.0732 2.56341,0.29296 4.46766,-1.02536 1.90425,-1.31833 0.65916,-0.29297 3.58878,-0.51269 2.92961,-0.21972 3.14933,-1.0986 3.88174,-2.63665 0.7324,-1.53805 2.27045,-2.63665 2.49017,-0.80564 0.21972,1.83101 -1.31833,3.58877 -0.0732,5.12682 1.24509,1.53805 1.61129,0.21972 2.05073,2.85638 0.43944,2.63665 0.29296,4.98034 2.7099,6.07895 2.41693,1.0986 5.12682,0.65916 5.05358,-1.68453 -0.0732,-2.34369 -0.95212,-4.83387 1.90425,-3.88174 2.85638,0.95212 2.63665,2.56341 4.39442,2.85637 1.75777,0.29297 1.97749,2.49018 2.92962,-0.95212 0.95212,-3.4423 -1.39157,-4.5409 2.49017,-6.73812 3.88174,-2.19721 4.76063,-3.58877 6.44515,0.36621 1.68453,3.95498 1.17185,7.03107 4.39443,8.42264 3.22257,1.39157 3.88174,2.85637 3.66201,-0.51268 -0.21972,-3.36906 -2.70989,-4.32119 2.19722,-3.8085 4.9071,0.51268 5.05358,1.4648 6.15219,-1.24509 1.0986,-2.70989 -1.09861,-3.88174 3.58878,-4.02822 4.68738,-0.14648 8.12968,0.80564 9.88745,-1.09861 1.75777,-1.90424 -0.65917,-2.12397 4.5409,-2.12397 5.20007,0 6.81135,1.83101 7.69024,0.0732 0.87888,-1.75776 0.29296,-2.56341 0.21972,-4.32118 -0.0732,-1.75777 0.51268,-4.10146 1.97749,-4.98034 1.46481,-0.87889 3.58878,-2.27045 4.1747,-3.0761 0.58592,-0.80564 1.46481,-1.39157 2.05073,-0.80564 0.58593,0.58592 -0.3662,0.21972 0.80565,2.34369 1.17184,2.12397 -1.31833,2.41693 1.97749,2.78313 3.29581,0.3662 4.9071,1.02537 5.12682,0.3662 0.21972,-0.65916 0.0732,-0.7324 0.21972,-3.07609 0.14648,-2.34369 0.73241,-3.88174 1.31833,-2.49017 0.58592,1.39156 -1.53805,1.02536 1.17185,3.00285 2.70989,1.97749 2.56341,2.05073 3.58877,2.27045 1.02537,0.21972 0.87889,-1.68453 1.02537,1.02537 0.14648,2.70989 1.61129,3.73526 2.27045,3.88174 0.65917,0.14648 0.95213,0.29296 0.95213,2.05073 0,1.75777 0.14648,2.70989 1.53804,1.75777 1.39157,-0.95213 1.83101,-4.83387 3.00286,-1.83101 1.17185,3.00285 -0.51268,2.56341 0.51268,5.05358 1.02537,2.49018 -1.61129,1.75777 2.78314,4.54091 4.39442,2.78313 5.63951,3.51554 6.07895,3.58878 0.43944,0.0732 2.12397,-2.3437 3.51554,-3.73526 1.39156,-1.39157 1.83101,-0.0957 2.63665,-4.49018 0.80564,-4.39442 1.75769,-5.25079 2.12389,-5.25079 0.3662,0 1.9043,0.29296 2.8564,1.53805 0.9521,1.24508 1.2451,3.58877 2.4169,0.95212 1.1719,-2.63665 2.7832,-5.85923 3.4423,-5.78599 0.6592,0.0732 1.2451,0.58592 1.3916,2.12397 0.1465,1.53805 0.6592,3.8085 2.0507,3.58878 1.3916,-0.21972 3.0029,-0.58592 3.3691,-2.70989 0.3662,-2.12398 0.4394,-3.22258 0.8789,-3.8085 0.4394,-0.58593 2.9296,1.24508 3.8817,2.34369 0.9521,1.0986 3.5156,1.61129 3.662,0.29296 0.1465,-1.31833 -0.3662,-12.67059 -0.4394,-13.84243 -0.073,-1.17185 0.293,-3.00286 0.8056,-3.73526 0.5127,-0.7324 2.7099,-2.12397 2.0508,-3.95498 -0.6592,-1.83101 -2.2705,-1.09861 -1.9043,-3.58878 0.3662,-2.49017 -0.7324,-3.14933 1.2451,-2.92961 1.9775,0.21972 3.0029,1.4648 4.248,-0.21972 1.245,-1.68453 0.2197,-2.63666 1.538,-4.32119 1.3183,-1.68453 3.3691,-1.31832 5.2001,-1.24508 1.831,0.0732 3.4423,-0.36621 3.8817,-1.46481 0.4394,-1.09861 3.2226,-0.87889 4.2479,-2.12397 1.0254,-1.24509 1.5381,-1.83101 1.2451,-3.0761 -0.2929,-1.24508 -1.0986,-0.29296 -1.0986,-2.70989 0,-2.41693 2.2705,-3.0761 1.6113,-5.63951 -0.6591,-2.56341 -2.2704,-2.78313 -2.2704,-6.44515 0,-3.66202 0.2197,-6.95784 1.538,-8.78885 1.3183,-1.83101 3.3691,-3.51554 5.2001,-3.73526 1.831,-0.21972 3.7352,0.58593 4.6874,-0.3662 0.9521,-0.95212 2.3437,-1.90425 2.2704,-2.92961 -0.073,-1.02537 0.293,-3.58878 -1.4648,-4.61415 -1.7578,-1.02536 -4.8339,-2.12397 -6.0057,-3.58878 -1.1718,-1.4648 -2.7099,-5.78599 -2.6367,-6.59163 0.073,-0.80564 -1.245,-2.34369 -2.7831,-3.0761 -1.538,-0.7324 -3.0761,-4.32118 -1.9775,-6.51839 1.0986,-2.19721 0.7324,-2.70989 1.9043,-3.14933 1.1718,-0.43945 2.8563,-6.66488 2.5634,-8.71561 -0.293,-2.05073 -0.293,-3.66202 -1.9043,-5.34655 -1.6113,-1.68453 -2.8563,-2.92961 -6.2254,-2.41693 -3.3691,0.51268 -7.7635,1.31833 -10.2537,2.70989 -2.4901,1.39157 -5.5662,1.68453 -7.8367,1.31833 -2.2704,-0.3662 -4.9803,0 -8.5691,0.0732 -3.5888,0.0732 -4.1015,1.97749 -6.6649,-0.80564 -2.5634,-2.78314 -5.5662,-5.27331 -6.9578,-6.37191 -1.39153,-1.09861 -8.05641,-0.51269 -8.86205,1.0986 -0.80564,1.61129 -2.56341,4.39442 -4.61414,3.58878 -2.05073,-0.80565 -5.78599,-1.24509 -7.2508,-0.7324 -1.46481,0.51268 -1.75777,4.76062 -5.56627,0.43944 -3.8085,-4.32118 -4.68738,-4.90711 -6.66487,-6.29867 -1.97749,-1.39157 -5.27331,-0.80565 -6.73812,0 -1.4648,0.80564 -1.61129,3.51553 -4.24794,0.43944 -2.63665,-3.0761 -5.41979,-3.95498 -6.22543,-3.4423 -0.80564,0.51268 -4.32118,4.10146 -5.05359,4.10146 -0.7324,0 -3.51553,-2.92961 -3.51553,-3.51554 0,-0.58592 -2.49018,-2.12397 -4.46767,-5.20006 -1.97749,-3.0761 -5.2733,-5.85923 -7.17755,-5.27331 -1.90425,0.58592 -4.90711,2.05073 -7.03108,2.78313 -2.12397,0.73241 -7.69024,2.85638 -10.32689,0 -2.63666,-2.85637 -1.24509,-4.1747 -6.44516,-5.93247 -5.20006,-1.75777 -14.57483,-2.56341 -16.25936,-3.88174 -1.68453,-1.31832 -3.00285,-0.7324 -3.22258,-4.68738 -0.21972,-3.95498 3.22258,-8.78885 -1.4648,-12.37762 -4.68739,-3.58878 -7.90996,-4.68739 -8.27617,-4.76063 -0.3662,-0.0732 -5.20006,2.49017 -7.03107,0.95213 -1.83101,-1.53805 -0.43944,-1.17185 -3.73526,-4.46767 -3.29582,-3.29581 -5.49303,-5.78599 -8.86209,-4.39442 -3.36905,1.39157 -9.66773,0.95213 -12.37762,2.78314 -2.70989,1.831 -7.39728,0.29296 -3.51554,4.1747 3.88174,3.88174 2.7099,3.07609 4.46767,7.39727 1.75776,4.32119 5.2733,28.71023 7.61699,30.17504 2.3437,1.46481 -0.80564,2.63665 -3.29581,6.00571 -2.49017,3.36906 -2.78314,9.66773 0,12.1579 2.78313,2.49017 0.21972,7.83672 2.70989,12.23114 2.49017,4.39443 0.21972,7.69024 8.78885,11.86495 8.56912,4.1747 0,12.1579 -3.66202,11.86494 -3.66202,-0.29297 -13.62271,9.0818 -13.32975,10.61985 0.29296,1.53805 -9.00857,6.07895 -8.20292,8.12968 0.80564,2.05073 -14.20863,19.55518 -13.69595,23.43692 0.51268,3.88174 1.46481,17.65093 3.73526,20.94675 2.27045,3.29582 3.29581,11.93818 3.29581,11.93818 z"
      id="path3013"
      style="fill:#ebc5dd;fill-opacity:1;stroke:#000000;stroke-width:1px;stroke-linecap:butt;stroke-linejoin:miter;stroke-opacity:1"></path>
  </g>
</svg>