<svg aria-label="Chhatisgarh" preserveAspectRatio="xMidYMid meet" style="width: 100%; height: 100%;"
  viewBox="500 700 500 673" xmlns="http://www.w3.org/2000/svg">
  <g id="chattisgarh">
    <path
      d="m 668.0537,1114.3022 c 0,0 -2.45034,4.2324 2.45035,7.5738 4.90069,3.3413 9.13311,1.5593 13.14277,2.8958 4.00966,1.3366 5.56897,1.3366 6.46001,2.8959 0.89103,1.5593 0.66827,1.5593 1.78207,2.4503 1.11379,0.8911 0.66827,0.2228 1.33655,2.8959 0.66828,2.6731 -0.22276,4.4552 2.89586,6.9055 3.11863,2.4504 2.45035,0.6683 4.45518,2.2276 2.00483,1.5593 2.45035,3.1186 0.89104,3.3414 -1.55932,0.2228 -4.00966,-0.2228 -4.00966,1.7821 0,2.0048 -0.22276,5.3462 2.22759,4.0096 2.45034,-1.3365 2.6731,-2.6731 4.00965,-3.1186 1.33656,-0.4455 4.00966,-2.6731 3.34139,-0.4455 -0.66828,2.2276 -1.55932,2.8959 1.11379,2.8959 2.67311,0 4.00966,-1.5594 4.23242,0 0.22276,1.5593 -2.00483,1.782 -2.67311,3.7869 -0.66827,2.0048 -0.66827,1.782 0.44552,3.1186 1.11379,1.3365 2.67311,1.5593 2.45035,4.2324 -0.22276,2.6731 -1.55931,3.1186 0.22276,5.7917 1.78207,2.6731 2.6731,6.46 4.67793,4.2324 2.00483,-2.2275 1.55931,-3.7869 3.56414,-3.1186 2.00483,0.6683 4.9007,0.4455 9.13311,2.2276 4.23242,1.7821 3.56414,2.8959 7.79656,0.4455 4.23242,-2.4503 36.08693,-48.1159 43.66073,-52.1255 7.5738,-4.0097 -3.56414,-35.8642 9.35587,-41.2104 12.92001,-5.3462 19.82554,-24.7262 19.60278,-26.9538 -0.22276,-2.2276 -8.6876,-9.5787 -10.02415,-10.4697 -1.33655,-0.891 -2.89586,-14.7021 -3.11862,-19.38 -0.22276,-4.678 -2.00483,-12.6973 0,-16.0387 2.00483,-3.3413 4.67793,-14.9248 5.56897,-15.37031 0.89103,-0.44552 26.5083,-1.55931 29.40416,-3.34139 2.89587,-1.78207 38.76004,-49.67521 40.09659,-53.23935 1.33655,-3.56414 17.37519,-42.99246 19.38002,-47.00211 2.00483,-4.00966 -7.35104,-27.39934 -7.79656,-30.51796 -0.44552,-3.11863 -4.9007,-35.41866 -8.46484,-36.75521 -3.56414,-1.33655 -35.19589,-10.02415 -40.09658,-10.2469 -4.9007,-0.22276 -23.38968,-0.89104 -33.85935,0.66827 -10.46966,1.55931 -61.03591,10.69243 -62.81798,15.37036 -1.78207,4.67794 -2.00483,27.62209 -2.89587,33.19107 -0.89103,5.56897 -63.2635,131.65046 -63.2635,131.65046 0,0 -7.5738,70.83727 -7.35104,73.95597 0.22276,3.1186 2.6731,50.789 2.6731,50.789 z"
      id="path3865"
      style="fill:#ebc5dd;fill-opacity:1;stroke:#000000;stroke-width:1px;stroke-linecap:butt;stroke-linejoin:miter;stroke-opacity:1"></path>
  </g>
</svg>