<svg aria-label="Delhi" preserveAspectRatio="xMidYMid meet" style="width: 100%; height: 100%;"
  viewBox="250 550 500 10" xmlns="http://www.w3.org/2000/svg">
  <g id="delhi">
    <path
      d="m 504.42668,536.36177 c 0.85714,0.32143 6.42855,1.17857 6.42855,1.17857 l 1.07143,1.2857 c 0,0 0.21428,0.53572 0.32142,0.96429 0.10715,0.42857 0.96429,2.46427 0.96429,2.46427 0,0 0.32142,1.17857 -0.10715,1.71428 -0.42857,0.53572 -0.32142,1.17857 -0.32142,1.17857 0,0 1.39285,0.64285 1.92856,1.28571 0.53571,0.64285 0.96428,2.46428 0.85714,2.89285 -0.10714,0.42857 1.39285,1.17856 1.92856,2.24999 0.53572,1.07142 0.21429,0.85714 0.96429,2.24999 0.74999,1.39285 1.60713,1.28571 2.46427,2.46428 0.85714,1.17856 2.14285,2.46427 1.92857,3.74998 -0.21429,1.28571 -0.53572,2.89285 -0.64286,3.42856 -0.10714,0.53571 -0.64285,4.2857 -1.28571,4.92855 -0.64285,0.64286 -29.89274,1.39285 -30.10703,0.32143 -0.21428,-1.07142 3.96427,-17.67851 3.96427,-18.64279 0,-0.96428 2.25,-8.46425 2.67857,-9.32139 0.42856,-0.85714 6.96425,-4.39284 6.96425,-4.39284 z"
      id="path3793"
      style="fill:#ebc5dd;fill-opacity:1;stroke:#000000;stroke-width:1px;stroke-linecap:butt;stroke-linejoin:miter;stroke-opacity:1"></path>
  </g>
</svg>