<svg aria-label="Goa" preserveAspectRatio="xMidYMid meet" style="width: 100%; height: 100%;"
  viewBox="80 1200 500 170" xmlns="http://www.w3.org/2000/svg">
  <g id="goa">
    <path
      d="m 299.81667,1272.9702 -7.21036,7.0427 c 0,0 2.01219,3.0183 2.85061,4.5274 0.83841,1.5091 2.34755,6.7073 3.35365,8.0488 1.0061,1.3414 0,2.8506 1.50914,3.3536 1.50915,0.5031 4.19207,0 5.70122,0.5031 1.50914,0.503 2.51524,1.1737 2.51524,1.1737 l -6.53963,2.1799 0.67073,4.8628 c 0,0 4.02439,4.0244 4.8628,5.3659 0.83841,1.3414 1.50915,2.3475 2.51524,5.1981 1.0061,2.8506 2.34756,5.5336 3.35366,7.0427 1.00609,1.5091 2.51524,2.1799 4.52743,4.8628 2.01219,2.6829 0.67073,5.3658 2.01219,6.3719 1.34146,1.0061 5.36585,0.8385 8.88718,-1.0061 3.52134,-1.8445 14.92376,-42.759 14.5884,-44.1005 -0.33537,-1.3415 -22.13412,-17.439 -23.3079,-17.2713 -1.17378,0.1677 -20.2896,1.8445 -20.2896,1.8445 z"
      id="path3871"
      style="fill:#ebc5dd;fill-opacity:1;stroke:#000000;stroke-width:1px;stroke-linecap:butt;stroke-linejoin:miter;stroke-opacity:1"></path>
  </g>
</svg>