<svg aria-label="Gujrat" preserveAspectRatio="xMidYMid meet" style="width: 100%; height: 100%;"
  viewBox="0 600 519 673" xmlns="http://www.w3.org/2000/svg">
  <g id="gujarat">

    <path
      d="m 351.81431,864.12573 c 0,0 0.24759,2.10444 -0.12379,4.45648 -0.37137,2.35203 0.24758,3.71373 2.35203,5.32301 2.10445,1.60929 2.97099,1.3617 2.97099,3.96132 0,2.59961 -2.47582,5.69439 -2.7234,7.17988 -0.24759,1.48549 -0.86654,4.58027 -2.22824,5.69439 -1.36171,1.11412 -0.24759,3.46615 -3.21857,2.8472 -2.97099,-0.61896 -3.46615,-1.3617 -4.95165,-0.61896 -1.48549,0.74275 -2.7234,3.58994 -2.59961,4.58027 0.12379,0.99033 -0.24758,1.11412 -0.86654,2.10445 -0.61895,0.99033 0.12379,1.98066 1.98066,3.46615 1.85687,1.4855 2.47582,2.8472 2.59961,3.96132 0.12379,1.11412 -1.23791,3.34236 -3.46615,2.97098 -2.22824,-0.37137 -3.09478,-2.10444 -4.33269,-2.59961 -1.23791,-0.49516 -3.96131,0 -3.83752,1.48549 0.12379,1.4855 1.3617,8.04643 2.97099,10.39846 1.60928,2.35203 2.7234,4.45648 2.59961,6.18955 -0.12379,1.73308 -0.86654,6.56093 -0.86654,7.55126 0,0.99033 -0.61895,2.22824 -2.10445,2.22824 -1.48549,0 -2.47582,-0.24758 -2.97098,0.49516 -0.49517,0.74275 -0.24759,2.59962 -1.36171,3.21857 -1.11412,0.61896 -3.96131,0.86654 -3.96131,0.86654 0,0 0.37137,3.09478 1.11412,3.96132 0.74274,0.86653 1.48549,0.12379 0.86654,2.22824 -0.61896,2.10444 0.24758,3.83752 -1.60929,4.0851 -1.85686,0.24758 -3.71373,0.86654 -3.21857,3.09478 0.49517,2.22824 0.37138,4.2089 1.60929,4.70406 1.23791,0.49517 2.35203,0.74275 4.0851,-0.12379 1.73308,-0.86654 2.22824,-1.23791 5.19923,-1.11412 2.97099,0.12379 1.85687,-0.24758 4.82785,-0.24758 2.97099,0 2.72341,1.3617 5.32302,-0.24758 2.59961,-1.60929 4.70406,-1.85687 5.44681,-1.23792 0.74275,0.61896 1.3617,1.73308 1.23791,2.97099 -0.12379,1.23791 0.37137,2.35203 -1.3617,2.8472 -1.73308,0.49516 -5.32302,0.49516 -8.17021,0.86653 -2.8472,0.37138 -6.18956,1.60929 -7.42747,2.8472 -1.23791,1.23791 -1.11412,4.45648 -2.35203,5.44681 -1.23791,0.99033 -3.21857,3.83752 -5.5706,3.71373 -2.35203,-0.12379 -2.8472,-1.85687 -3.09478,-0.24758 -0.24758,1.60928 0,4.95164 -1.60928,4.95164 -1.60929,0 -3.83753,0.24759 -5.44681,0.74275 -1.60929,0.49516 -4.33269,0.49516 -3.09478,1.48549 1.23791,0.99033 5.5706,1.98066 6.43714,2.47582 0.86654,0.49517 1.3617,-0.12379 3.46615,3.71374 2.10445,3.83752 4.70406,4.82785 4.70406,6.56093 0,1.73307 0.74275,3.58994 0.12379,5.5706 -0.61895,1.98066 -2.59961,5.44676 -3.46615,7.05606 -0.86654,1.6093 0,3.2186 -0.99033,4.2089 -0.99033,0.9904 -5.69439,2.4758 -7.92263,1.8569 -2.22824,-0.619 -4.08511,-0.9903 -5.32302,-1.1141 -1.23791,-0.1238 -3.21856,-1.3617 -3.83752,-3.0948 -0.61896,-1.7331 0.37137,-2.8472 -1.48549,-3.3424 -1.85687,-0.4951 -5.32302,0.8666 -5.81819,2.5996 -0.49516,1.7331 0.1238,2.8472 1.4855,4.0852 1.3617,1.2379 3.09478,4.8278 1.48549,6.6847 -1.60928,1.8568 -3.34236,3.5899 -3.09478,5.4468 0.24759,1.8568 0.86654,6.5609 -1.3617,8.1702 -2.22824,1.6093 -9.03675,4.5803 -10.15087,3.7137 -1.11412,-0.8665 -3.09478,-1.4855 -3.09478,-2.8472 0,-1.3617 -1.3617,-2.971 -2.84719,-2.352 -1.4855,0.619 -3.21857,-0.2476 -1.11412,-2.1044 2.10445,-1.8569 4.95164,-0.3714 4.2089,-2.1045 -0.74275,-1.7331 -3.09478,-2.7234 -6.31335,-1.8569 -3.21857,0.8666 -1.60928,1.1142 -4.2089,2.971 -2.59961,1.8569 -5.44681,1.7331 -6.06576,2.7234 -0.61896,0.9904 -2.22824,1.1141 -0.74275,2.7234 1.48549,1.6093 3.09478,2.3521 2.8472,3.0948 -0.24759,0.7428 2.59961,2.1045 -2.47583,1.8569 -5.07543,-0.2476 -5.69439,-0.1238 -8.17021,-1.6093 -2.47582,-1.4855 -0.24758,-1.2379 -2.97098,-1.6093 -2.72341,-0.3714 -4.45648,-1.1141 -3.71374,-2.8472 0.74275,-1.7331 5.44681,-7.0561 6.18956,-8.294 0.74274,-1.2379 2.35203,-4.4565 2.35203,-5.6944 0,-1.2379 -3.09478,-7.1799 -3.21857,-9.9033 -0.12379,-2.7234 -3.34236,-14.23595 -4.33269,-16.2166 -0.99033,-1.98066 -1.23791,-3.34236 -1.73307,-4.58027 -0.49517,-1.23792 -3.34236,-4.2089 -4.70407,-7.92263 -1.3617,-3.71374 -0.61895,-6.68472 0.12379,-7.0561 0.74275,-0.37137 2.72341,-0.24758 4.45648,-2.47582 1.73308,-2.22824 0.99033,-3.71373 0.86654,-5.94197 -0.12379,-2.22824 0.49517,-3.58994 4.08511,-4.33269 3.58994,-0.74275 7.17988,-1.23791 6.43714,-3.34236 -0.74275,-2.10445 -0.37138,-3.09478 -4.08511,-3.09478 -3.71373,0 -7.67505,2.59961 -10.52224,0.49517 -2.8472,-2.10445 -3.46615,-5.19923 -3.09478,-6.06577 0.37137,-0.86654 5.69439,-2.7234 5.69439,-2.7234 0,0 2.35203,-3.71374 1.98066,-4.58027 -0.37138,-0.86654 0.12379,-2.22824 -1.85687,-2.72341 -1.98066,-0.49516 -4.70406,2.10445 -6.18955,-0.12379 -1.4855,-2.22824 -0.99033,-10.02708 0.86653,-11.01741 1.85687,-0.99033 8.17022,-1.48549 8.17022,-2.84719 0,-1.3617 -2.72341,-4.58027 -5.32302,-4.95165 -2.59961,-0.37137 -7.79884,-0.12379 -7.79884,-0.12379 l -1.73308,3.34236 c 0,0 -2.59961,7.17989 -3.09477,7.79884 -0.49517,0.61896 -4.2089,5.81818 -3.21857,7.67505 0.99033,1.85687 2.47582,7.42747 2.35203,8.4178 -0.12379,0.99032 -2.22824,3.34236 -2.59962,4.58027 -0.37137,1.23791 2.47583,7.42746 2.47583,7.42746 0,0 1.85686,4.95165 1.11412,6.31335 -0.74275,1.3617 -6.18956,6.56093 -7.67505,8.17021 -1.48549,1.60929 -4.2089,6.9323 -4.95165,8.66538 -0.74274,1.73307 -1.11412,4.33269 -4.70406,4.70406 -3.58994,0.37137 -2.84719,-1.48549 -8.66537,3.96132 -5.81819,5.4468 -5.5706,2.7234 -10.39846,3.96131 -4.82785,1.23791 -7.30367,1.60929 -9.40812,3.83753 -2.10445,2.22823 -8.4178,4.20889 -13.24565,5.07539 -4.82785,0.8666 -8.17021,4.3327 -11.51257,2.4759 -3.34236,-1.8569 -5.07544,0 -6.80851,1.2379 -1.73308,1.2379 -5.94198,1.733 -8.91296,0.7427 -2.97099,-0.9903 -4.58027,-4.5803 -8.91296,-5.0754 -4.33269,-0.4952 -7.30368,0.3714 -7.30368,0.3714 0,0 -6.31334,-4.08515 -7.79884,-7.30372 -1.48549,-3.21857 -8.54158,-7.05609 -12.13152,-11.01741 -3.58995,-3.96131 -9.16055,-8.04642 -12.75049,-17.20696 -3.589939,-9.16054 -5.818179,-9.16054 -6.437134,-9.53191 -0.618956,-0.37138 -3.34236,-3.83753 -7.427467,-8.66538 -4.085106,-4.82785 -21.911025,-22.65377 -21.911025,-22.65377 0,0 -8.046421,-5.5706 -9.03675,-8.04642 -0.990329,-2.47583 -2.599613,-14.60735 -2.599613,-16.46422 0,-1.85687 -0.371374,-5.44681 2.599613,-6.18956 2.970986,-0.74274 9.531915,-2.10444 10.646035,-1.23791 1.11412,0.86654 3.218568,7.55126 3.961315,8.4178 0.742746,0.86654 4.085106,1.3617 5.075435,0.74274 0.990329,-0.61895 4.580271,-1.3617 5.446809,-1.3617 0.866537,0 0.371373,-2.10445 2.352031,-2.7234 1.980657,-0.61896 3.713733,1.48549 6.684719,1.85687 2.970987,0.37137 2.352031,0 4.45648,-1.4855 2.104448,-1.48549 6.808512,-2.97098 9.903292,-3.09478 3.09477,-0.12379 4.33268,-2.47582 5.07543,-3.21856 0.74275,-0.74275 3.71373,-0.86654 6.31335,-0.74275 2.59961,0.12379 8.91296,-0.61896 9.90329,-2.97099 0.99032,-2.35203 1.73307,-3.71373 3.83752,-5.5706 2.10445,-1.85686 4.08511,-2.97098 5.32302,-4.70406 1.23791,-1.73307 6.06576,-4.95164 7.42746,-5.19923 1.36171,-0.24758 2.8472,-1.11412 3.34236,-3.46615 0.49517,-2.35203 1.73308,-3.09477 -0.24758,-4.45648 -1.98066,-1.3617 -6.18955,-3.46615 -6.9323,-1.85686 -0.74275,1.60928 -0.37137,5.32302 -0.37137,5.32302 0,0 -1.60929,0.37137 -3.58995,1.73307 -1.98065,1.3617 -3.96131,1.11412 -5.94197,0.12379 -1.98066,-0.99033 -2.59961,-2.22824 -4.58027,-0.99033 -1.98066,1.23791 -4.82785,2.8472 -3.96132,3.96132 0.86654,1.11412 -0.61895,3.58994 -1.98065,3.83752 -1.3617,0.24758 -11.1412,-0.99033 -13.86461,-1.85686 -2.7234,-0.86654 -3.71373,0.99032 -3.83752,2.59961 -0.12379,1.60928 -1.23791,3.46615 -3.466151,3.46615 -2.22824,0 -16.464217,-1.23791 -18.568666,-2.7234 -2.104448,-1.4855 -12.626692,-7.55126 -16.588007,-9.16055 -3.961316,-1.60928 -18.073501,-12.62669 -19.06383,-13.49323 -0.990329,-0.86653 -3.218569,-4.58027 -4.332689,-7.05609 -1.11412,-2.47582 -8.294004,-9.7795 -8.294004,-9.7795 0,0 -3.466151,-2.47582 -2.352031,-4.33268 1.11412,-1.85687 1.980658,-2.59962 2.475822,-4.45648 0.495165,-1.85687 6.189556,-4.33269 8.294004,-5.07544 2.104449,-0.74275 9.779497,-4.08511 10.02708,-5.32302 0.247582,-1.23791 0.495164,-4.0851 -1.609285,-4.0851 -2.104448,0 -7.179884,1.73307 -8.541586,2.7234 -1.361702,0.99033 -3.34236,3.34236 -4.827853,4.58027 -1.485493,1.23791 -7.056093,5.19923 -8.665377,5.94197 -1.609284,0.74275 -3.713733,3.46616 -5.941973,1.4855 -2.22824,-1.98066 -5.075435,-3.96132 -3.713733,-5.44681 1.361702,-1.48549 4.085106,-1.48549 4.332689,-4.08511 0.247582,-2.59961 -0.990329,-4.95164 -0.990329,-6.56093 0,-1.60928 3.589942,-10.27466 4.704062,-10.64603 1.11412,-0.37137 12.255319,2.10445 13.864603,2.59961 1.609285,0.49517 8.170213,2.10445 9.531915,1.3617 1.361702,-0.74274 4.951644,-10.27466 4.45648,-12.87427 -0.495165,-2.59961 -2.22824,-4.82785 -0.866538,-6.31335 1.361702,-1.48549 5.818182,-2.84719 6.808511,-1.73307 0.990329,1.11412 1.11412,2.97098 3.218568,3.34236 2.104449,0.37137 4.951644,-0.12379 5.694391,0.86654 0.742747,0.99032 2.970987,-1.36171 4.827853,-1.4855 1.856867,-0.12379 2.352031,1.85687 5.075435,2.47582 2.723405,0.61896 8.789169,0.74275 11.883946,-0.86653 3.094778,-1.60929 4.085107,-2.8472 7.675048,-1.11412 3.589945,1.73307 5.818185,5.07543 9.036755,5.94197 3.21856,0.86654 5.5706,3.46615 8.17021,3.71373 2.59961,0.24759 5.81818,2.59962 8.17021,0.86654 2.35203,-1.73307 2.10445,-4.45648 3.71373,-6.9323 1.60929,-2.47582 6.18956,-2.35203 10.89362,-3.09478 4.70406,-0.74275 9.53192,-0.12379 12.37911,-2.59961 2.8472,-2.47582 4.58027,-1.60929 5.19923,-0.61896 0.61895,0.99033 -0.24758,7.79884 1.85686,9.40813 2.10445,1.60928 5.19923,2.7234 6.68472,2.47582 1.4855,-0.24758 3.46616,-2.22824 4.58028,-3.96132 1.11411,-1.73307 4.95164,-3.09477 7.42746,-3.09477 2.47582,0 5.69439,0.49516 3.46615,-1.4855 -2.22824,-1.98065 -5.44681,-4.33269 -5.32302,-6.56093 0.1238,-2.22824 3.83753,-7.17988 3.83753,-7.17988 0,0 0.61895,-5.44681 -0.61896,-6.80851 -1.23791,-1.3617 -3.58994,-3.09478 -2.10445,-5.19923 1.4855,-2.10445 -7.67504,-7.05609 4.58028,-6.18955 12.25531,0.86654 11.38878,-0.24758 20.30174,0.37137 8.91296,0.61896 61.27659,-8.41779 64.74274,-6.56093 3.46615,1.85687 19.559,-2.7234 26.73888,9.65571 7.17988,12.37911 12.00774,39.36557 16.7118,45.80271 4.70406,6.43713 8.41779,19.68278 10.76983,23.02514 2.35203,3.34236 33.54738,22.40619 33.54738,23.89168 0,1.4855 -0.12379,9.03676 -0.12379,9.03676 z"
      id="path3799"
      style="fill:#fdf9bb;fill-opacity:1;stroke:#000000;stroke-width:1px;stroke-linecap:butt;stroke-linejoin:miter;stroke-opacity:1"></path>
    <path
      d="m 259.84898,1004.8044 c 0,0 1.75135,-2.0108 1.81621,-2.2702 0.0649,-0.2595 4.92974,-1.3622 4.92974,-1.3622 0,0 0.90811,0.973 0.84324,1.427 -0.0649,0.4541 -1.03784,2.4649 0.1946,3.5676 1.23243,1.1027 2.5946,1.8811 2.33514,2.9189 -0.25946,1.0379 -1.2973,3.4379 -2.07568,2.4649 -0.77838,-0.973 -3.11352,-1.7514 -3.43784,-1.3622 -0.32433,0.3892 -1.68649,1.946 -2.14055,1.6217 -0.45405,-0.3244 -1.42703,-0.3892 -1.42703,-1.8811 0,-1.4919 -1.16756,-3.5027 -1.1027,-3.8919 0.0649,-0.3892 0.0649,-1.2325 0.0649,-1.2325 z"
      id="path7865"
      style="fill:#ebc5dd;fill-opacity:1;stroke:#000000;stroke-width:1px;stroke-linecap:butt;stroke-linejoin:miter;stroke-opacity:1"></path>
  </g>
</svg>