<svg aria-label="Harayana" preserveAspectRatio="xMidYMid meet" style="width: 100%; height: 100%;"
  viewBox="200 300 500 473" xmlns="http://www.w3.org/2000/svg">
  <g id="haryana">
    <path
      d="m 364.66828,468.72594 c 0.79587,0.47752 6.68532,3.34266 6.68532,3.34266 l 2.86514,0.79587 c 0,0 2.06926,0.31835 2.22844,1.59174 0.15917,1.27339 0.95504,3.97936 -1.2734,5.25275 -2.22844,1.2734 -3.50183,2.38762 -3.50183,3.18349 0,0.79587 2.22844,2.38761 3.66101,2.38761 1.43256,0 5.73027,-0.31835 5.73027,-0.31835 0,0 2.86514,0 1.43257,1.91009 -1.43257,1.9101 -3.82018,2.38762 -3.82018,2.38762 0,0 -2.86514,5.73027 -2.06927,8.27706 0.79587,2.54679 -0.79587,3.34266 -1.59174,3.02431 -0.79587,-0.31835 -2.22844,1.43257 -1.75092,2.38762 0.47752,0.95504 2.22844,0.47752 3.18349,2.54679 0.95504,2.06926 0.95504,3.97935 2.38761,3.82018 1.43257,-0.15918 7.16284,-3.97936 10.34633,-2.54679 3.18348,1.43257 6.04862,4.9344 7.79954,5.88945 1.75092,0.95504 4.61605,3.66101 8.43624,2.70596 3.82018,-0.95504 4.61605,-1.43257 5.5711,-2.06926 0.95504,-0.6367 2.86513,0 3.97935,2.38761 1.11422,2.38761 6.68532,7.48119 6.8445,12.73394 0.15917,5.25275 0.47752,7.32202 1.91009,9.23211 1.43257,1.91009 -0.15918,2.06927 0.95504,4.9344 1.11422,2.86514 2.54679,2.86514 2.22844,5.41193 -0.31835,2.54679 1.59175,8.27706 3.50184,9.55046 1.91009,1.27339 0.79587,0.47752 3.02431,3.661 2.22844,3.18349 1.43257,5.5711 5.41192,6.04863 3.97936,0.47752 5.41193,3.34266 6.52615,4.77523 1.11422,1.43256 3.34266,4.9344 2.38761,7.32201 -0.95504,2.38762 -2.38761,0.6367 -2.06926,3.34266 0.31835,2.70596 1.11422,3.50184 1.59174,4.77523 0.47752,1.27339 1.43257,0.31835 -0.6367,2.86514 -2.06926,2.54679 -1.11422,5.5711 0.47753,6.84449 1.59174,1.2734 6.04862,2.54679 8.75458,2.22844 2.70597,-0.31835 4.29771,-1.75092 3.50184,-2.70596 -0.79587,-0.95505 -3.02431,-0.79587 -2.38762,-4.13853 0.6367,-3.34266 0.6367,-3.50184 0.6367,-3.50184 0,0 -1.91009,-1.27339 1.11422,-1.75091 3.02431,-0.47753 5.88945,1.59174 5.88945,1.59174 0,0 1.75092,-0.6367 1.91009,-2.06927 0.15917,-1.43257 0.47752,-2.86513 0.15917,-3.66101 -0.31834,-0.79587 -0.79587,-0.79587 -1.91009,-1.75091 -1.11422,-0.95505 -1.75091,-1.2734 -1.59174,-1.91009 0.15917,-0.6367 2.54679,-2.38762 3.50183,-1.43257 0.95505,0.95504 1.2734,1.91009 3.02432,3.82018 1.75091,1.91009 2.38761,1.91009 3.50183,4.13853 1.11422,2.22844 0.6367,2.86514 2.22844,3.66101 1.59174,0.79587 4.45688,0.79587 4.9344,-0.15917 0.47752,-0.95505 0.6367,-2.06927 0.6367,-3.34266 0,-1.2734 0.79587,-2.22844 2.22844,-3.02432 1.43257,-0.79587 0.47752,-0.95504 1.75092,-1.59174 1.27339,-0.6367 1.11422,-0.6367 2.38761,-0.95504 1.27339,-0.31835 1.75092,-1.43257 2.70596,-2.54679 0.95505,-1.11422 1.59175,-0.31835 2.86514,1.11422 1.27339,1.43257 0.79587,0.63669 1.75092,3.02431 0.95504,2.38761 1.43257,2.38761 2.06926,3.50183 0.6367,1.11422 0.47753,2.70597 0.47753,4.13853 0,1.43257 0.47752,2.54679 0.79587,3.34266 0.31835,0.79588 1.59174,1.11422 0.31835,1.9101 -1.2734,0.79587 -2.70597,-0.31835 -3.50184,2.22844 -0.79587,2.54678 -1.43257,3.02431 -0.6367,4.2977 0.79588,1.2734 0.95505,2.38762 0.95505,3.66101 0,1.27339 -0.79587,3.34266 0.31835,4.29771 1.11422,0.95504 2.38761,1.75091 3.50183,0.63669 1.11422,-1.11422 1.75092,-2.38761 2.06927,-3.18348 0.31835,-0.79587 1.43257,-0.6367 1.59174,1.11422 0.15918,1.75091 -1.59174,3.02431 0,3.34266 1.59174,0.31835 3.66101,0.47752 3.82018,-1.2734 0.15918,-1.75091 0.79588,-1.11422 0.47753,-2.86513 -0.31835,-1.75092 0.15917,-2.54679 -1.59175,-3.02432 -1.75091,-0.47752 -5.09357,-0.95504 -2.86513,-2.22844 2.22844,-1.27339 4.9344,-1.27339 5.73027,-0.47752 0.79587,0.79587 3.18349,1.2734 5.41193,1.11422 2.22844,-0.15917 3.02431,1.2734 3.18348,-0.31835 0.15918,-1.59174 0.6367,-1.59174 -0.31835,-2.86513 -0.95504,-1.2734 -3.97935,-1.9101 -1.75091,-3.50184 2.22844,-1.59174 2.06926,-0.47752 3.18348,-1.59174 1.11422,-1.11422 1.43257,-2.06927 1.91009,-3.34266 0.47753,-1.2734 -0.79587,-1.2734 1.2734,-1.75092 2.06926,-0.47752 3.50183,-0.47752 3.97936,-1.11422 0.47752,-0.6367 1.59174,-2.70596 0.79587,-3.97936 -0.79587,-1.27339 -2.86514,-3.82018 -3.02431,-6.36697 -0.15918,-2.54679 1.75091,-2.54679 1.43256,-4.45688 -0.31834,-1.91009 -0.47752,-2.54678 0.15918,-3.50183 0.6367,-0.95505 1.91009,-1.43257 0.6367,-3.02431 -1.2734,-1.59174 -1.43257,-1.59174 -2.22844,-3.02431 -0.79588,-1.43257 -0.79588,-3.18349 -0.79588,-3.18349 0,0 -2.38761,0 -2.86513,1.59174 -0.47753,1.59175 0.63669,3.66101 -0.95505,3.18349 -1.59174,-0.47752 -4.9344,-1.75092 -6.68532,-3.02431 -1.75092,-1.2734 -4.2977,-3.02431 -5.09358,-2.06927 -0.79587,0.95505 -1.43256,2.70597 -2.70596,3.50184 -1.27339,0.79587 -3.34266,3.18348 -4.13853,0.63669 -0.79587,-2.54678 -0.15917,-3.18348 -1.11422,-4.77522 -0.95505,-1.59175 -3.34266,0 -1.43257,-3.18349 1.91009,-3.18349 2.86514,-2.86514 4.13853,-3.97936 1.2734,-1.11422 0.70597,-2.38761 -0.0899,-4.13853 -0.79587,-1.75092 0.72661,-3.97936 0.72661,-6.2078 0,-2.22844 0.15917,-3.18348 1.75092,-3.50183 1.59174,-0.31835 1.91009,-0.31835 4.2977,-0.47752 2.38762,-0.15918 3.34266,-0.6367 2.86514,-1.59175 -0.47752,-0.95504 -1.75092,-1.27339 -2.06927,-2.38761 -0.31834,-1.11422 -0.15917,-9.55046 -0.31834,-10.82385 -0.15918,-1.2734 -1.11422,-2.70596 -0.6367,-5.88945 0.47752,-3.18348 -0.95505,-3.02431 -1.43257,-5.73027 -0.47752,-2.70597 0.47752,-3.02431 -0.31835,-7.32202 -0.79587,-4.29771 -1.59174,-3.02431 -2.38761,-6.04862 -0.79587,-3.02431 1.27339,-10.98303 1.11422,-12.57477 -0.15918,-1.59174 0.15917,-1.75092 2.86513,-7.64037 2.70597,-5.88945 2.22844,-5.09357 3.02432,-8.27706 0.79587,-3.18349 2.38761,-4.45688 4.9344,-7.64037 2.54679,-3.18348 7.48119,-6.52614 9.07293,-7.48119 1.59175,-0.95504 8.75459,-6.52614 7.64037,-9.55045 -1.11422,-3.02431 -8.11789,0 -13.05229,-6.8445 -4.93441,-6.84449 -2.38762,-13.68899 -8.91376,-16.0766 -6.52615,-2.38761 -20.37431,2.06927 -22.2844,2.70596 -1.91009,0.6367 -3.97936,8.11789 -3.82019,9.55046 0.15918,1.43257 -5.25275,4.29771 -12.09724,8.27706 -6.84449,3.97936 -15.59908,3.02431 -16.39495,10.66468 -0.79587,7.64037 -82.9298,7.16284 -83.5665,7.48119 -0.6367,0.31835 -7.48119,7.64037 -7.48119,7.64037 z"
      id="path3790"
      style="fill:#c1e0b2;fill-opacity:1;stroke:#000000;stroke-width:1px;stroke-linecap:butt;stroke-linejoin:miter;stroke-opacity:1"></path>
  </g>
</svg>