<svg aria-label="Himachal Pradesh" preserveAspectRatio="xMidYMid meet"
  style="width: 100%; height: 100%;" viewBox="250 200 500 400" xmlns="http://www.w3.org/2000/svg">
  <g id="hp">
    <path
      d="m 439.36397,315.15198 6.08959,7.00303 c 0,0 0.60896,3.34927 0.60896,5.17615 0,1.82688 -2.43584,4.87167 -2.43584,4.87167 0,0 -2.74031,0.91344 -3.95823,2.13136 -1.21792,1.21792 -4.56719,1.21792 -4.87167,4.87167 -0.30448,3.65376 -1.5224,3.34928 -1.21792,7.00303 0.30448,3.65376 0,3.0448 2.13136,4.26271 2.13135,1.21792 8.8299,4.26272 9.43886,5.78512 0.60896,1.52239 2.13136,1.21791 3.0448,2.74031 0.91344,1.5224 0.30448,3.65376 -0.91344,4.87167 -1.21792,1.21792 1.82688,10.65679 3.65375,13.3971 1.82688,2.74032 2.74032,0.60896 3.0448,5.48064 0.30448,4.87167 0.60896,5.17615 3.04479,7.3075 2.43584,2.13136 3.0448,2.43584 5.78512,2.43584 2.74031,0 3.04479,-1.5224 4.26271,-2.74031 1.21792,-1.21792 2.43584,-3.95824 2.74031,-2.13136 0.30448,1.82688 -0.91343,3.65375 0.60896,5.17615 1.5224,1.5224 5.17616,3.34928 5.78512,5.48063 0.60895,2.13136 3.65375,0.91344 4.87167,0.91344 1.21792,0 2.13135,0 2.13135,2.74032 0,2.74031 -0.91343,-0.91344 -0.91343,4.56719 0,5.48063 -2.13136,10.04782 -0.30448,10.96126 1.82687,0.91344 0.60896,-0.91344 4.56719,-1.21792 3.95823,-0.30447 4.87167,3.0448 4.87167,3.0448 0,0 0.60896,1.82688 2.74032,1.21792 2.13135,-0.60896 1.82688,-0.30448 5.17615,2.43583 3.34927,2.74032 2.74032,3.0448 4.87167,3.95824 2.13136,0.91344 3.0448,1.21792 3.34928,2.74031 0.30448,1.5224 0,10.04783 0.60896,11.57023 0.60896,1.52239 -0.91344,2.74031 0.30448,3.65375 1.21791,0.91344 2.13135,-0.30448 3.34927,-0.60896 1.21792,-0.30448 1.5224,0.30448 3.34928,0.91344 1.82687,0.60896 3.04479,-0.60896 5.17615,-1.21792 2.13135,-0.60896 1.82688,2.13136 3.04479,3.0448 1.21792,0.91344 3.65376,1.5224 4.87168,0.30448 1.21791,-1.21792 0,0 3.95823,-1.5224 3.95823,-1.5224 7.00303,-1.21792 6.39407,-4.56719 -0.60896,-3.34928 0,-7.30751 -1.82688,-9.43887 -1.82687,-2.13136 -3.95823,-4.56719 -3.04479,-6.08959 0.91344,-1.5224 6.39407,-3.04479 7.00303,-4.56719 0.60896,-1.5224 -0.91344,-5.48063 -1.21792,-7.00303 -0.30448,-1.5224 0,-2.74032 2.43584,-4.56719 2.43583,-1.82688 4.26271,-3.34928 5.78511,-3.95824 1.52239,-0.60896 3.65375,-1.5224 5.78511,-3.34927 2.13135,-1.82688 1.82687,-1.21792 5.17615,-3.0448 3.34927,-1.82688 5.48063,0.91344 6.69855,-1.82688 1.21792,-2.74031 2.13136,-3.34927 3.65375,-1.52239 1.5224,1.82687 5.17616,5.17615 5.17616,5.17615 0,0 0,3.34927 2.13135,0.60896 2.13136,-2.74032 3.0448,-2.74032 5.17615,-1.21792 2.13136,1.5224 4.87168,2.74031 8.82991,2.43584 3.95824,-0.30448 -0.30448,-10.65679 -0.30448,-10.65679 l -0.91344,-2.43583 5.17616,-5.17616 c 0,0 -6.69855,-10.04782 -6.69855,-12.48366 0,-2.43583 1.52239,-4.26271 1.82687,-6.08959 0.30448,-1.82688 -2.74031,-8.22095 -2.74031,-8.22095 0,0 -3.95824,-1.21791 -3.95824,-3.65375 0,-2.43584 0.30448,-3.95823 -0.91344,-5.48063 -1.21791,-1.5224 -3.95823,-3.34928 -3.95823,-3.34928 l -1.21792,-3.34927 0,-10.65679 0.60896,-5.78511 3.95824,-11.57022 -21.61805,-21.61805 c 0,0 -16.4419,-8.8299 -24.35836,-9.43886 -7.91647,-0.60896 -23.14045,-1.5224 -31.66588,-3.65376 -8.52542,-2.13135 -26.48972,-2.74031 -26.48972,-2.74031 0,0 -23.7494,7.91647 -29.53451,10.65678 -5.78511,2.74032 -8.22095,28.01212 -8.22095,28.01212 z"
      id="path3781"
      style="fill:#fad0cf;fill-opacity:1;stroke:#000000;stroke-width:1px;stroke-linecap:butt;stroke-linejoin:miter;stroke-opacity:1"></path>
  </g>
</svg>