<svg aria-label="Jharkhand" preserveAspectRatio="xMidYMid meet" style="width: 100%; height: 100%;"
  viewBox="700 600 500 503" xmlns="http://www.w3.org/2000/svg">
  <g id="jharkhand">
    <path
      d="m 827.53222,807.78765 c 0.55294,0.34558 4.56169,1.45144 6.98077,4.49257 2.41908,3.04113 6.77342,8.15575 8.50134,9.53808 1.72791,1.38233 1.17498,-0.76028 2.76466,2.34996 1.58968,3.11025 3.11024,6.49696 4.49257,8.22487 1.38233,1.72792 1.17498,3.24848 3.59406,3.80141 2.41908,0.55293 4.07788,-0.4147 4.76904,-1.79703 0.69117,-1.38233 2.9029,-2.76466 3.87053,-1.03675 0.96763,1.72792 3.59406,3.87053 2.83378,6.56607 -0.76029,2.69555 -2.55732,4.28523 -3.24848,6.01314 -0.69117,1.72792 -1.10587,2.28085 0.48381,3.80141 1.58969,1.52056 1.58969,2.97201 1.2441,5.52932 -0.34558,2.55732 0.69117,8.08664 2.21173,9.39985 1.52057,1.31322 3.66318,5.18374 4.07788,5.32197 0.4147,0.13824 2.55731,-0.20734 5.59844,-0.20734 3.04112,0 4.97639,-0.27647 5.4602,0.48381 0.48382,0.76028 2.14261,0.69117 0.69117,2.34996 -1.45145,1.6588 -1.93527,0.76028 -2.0735,2.21173 -0.13823,1.45145 1.17498,3.24848 -0.89851,4.90728 -2.0735,1.65879 -4.147,2.14261 -4.147,4.90727 0,2.76466 -1.79703,4.49257 -3.66317,5.25286 -1.86615,0.76028 -7.25724,1.79703 -7.81017,2.48819 -0.55293,0.69117 0.27647,2.62643 1.45145,3.17936 1.17498,0.55293 4.42346,1.93526 6.01314,1.03675 1.58968,-0.89852 8.3631,-2.28085 9.19249,-1.10587 0.8294,1.17499 -1.45144,3.87053 -3.24847,4.07788 -1.79703,0.20735 -5.32198,0.55293 -6.15137,1.86615 -0.8294,1.31321 -0.89852,2.55731 -0.62205,3.04112 0.27646,0.48382 1.10586,0.27647 1.52056,0.48382 0.4147,0.20735 1.52056,-0.8294 3.66318,1.86615 2.14261,2.69554 4.14699,6.77342 6.84253,7.39546 2.69555,0.62205 10.09102,0.0691 10.92042,-1.52056 0.82939,-1.58968 1.93526,-2.0735 4.35434,-1.45145 2.41908,0.62205 6.98077,0.62205 7.60282,-0.69116 0.62204,-1.31322 0.76028,-2.62643 3.38671,-2.34996 2.62642,0.27646 5.66755,1.79703 7.25723,1.24409 1.58968,-0.55293 2.69555,-3.24847 3.24848,-3.59406 0.55293,-0.34558 3.45582,-0.55293 3.59406,0.8294 0.13823,1.38233 1.79703,7.74105 0.96763,11.12776 -0.8294,3.38671 -0.13823,8.84692 1.45145,10.09102 1.58968,1.2441 3.04112,2.69554 4.00875,3.04112 0.96764,0.34559 3.80141,-0.48381 3.80141,-1.45144 0,-0.96763 1.38233,-1.52057 2.34997,-1.38233 0.96763,0.13823 3.11024,-0.8294 3.87052,-1.6588 0.76028,-0.8294 3.17936,-1.52056 3.59406,-0.89851 0.4147,0.62204 1.17498,1.79703 2.97201,1.38233 1.79703,-0.4147 3.80141,-1.38233 4.90728,-0.48382 1.10586,0.89852 4.76904,4.07788 5.4602,3.38671 0.69117,-0.69116 3.24848,-3.80141 3.59406,-4.07787 0.34558,-0.27647 1.79703,-0.8294 1.72791,0 -0.0691,0.82939 -1.45144,1.52056 -1.58968,1.86614 -0.13823,0.34558 0.4147,1.17498 0.76029,1.6588 0.34558,0.48381 0.27646,0.96763 -0.48382,1.86614 -0.76028,0.89852 -1.2441,2.21173 -0.55293,2.14262 0.69116,-0.0691 2.62643,-1.2441 2.97201,-1.79703 0.34558,-0.55294 1.31321,0.13823 1.79703,0.34558 0.48381,0.20735 2.28084,0.20735 3.52494,-0.69117 1.2441,-0.89851 2.97201,-2.62642 3.04113,-5.18374 0.0691,-2.55731 -0.13823,-5.32197 0.62205,-7.81016 0.76028,-2.4882 1.72791,-1.6588 0.96763,-3.3176 -0.76028,-1.65879 -2.14261,-5.18374 -2.14261,-6.08225 0,-0.89852 0,-6.28961 0.8294,-6.56607 0.82939,-0.27647 4.2161,0.20735 4.76904,1.03675 0.55293,0.82939 0.20297,1.86614 4.14261,2.21172 3.93964,0.34559 4.7043,3.93965 5.5337,5.25286 0.8294,1.31322 1.86615,3.17936 3.11024,3.38671 1.2441,0.20735 3.04113,-1.10586 3.04113,-1.93526 0,-0.8294 0.89852,-2.97201 2.4882,-1.93526 1.58968,1.03674 2.07349,2.83377 5.32197,3.52494 3.24843,0.69116 4.97643,1.2441 5.04553,1.52056 0.069,0.27647 1.6588,0.48382 2.972,0.4147 1.3132,-0.0691 2.5573,0.0691 2.4191,-1.17498 -0.1383,-1.2441 -0.7603,-1.72791 0,-2.55731 0.7602,-0.8294 2.3499,-0.8294 2.1426,-3.17936 -0.2074,-2.34996 -0.069,-3.73229 -2.0044,-4.28523 -1.9353,-0.55293 -3.0411,-2.90289 -2.5573,-3.73229 0.4838,-0.8294 1.797,-1.45145 1.3823,-3.04113 -0.4147,-1.58968 -1.5205,-2.41908 -3.3867,-2.00438 -1.8661,0.4147 -3.3867,-1.17498 -2.2808,-2.48819 1.1058,-1.31322 2.4882,-1.03675 2.4882,-3.04113 0,-2.00438 0.7602,-1.72791 -0.8986,-2.90289 -1.6588,-1.17498 -3.2484,-0.13824 -3.1102,-2.76466 0.1382,-2.62643 0.4147,-2.69555 1.1059,-4.07788 0.6911,-1.38233 1.9352,-1.93526 0.8294,-2.76466 -1.1059,-0.8294 -2.6956,-2.28085 -3.1794,-1.6588 -0.48381,0.62205 -0.069,1.45145 -2.14261,0.8294 -2.0735,-0.62205 -4.56169,-1.03675 -5.73667,-1.93526 -1.17498,-0.89852 -1.2441,-2.4882 -0.48382,-3.52494 0.76028,-1.03675 1.58968,-0.8294 1.03675,-3.11025 -0.55293,-2.28084 -0.69117,-3.17936 -0.55293,-4.35434 0.13823,-1.17498 -0.27647,-2.34996 -1.93527,-2.41908 -1.65879,-0.0691 -2.97201,-0.48381 -4.6308,0.27647 -1.6588,0.76028 -1.31322,2.34996 -4.28523,1.86614 -2.97201,-0.48381 -8.43222,-1.03674 -10.22925,-2.83377 -1.79703,-1.79703 -2.00437,-3.04113 -4.07787,-3.11025 -2.0735,-0.0691 -2.28085,0.48382 -3.38671,-2.28084 -1.10587,-2.76466 -1.03675,-4.147 -2.41908,-3.45583 -1.38233,0.69117 -2.14261,2.83378 -3.17936,2.41908 -1.03675,-0.4147 -1.6588,-1.17498 -1.72791,-1.86615 -0.0691,-0.69116 -1.2441,-4.90727 0.13823,-6.98077 1.38233,-2.07349 3.17936,-4.69992 4.35434,-5.39109 1.17498,-0.69116 3.73229,-4.76904 5.66756,-4.6308 1.93526,0.13823 4.83815,0.76028 5.80579,1.65879 0.96763,0.89852 3.04112,1.86615 4.28522,1.52057 1.2441,-0.34559 5.46021,-4.97639 6.08226,-6.15138 0.62204,-1.17498 1.79703,-2.62642 1.03674,-3.73229 -0.76028,-1.10586 -1.72791,-0.62205 -1.17498,-1.72791 0.55293,-1.10587 2.69555,-1.52056 3.11025,-2.00438 0.4147,-0.48382 1.93526,-2.0735 3.66317,-2.55731 1.72792,-0.48382 2.28085,-1.38233 3.52495,-1.52057 1.24409,-0.13823 4.00875,-0.34558 5.4602,0.69117 1.45145,1.03675 4.28523,2.76466 5.25283,2.28085 0.9677,-0.48382 2.35,-2.41908 2.2118,-3.66318 -0.1383,-1.2441 2.3499,-3.24848 3.2484,-4.35434 0.8985,-1.10587 3.5941,-0.8294 4.2853,-0.55293 0.6911,0.27646 4.4234,-0.62205 5.1837,-2.00438 0.7603,-1.38233 -0.2765,-1.45145 1.2441,-2.69555 1.5206,-1.2441 3.8014,-0.0691 4.2852,0.0691 0.4838,0.13823 2.6264,0.0691 1.7279,-2.21173 -0.8985,-2.28085 -0.7602,-5.46021 0.1383,-6.7043 0.8985,-1.2441 3.2484,-0.48382 4.0778,-2.14262 0.8294,-1.65879 1.7971,-3.17936 2.0735,-2.34996 0.2765,0.8294 0.3456,3.73229 1.0368,4.00876 0.6912,0.27647 2.6264,-0.8294 2.7646,-1.79703 0.1383,-0.96763 1.0368,-1.03675 1.9353,-2.00438 0.8985,-0.96763 1.8662,-1.31321 1.8662,-2.00438 0,-0.69116 0.4147,-2.41908 0.8985,-3.31759 0.4838,-0.89852 1.0367,-1.86615 1.7279,-1.6588 0.6912,0.20735 2.2808,-0.13823 2.1426,-1.2441 -0.1382,-1.10586 -0.8985,-1.31321 -0.4147,-3.17936 0.4838,-1.86614 1.3132,-2.34996 1.7279,-3.11024 0.4147,-0.76028 1.4515,-2.76466 1.797,-5.18374 0.3456,-2.41908 0.3456,-3.04113 1.2441,-4.28523 0.8986,-1.24409 3.3867,-6.22048 3.8706,-7.87928 0.4838,-1.6588 0.622,-3.17936 0.6911,-4.14699 0.069,-0.96763 -0.2764,-8.7778 -0.2764,-10.36748 0,-1.58968 -0.6221,-1.17498 -0.2074,-3.93964 0.4147,-2.76467 0.9676,-3.3176 -0.4147,-4.69993 -1.3823,-1.38233 -1.0367,-2.48819 -3.594,-3.04113 -2.5574,-0.55293 -4.4235,1.10587 -6.6352,2.14262 -2.2118,1.03674 -3.7323,-4.69993 -16.9336,6.91165 -13.2012,11.61158 -6.4278,12.78656 -8.0175,16.17327 -1.5897,3.38671 -0.6912,12.64832 -3.8014,12.37186 -3.1103,-0.27647 -5.7367,-2.55731 -7.119,0.69116 -1.3823,3.24848 -15.55123,5.04551 -20.0438,1.10587 -4.49258,-3.93965 -7.11901,-4.76904 -9.95279,-8.15575 -2.83377,-3.38671 -26.40251,-10.22925 -30.41127,-3.7323 -4.00876,6.49696 -13.13214,15.55122 -17.90118,15.62034 -4.76904,0.0691 -12.30274,0.34558 -17.9703,-0.20735 -5.66755,-0.55293 -16.86443,3.11024 -27.37014,-0.55293 -10.50572,-3.66318 -16.72621,-5.66756 -20.11292,-3.52495 -3.38671,2.14262 -6.98076,8.08664 -9.39984,7.18812 -2.41908,-0.89851 -23.56874,-15.8968 -25.71135,-4.83815 -2.14262,11.05864 0.0691,27.09368 0.0691,27.09368 z"
      id="path3785"
      style="fill:#c1e0b2;fill-opacity:1;stroke:#000000;stroke-width:1px;stroke-linecap:butt;stroke-linejoin:miter;stroke-opacity:1"></path>
  </g>
</svg>