<svg aria-label="Karnataka" preserveAspectRatio="xMidYMid meet" style="width: 100%; height: 100%;"
  viewBox="150 1000 519 673" xmlns="http://www.w3.org/2000/svg">
  <g id="karnataka">
    <path
      d="m 513.19496,1138.1865 c 2.35771,0.5894 6.4837,3.1436 6.4837,3.1436 0,0 1.96476,0.7859 2.35771,1.9648 0.39295,1.1788 0.58943,2.7506 0.39295,5.5013 -0.19647,2.7506 -0.39295,3.9295 0.98238,6.4837 1.37533,2.5542 1.57181,5.3048 1.57181,7.6625 0,2.3578 0.7859,5.8943 -1.37533,7.0732 -2.16124,1.1788 -1.57181,4.3224 -3.92952,4.3224 -2.35771,0 -4.32247,0 -4.71542,2.1613 -0.39295,2.1612 -2.55418,4.3224 1.96476,5.3048 4.51894,0.9824 3.73304,-0.5894 4.51894,0.9824 0.78591,1.5718 5.89428,2.7507 7.85904,2.5542 1.96476,-0.1965 -2.16124,5.6978 -3.73304,6.0907 -1.57181,0.393 -3.34009,0.393 -4.71542,2.1613 -1.37533,1.7683 -4.71542,4.126 -5.50133,5.3048 -0.7859,1.1789 -1.96476,2.7507 -3.34009,4.3225 -1.37533,1.5718 0.19648,3.733 1.76829,4.126 1.5718,0.3929 2.55418,1.1788 2.35771,2.5542 -0.19648,1.3753 -2.16124,3.3401 -1.76829,4.7154 0.39296,1.3753 2.55419,2.9471 1.37533,3.9295 -1.17885,0.9824 -3.53656,2.1612 -2.94713,4.519 0.58942,2.3577 1.96476,2.5541 1.17885,5.8942 -0.7859,3.3401 0.78591,4.7155 0.19648,5.5014 -0.58943,0.7859 -4.32247,3.5365 -6.48371,5.6978 -2.16123,2.1612 -3.53656,4.5189 -2.55418,5.3048 0.98238,0.7859 5.89427,2.9471 6.4837,3.3401 0.58943,0.3929 2.55419,-1.3753 3.92952,-1.1789 1.37533,0.1965 1.96476,2.1613 4.51894,2.5542 2.55419,0.393 3.92952,1.1789 2.75067,1.9648 -1.17886,0.7859 -4.9119,1.3753 -5.10838,3.1436 -0.19647,1.7683 -1.37533,3.9295 -1.37533,8.0555 0,4.126 0.78591,6.4837 -0.7859,7.6626 -1.57181,1.1788 -5.30485,3.733 -7.46608,2.9471 -2.16124,-0.7859 -4.126,0.1965 -4.9119,-1.9648 -0.7859,-2.1612 -1.96476,-3.5365 -3.14361,-2.9471 -1.17886,0.5894 -6.48371,-0.3929 -7.85904,1.3753 -1.37533,1.7683 -3.73304,2.9472 -3.14361,4.9119 0.58942,1.9648 3.73304,3.3401 3.53656,5.5014 -0.19647,2.1612 -0.39295,2.1612 0.39295,3.5365 0.78591,1.3754 1.96476,1.7683 0.58943,3.3401 -1.37533,1.5718 -4.51894,8.0555 -6.68018,8.252 -2.16123,0.1965 -5.50132,-0.5894 -2.55418,1.7683 2.94713,2.3577 5.30484,0.7859 6.09075,4.5189 0.7859,3.7331 2.75066,6.0908 3.73304,6.6802 0.98238,0.5894 2.55419,10.2168 -0.39295,10.4132 -2.94714,0.1965 -7.46608,2.1613 -9.8238,1.3754 -2.35771,-0.7859 -4.32246,-1.9648 -6.87665,-2.1613 -2.55419,-0.1965 -4.71542,0.7859 -4.71542,2.3577 0,1.5718 0.19647,2.5542 2.16123,3.9296 1.96476,1.3753 5.10838,2.5541 4.32247,4.9118 -0.7859,2.3578 0.98238,3.1437 -1.5718,4.519 -2.55419,1.3753 -3.34009,6.0907 -3.53657,8.252 -0.19648,2.1612 -1.76828,4.5189 0,6.0907 1.76828,1.5718 4.32247,3.5366 6.4837,3.7331 2.16124,0.1964 2.94714,2.1612 2.94714,2.1612 0,0 -2.94714,0.5894 -3.14361,2.7507 -0.19648,2.1612 2.94714,7.2696 5.50132,7.6625 2.55419,0.393 7.46608,1.7683 7.46608,1.7683 0,0 0.39296,-4.126 0.39296,-5.3048 0,-1.1789 2.35771,-3.1437 4.12599,-1.1789 1.76828,1.9648 5.50132,4.126 6.87665,4.7154 1.37534,0.5895 3.14362,0.1965 3.34009,-1.3753 0.19648,-1.5718 0,-3.3401 1.57181,-2.9471 1.57181,0.3929 2.94714,1.3753 4.12599,2.7506 1.17886,1.3754 3.73305,2.7507 2.35771,4.9119 -1.37533,2.1613 -0.7859,2.7507 -1.96475,3.1436 -1.17886,0.393 -2.16124,-0.3929 -4.126,-0.7859 -1.96476,-0.3929 -3.92951,0 -3.92951,1.5718 0,1.5718 2.75066,4.7155 3.53656,5.8943 0.7859,1.1789 1.57181,3.7331 1.57181,5.3049 0,1.5718 -2.94714,1.3753 -4.71542,-1.7683 -1.76829,-3.1436 -10.80618,-0.7859 -13.94979,-4.519 -3.14361,-3.733 -4.51894,-4.7154 -6.68018,-6.0907 -2.16123,-1.3754 -4.32247,-3.5366 -4.71542,-2.5542 -0.39295,0.9824 1.96476,2.7507 2.35771,6.4837 0.39295,3.733 2.55419,5.3048 2.55419,5.3048 0,0 2.35771,2.5542 1.37533,3.9296 -0.98238,1.3753 -2.55419,3.1436 -2.55419,4.5189 0,1.3753 0.78591,3.9295 0.78591,3.9295 0,0 7.66255,0.7859 7.85903,0 0.19648,-0.7859 1.37533,-0.5894 0.7859,-3.3401 -0.58942,-2.7506 -1.96475,-3.1436 -1.76828,-4.3224 0.19648,-1.1789 2.55419,-2.1613 3.53657,-0.5895 0.98238,1.5718 4.91189,4.3225 6.87665,4.3225 1.96476,0 7.07313,2.7507 7.85904,3.1436 0.7859,0.393 1.96476,2.3577 2.16123,3.5366 0.19648,1.1788 3.14361,2.7507 4.51895,0.7859 1.37533,-1.9648 3.92951,-2.1612 4.91189,-2.5542 0.98238,-0.3929 2.35771,-0.5894 4.32247,-0.5894 1.96476,0 1.17886,-1.1789 1.96476,-2.1613 0.7859,-0.9823 0.39295,0 1.96476,-2.3577 1.57181,-2.3577 3.34009,-5.6978 3.34009,-5.6978 0,0 0.39295,1.1789 1.76828,2.9472 1.37533,1.7683 1.96476,2.3577 4.51895,2.7506 2.55418,0.393 3.92951,-1.5718 5.89427,-1.3753 1.96476,0.1965 4.126,0.393 4.32247,2.3577 0.19648,1.9648 -0.7859,2.7507 -1.17885,4.519 -0.39296,1.7682 1.37533,5.5013 4.12599,7.466 2.75066,1.9648 2.94714,1.7683 5.6978,1.5718 2.75066,-0.1964 4.9119,0 4.9119,0 0,0 0.7859,2.3578 0.7859,4.3225 0,1.9648 -0.58943,5.6978 0.39295,7.6626 0.98238,1.9647 1.37533,3.9295 4.71542,3.733 3.34009,-0.1965 4.9119,-0.1965 4.9119,-0.1965 0,0 2.55418,1.7683 1.57181,2.9472 -0.98238,1.1788 -1.37534,2.9471 -1.76829,4.7154 -0.39295,1.7683 -0.19647,2.9471 -1.37533,5.3048 -1.17885,2.3578 -0.98238,4.3225 -4.51894,5.8943 -3.53657,1.5718 -6.09076,2.3577 -6.48371,2.9472 -0.39295,0.5894 -1.5718,1.1788 -2.16123,2.7506 -0.58943,1.5718 -3.14362,4.7154 -3.92952,5.1084 -0.7859,0.3929 -6.09075,-1.1789 -7.66256,-1.3753 -1.5718,-0.1965 -3.53656,-1.9648 -7.46608,-2.1613 -3.92952,-0.1964 -5.30485,0.1965 -5.89428,1.1789 -0.58942,0.9824 -0.19647,3.3401 -2.55418,4.126 -2.35771,0.7859 -2.55419,2.9471 -4.32247,4.126 -1.76828,1.1788 -1.57181,0.9824 -3.92952,1.1788 -2.35771,0.1965 -4.32247,2.7507 -4.32247,5.6978 0,2.9472 2.16124,3.3401 2.75066,5.3049 0.58943,1.9647 0.19648,5.3048 -2.94713,7.6625 -3.14362,2.3577 -5.30485,3.7331 -5.10838,5.6978 0.19648,1.9648 2.75067,2.1613 7.85904,2.5542 5.10837,0.393 7.07313,-0.1965 7.26961,0.5894 0.19647,0.786 -1.37534,6.8767 -2.75067,7.8591 -1.37533,0.9824 -2.16123,2.5542 -2.16123,2.5542 0,0 -0.39295,0.1964 -2.16124,1.1788 -1.76828,0.9824 -2.94713,1.7683 -4.91189,1.7683 -1.96476,0 -2.75066,-1.1788 -4.32247,2.3577 -1.57181,3.5366 -2.35771,5.3049 -3.34009,5.8943 -0.98238,0.5894 -3.14361,-0.9824 -6.28723,-1.5718 -3.14361,-0.5894 -10.80617,1.9647 -11.98503,2.7506 -1.17885,0.786 -2.75066,-1.3753 -4.32247,-1.3753 -1.5718,0 -6.68017,-0.7859 -8.64493,1.5718 -1.96476,2.3577 -2.16124,3.5366 -2.75067,6.2873 -0.58942,2.7506 1.37534,3.733 -1.76828,2.9471 -3.14361,-0.7859 -9.03789,-0.9824 -9.82379,-1.7683 -0.78591,-0.7859 -5.30485,-3.3401 -6.87666,-3.5366 -1.5718,-0.1964 -2.94713,-1.1788 -3.92951,0.1965 -0.98238,1.3753 -1.17886,2.5542 -2.94714,2.3577 -1.76829,-0.1964 -2.35771,-1.5718 -3.73304,-3.9295 -1.37533,-2.3577 -3.53657,-6.6802 -7.26961,-6.4837 -3.73304,0.1965 -4.71542,-2.1612 -5.10837,-4.9119 -0.39295,-2.7507 -3.14362,-4.9119 -4.9119,-3.733 -1.76828,1.1788 -5.50132,1.9647 -7.66256,1.1788 -2.16123,-0.7859 -5.10837,0.393 -5.10837,-2.3577 0,-2.7506 1.57181,-4.126 -1.17886,-4.9119 -2.75066,-0.7859 -4.91189,0.9824 -8.05551,-1.3753 -3.14361,-2.3577 -3.73304,-3.7331 -5.10837,-5.5013 -1.37533,-1.7683 -2.75066,-4.3225 -5.30485,-6.2873 -2.55418,-1.9647 -4.51894,-0.3929 -4.51894,-3.3401 0,-2.9471 -0.58943,-6.6801 -0.98238,-8.0555 -0.39295,-1.3753 -1.76828,-0.1964 -3.14362,-1.7682 -1.37533,-1.5719 -1.17885,-2.9472 -1.37533,-4.126 -0.19647,-1.1789 -1.17885,-2.5542 -2.16123,-1.7683 -0.98238,0.7859 -1.96476,1.9647 -2.75066,0.9824 -0.78591,-0.9824 -0.19648,-1.1789 -1.37533,-2.1613 -1.17886,-0.9824 -1.17886,-1.5718 -3.14362,-2.3577 -1.96476,-0.7859 -2.94714,-0.1965 -3.92952,-1.5718 -0.98237,-1.3753 -1.5718,-4.7154 -3.14361,-4.9119 -1.57181,-0.1965 -8.25199,1.5718 -9.43084,1.5718 -1.17886,0 -4.51895,-2.1612 -4.51895,-2.1612 0,0 -6.68017,-11.7886 -6.68017,-15.7181 0,-3.9295 -2.55419,-21.0229 -2.55419,-22.9877 0,-1.9647 -1.57181,-4.3224 -0.19648,-7.466 1.37533,-3.1437 -4.12599,-10.2168 -3.73304,-12.9675 0.39295,-2.7506 -2.75066,-9.0378 -5.10837,-12.7709 -2.35771,-3.733 -1.17886,-6.0907 -0.58943,-7.859 0.58943,-1.7683 -0.7859,-1.1789 -1.76828,-3.9295 -0.98238,-2.7507 -0.98238,-11.5921 -4.12599,-12.771 -3.14362,-1.1788 -3.73305,0.5895 -3.73305,-1.9647 0,-2.5542 2.75067,-3.5366 1.96476,-5.3049 -0.7859,-1.7683 -3.14361,-4.7154 -5.30485,-5.5013 -2.16123,-0.7859 -3.73304,-0.9824 -3.92951,-2.5542 -0.19648,-1.5718 1.5718,-0.7859 2.75066,-2.7507 1.17885,-1.9647 0,-2.9471 0.98238,-4.1259 0.98238,-1.1789 3.53656,-1.5719 3.53656,-1.5719 0,0 1.96476,-1.9647 2.16124,-3.5365 0.19647,-1.5718 0.19647,-3.5366 0.19647,-5.1084 0,-1.5718 -0.39295,-7.4661 0.19648,-9.2344 0.58943,-1.7682 0.19648,-1.1788 1.17886,-2.5541 0.98237,-1.3754 2.16123,-1.9648 0.98237,-4.126 -1.17885,-2.1613 -2.94713,-1.3754 -1.37533,-3.5366 1.57181,-2.1612 2.35771,-2.7507 2.55419,-3.733 0.19648,-0.9824 1.57181,-0.9824 0.19648,-3.7331 -1.37534,-2.7506 -3.14362,-7.859 -4.126,-7.859 -0.98238,0 -1.96476,-0.393 -3.14361,0.1965 -1.17886,0.5894 -3.14361,3.733 -4.32247,-0.1965 -1.17886,-3.9295 7.46608,-18.4687 8.25199,-21.8088 0.7859,-3.3401 -1.96476,-22.9877 -1.96476,-24.9525 0,-1.9647 -0.98238,-10.6097 8.84141,-10.8061 9.82379,-0.1965 15.71807,-0.5895 20.04054,-3.3401 4.32247,-2.7507 28.88195,-22.3983 33.99032,-23.1842 5.10838,-0.7859 13.55684,-16.111 20.23702,-16.8969 6.68018,-0.7859 12.77093,0.3929 22.7912,0.9824 10.02027,0.5894 21.61234,-8.0555 24.16653,-13.3604 2.55419,-5.3048 16.50397,-20.8264 20.82644,-22.3982 4.32247,-1.5718 18.86168,-8.252 19.84406,-9.6274 0.98238,-1.3753 5.50133,-3.5365 6.48371,-3.9295 0.98238,-0.3929 7.85903,7.8591 7.85903,7.8591 z"
      id="path3868"
      style="fill:#fdf9bb;fill-opacity:1;stroke:#000000;stroke-width:1px;stroke-linecap:butt;stroke-linejoin:miter;stroke-opacity:1"></path>
  </g>
</svg>