<svg aria-label="Kashmir" preserveAspectRatio="xMidYMid meet" style="width: 100%; height: 100%;"
  viewBox="220 0 500 500" xmlns="http://www.w3.org/2000/svg">
  <g id="kashmir">
    <path
      d="m 410.38124,337.35306 2.92148,-1.71852 c 0,0 2.57777,-3.78073 2.40592,-5.15554 -0.17185,-1.37481 4.63999,1.54666 5.49924,2.74962 0.85926,1.20296 0.51556,1.20296 2.57778,0.3437 2.06221,-0.85925 3.26517,-0.6874 3.26517,1.20296 0,1.89037 0.68741,2.92148 2.23407,0.68741 1.54666,-2.23407 0.3437,-3.09333 4.63999,-5.32739 4.29629,-2.23407 7.73332,-3.26518 9.27998,-4.9837 1.54666,-1.71851 2.74962,-2.92147 3.09332,-3.60888 0.34371,-0.6874 3.78074,-6.0148 2.23407,-10.48293 -1.54666,-4.46814 -2.74962,-7.04591 -2.57777,-8.07702 0.17185,-1.03111 0.68741,1.54666 -0.3437,-1.03111 -1.03111,-2.57777 -5.3274,-6.70221 -1.03111,-5.3274 4.29629,1.37482 4.29629,2.06222 5.84295,2.74963 1.54666,0.6874 1.03111,-2.92148 4.29628,-3.78073 3.26518,-0.85926 3.78074,0.3437 6.53036,-0.85926 2.74962,-1.20296 2.40592,3.09332 4.98369,-2.74962 2.57777,-5.84295 5.15554,-6.01481 8.76442,-7.90517 3.60889,-1.89037 2.74963,-3.78073 6.53036,-1.20296 3.78073,2.57777 1.89037,4.81184 6.87406,2.23407 4.98369,-2.57777 3.60888,-5.6711 4.98369,-3.09333 1.37481,2.57777 1.89036,3.95258 5.49925,7.73332 3.60888,3.78073 0.51555,4.63999 5.49924,6.0148 4.98369,1.37481 4.63999,1.71851 8.93628,3.95258 4.29628,2.23407 6.7022,2.23407 7.90516,3.26518 1.20296,1.03111 2.40592,1.37481 2.92148,-1.03111 0.51555,-2.40592 2.23407,-2.23407 4.46813,-2.06222 2.23407,0.17185 3.60888,3.09333 5.15555,-0.51555 1.54666,-3.60888 2.06222,-10.31109 4.46814,-7.04591 2.40592,3.26518 0.85925,4.81184 3.78073,5.6711 2.92147,0.85925 3.60888,-3.26518 4.12443,0.6874 0.51556,3.95258 0.3437,4.29629 -1.03111,4.46814 -1.37481,0.17185 -3.09332,1.54666 -0.3437,2.23407 2.74962,0.6874 3.60888,0.85926 3.60888,2.57777 0,1.71851 -2.40592,1.89037 -0.17185,3.60888 2.23407,1.71851 3.60888,0.85926 4.12443,2.23407 0.51556,1.37481 -0.51555,4.63999 -0.17185,5.49924 0.34371,0.85926 0,4.81185 3.26518,0.17186 3.26518,-4.63999 5.15554,-4.29629 5.6711,-5.3274 0.51555,-1.03111 -3.60888,-2.23407 1.37481,-2.74962 4.98369,-0.51556 4.98369,-0.85926 6.3585,-1.89037 1.37481,-1.03111 3.60888,-4.81184 2.74963,-0.17185 -0.85926,4.63999 -0.51556,6.18665 -2.06222,7.56146 -1.54667,1.37482 -1.20296,2.40592 -1.89037,5.3274 -0.6874,2.92147 -2.57777,5.15554 0.51556,5.49925 3.09332,0.3437 4.98369,-0.51556 7.56146,-1.54667 2.57777,-1.03111 6.53035,0 6.53035,0 0,0 4.12444,1.54667 6.0148,6.35851 1.89037,4.81184 0.85926,6.18665 3.60889,7.73331 2.74962,1.54666 5.49924,3.09333 8.07701,2.40592 2.57777,-0.68741 5.15555,-2.57777 5.3274,-4.63999 0.17185,-2.06222 2.92147,-3.43703 5.15554,-4.63999 2.23407,-1.20296 1.20296,-5.15554 5.15554,-4.81184 3.95259,0.34371 4.63999,1.54667 5.6711,1.54667 1.03111,0 5.6711,-3.26518 7.38961,-6.70221 1.71852,-3.43703 2.06222,-6.53036 1.03111,-8.24887 -1.03111,-1.71851 -7.56146,-11.17034 -8.24887,-12.54516 -0.6874,-1.37481 -5.32739,-4.63998 -3.26517,-6.18665 2.06221,-1.54666 5.84294,-6.7022 4.63998,-9.27997 -1.20296,-2.57778 -1.71851,-3.78074 -5.49924,-4.29629 -3.78073,-0.51556 -8.42072,-1.71852 -10.48294,-1.71852 -2.06222,0 -4.63999,0.17186 -6.3585,-0.6874 -1.71852,-0.85926 -2.92148,-2.57777 -3.26518,-5.15554 -0.3437,-2.57778 -1.89037,-6.18666 -0.51555,-8.07702 1.37481,-1.89037 1.71851,-4.46814 3.60888,-6.35851 1.89036,-1.89036 5.32739,-1.37481 3.95258,-4.81184 -1.37481,-3.43702 -1.71852,-3.78073 -2.40592,-6.0148 -0.68741,-2.23407 -1.20296,-2.74962 -3.09333,-2.40592 -1.89036,0.34371 -2.06221,-4.12443 -1.89036,-4.81184 0.17185,-0.6874 -2.40592,-3.26517 0.3437,-4.46813 2.74962,-1.20296 10.31109,1.54666 11.51405,1.71851 1.20296,0.17185 8.42072,3.60888 10.31108,3.26518 1.89037,-0.34371 3.26518,-2.40592 3.95259,-4.29629 0.6874,-1.89036 -0.51556,-3.09332 2.92147,-4.63999 3.43703,-1.54666 2.23407,-7.04591 3.43703,-10.13923 1.20296,-3.09333 2.23407,-7.21776 2.57777,-7.90517 0.3437,-0.6874 6.18665,0.68741 8.42072,-1.54666 2.23407,-2.23407 2.92148,-3.26518 2.57777,-5.84295 -0.3437,-2.57777 -2.92147,-3.78073 0,-4.29629 2.92148,-0.51555 6.70221,1.03111 9.27998,-0.51555 2.57777,-1.54666 3.95258,-2.74962 4.29629,-5.6711 0.3437,-2.92147 -0.34371,-2.40592 0.51555,-7.21776 0.85926,-4.81184 2.06222,-6.0148 2.40592,-8.42072 0.3437,-2.40592 1.54666,-5.84295 3.60888,-10.13924 2.06222,-4.29628 5.3274,-6.87405 4.98369,-9.62368 -0.3437,-2.74962 0.68741,-8.59257 -1.20296,-10.65479 -1.89036,-2.06221 -13.06071,-11.34219 -15.63848,-13.23256 -2.57777,-1.89036 -3.95258,-3.60888 -8.07702,-3.60888 -4.12443,0 -5.67109,0.85926 -7.73331,-1.54666 -2.06222,-2.40592 -1.89037,-3.60888 -4.12443,-3.60888 -2.23407,0 -4.81185,1.20296 -6.01481,-2.40592 -1.20296,-3.60888 0.17186,-6.3585 -2.74962,-5.15554 -2.92147,1.20296 -5.15554,4.81184 -6.7022,4.81184 -1.54667,0 -6.18666,2.06221 -7.73332,3.09332 -1.54666,1.03111 -2.74962,5.6711 -5.49925,3.09333 -2.74962,-2.57777 -4.98369,-5.15554 -8.24886,-4.46814 -3.26518,0.68741 -5.6711,3.95258 -5.6711,3.95258 0,0 -4.29629,1.03111 -10.13924,2.06222 -5.84295,1.03111 -6.53035,1.54667 -9.62368,3.26518 -3.09332,1.71851 -1.71851,3.78073 -6.18665,6.3585 -4.46814,2.57777 -7.56146,4.81184 -9.45183,4.81184 -1.89037,0 -6.18665,-0.6874 -6.87406,1.20296 -0.6874,1.89037 -0.85925,2.92148 -3.60888,1.71852 -2.74962,-1.20296 -2.92147,-1.03111 -4.46813,0.17185 -1.54667,1.20296 -6.35851,3.43703 -8.42073,2.23407 -2.06221,-1.20296 -0.17185,-2.06222 -1.54666,-5.84295 -1.37481,-3.78073 -6.87406,-11.6859 -8.59257,-12.3733 -1.71851,-0.68741 -3.95258,-2.40593 -10.48294,-1.20297 -6.53035,1.20297 -7.73331,3.26518 -9.79553,1.71852 -2.06222,-1.54666 -6.53036,-6.87406 -7.38961,-11.3422 -0.85926,-4.46813 0.51555,-9.27997 -1.89037,-11.17034 -2.40592,-1.89037 -4.81184,-1.03111 -6.87406,-2.40592 -2.06221,-1.37481 -7.38961,-12.20145 -12.88885,-11.51405 -5.49925,0.68741 -3.60888,0.68741 -8.24887,-2.062214 -4.63999,-2.749623 -4.46814,0 -6.35851,-3.093326 -1.89036,-3.093325 -1.03111,-1.374811 -3.78073,-5.671097 -2.74962,-4.296286 -4.12443,-3.437029 -7.73331,-6.874058 -3.60888,-3.437029 -2.23407,-2.921474 -4.9837,-6.530355 -2.74962,-3.60888 -1.37481,-4.296286 -4.63998,-6.874057 -3.26518,-2.577772 -6.70221,-3.952583 -6.18666,-6.014801 0.51556,-2.062217 1.20296,-5.671097 -1.54666,-5.671097 -2.74962,0 -2.57777,-2.577772 -5.32739,0 -2.74963,2.577771 -0.85926,4.639989 -4.63999,3.437029 -3.78073,-1.202961 -0.51556,-4.296286 -5.3274,-1.546663 -4.81184,2.749623 -2.92147,6.874057 -6.3585,4.124434 -3.43703,-2.749623 -5.15554,-5.327394 -7.38961,-7.045909 -2.23407,-1.718514 -4.46814,-3.265177 -6.70221,-0.171851 -2.23407,3.093326 3.09333,9.62368 -3.43703,6.0148 -6.53035,-3.60888 -3.43703,-7.045909 -7.04591,-4.468137 -3.60888,2.577771 -3.09332,3.437028 -4.81184,4.81184 -1.71851,1.374812 -8.59257,-0.343703 -10.65479,2.749623 -2.06221,3.093326 0,7.733315 -2.92147,4.639989 -2.92148,-3.093326 -1.71852,-3.265177 -4.29629,-4.296286 -2.57777,-1.031109 -6.53035,-6.014801 -8.59257,-2.749623 -2.06222,3.265177 -4.12443,4.468137 -2.57777,6.186652 1.54666,1.718514 5.6711,3.60888 6.18665,4.983692 0.51556,1.374811 3.60888,4.983691 -1.37481,4.81184 -4.98369,-0.171851 -8.59257,-5.327395 -12.54516,-5.327395 -3.95258,0 -7.73331,0.343703 -9.79553,1.20296 -2.06222,0.859258 -3.95258,-0.687405 -7.90516,0.687406 -3.95259,1.374812 -6.35851,2.40592 -7.73332,5.842949 -1.37481,3.437029 -3.43703,4.811841 -5.15554,5.327395 -1.71852,0.515554 -5.49925,-3.093326 -4.98369,2.40592 0.51555,5.499246 0.51555,7.217761 -1.54667,8.077018 -2.06221,0.859257 -2.57777,-1.374812 -5.84295,2.234072 -3.26517,3.60888 -2.06221,1.89036 -6.7022,5.49924 -4.63999,3.60888 -6.18665,5.6711 -3.43703,10.82664 2.74962,5.15555 3.26518,5.15555 3.26518,7.04591 0,1.89037 -3.60888,7.73332 1.37481,9.10813 4.98369,1.37481 8.76442,0.3437 12.88886,0.3437 4.12443,0 4.81184,-4.98369 10.31108,1.20296 5.49925,6.18665 10.13924,9.45183 11.51405,11.51405 1.37481,2.06222 3.95258,5.32739 4.98369,6.0148 1.03111,0.6874 2.23407,2.92147 3.95258,1.37481 1.71852,-1.54666 4.29629,-2.92147 4.29629,-2.92147 0,0 2.74962,-1.03111 2.74962,1.0311 0,2.06222 -1.71851,5.6711 -0.85925,7.21777 0.85925,1.54666 4.12443,8.76442 7.90516,10.65478 3.78073,1.89037 7.38961,3.26518 10.48294,4.46814 3.09333,1.20296 4.98369,0.68741 3.09333,3.95259 -1.89037,3.26517 -6.18666,12.3733 -10.31109,13.0607 -4.12443,0.68741 -5.6711,-1.71851 -8.93628,0.68741 -3.26517,2.40592 -4.81184,4.63999 -6.0148,6.87406 -1.20296,2.23407 -8.07701,4.98369 -9.62368,5.49924 -1.54666,0.51556 -2.23407,3.26518 -0.51555,5.6711 1.71851,2.40592 2.92147,3.60888 1.89037,5.49925 -1.03111,1.89036 -2.40593,0.85926 -2.23407,2.40592 0.17185,1.54666 3.09332,6.18665 3.43703,8.42072 0.3437,2.23407 -0.51556,4.98369 -1.20296,7.38961 -0.68741,2.40592 -1.71852,7.38961 0,9.27998 1.71851,1.89036 2.92147,3.60888 3.09332,6.0148 0.17185,2.40592 -1.20296,2.40592 0.3437,6.53035 1.54667,4.12444 2.57778,8.59258 0.51556,10.82664 -2.06222,2.23407 -2.74962,2.06222 -2.40592,4.46814 0.3437,2.40592 0.51555,6.18665 0.51555,9.10813 0,2.92147 -2.74962,7.21776 -1.54666,10.13923 1.20296,2.92148 8.24887,9.79554 10.82664,10.31109 2.57777,0.51555 7.21776,3.26518 11.17034,3.26518 3.95259,0 4.9837,1.03111 8.76443,3.60888 3.78073,2.57777 2.92147,5.49924 7.90516,7.21776 4.9837,1.71851 7.90517,2.74962 10.31109,2.74962 2.40592,0 4.63999,-0.85926 4.63999,1.20296 0,2.06222 -2.06222,6.35851 0.17185,8.93628 2.23407,2.57777 3.78073,4.12443 7.21776,5.32739 3.43703,1.20296 6.0148,1.89037 7.90517,1.89037 1.89036,0 1.37481,-2.06222 4.29628,0 2.92148,2.06221 2.92148,2.57777 4.29629,2.92147 1.37481,0.3437 3.95258,0.51556 3.95258,0.51556 z"
      id="path3778"
      style="fill:#c1e0b2;fill-opacity:1;stroke:#000000;stroke-width:1px;stroke-linecap:butt;stroke-linejoin:miter;stroke-opacity:1"></path>
  </g>
</svg>