<svg aria-label="Kerala" preserveAspectRatio="xMidYMid meet" style="width: 100%; height: 100%;"
  viewBox="200 1300 519 573" xmlns="http://www.w3.org/2000/svg">
  <g id="kerala">
    <path
      d="m 360.07989,1441.0651 -5.10128,3.1663 c 0,0 4.4856,7.564 4.74946,7.9158 0.26386,0.3518 8.53145,22.8678 9.67484,24.363 1.14339,1.4952 8.09168,9.9387 9.9387,10.9062 1.84701,0.9675 4.92537,2.4627 7.3001,5.7169 2.37474,3.2543 8.88327,9.8508 9.32303,10.2905 0.43977,0.4398 1.23134,3.2543 2.28678,5.9808 1.05544,2.7266 2.46269,8.6194 2.46269,8.6194 0,0 6.24466,8.9713 7.21215,11.6978 0.96748,2.7265 3.07836,6.4206 3.95789,8.0037 0.87953,1.5832 2.63859,5.2772 2.19882,7.8278 -0.43976,2.5507 -0.61567,4.7495 0.35182,6.0688 0.96748,1.3193 0.52771,4.5736 1.75906,7.6519 1.23134,3.0784 3.07836,9.0592 4.22175,10.8183 1.14339,1.759 5.18923,8.9712 5.8049,10.3784 0.61567,1.4073 2.28678,1.2314 3.78198,1.5832 1.4952,0.3518 3.86994,3.8699 3.86994,4.9253 0,1.0555 -0.52772,3.87 -2.28678,3.2543 -1.75907,-0.6157 -2.6386,-1.0554 -3.16632,-0.6157 -0.52771,0.4398 0.52772,8.0917 2.72655,12.6653 2.19883,4.5735 4.22175,10.7303 4.3097,10.9941 0.0879,0.2639 0.79158,11.7857 1.67111,14.6882 0.87953,2.9024 1.23134,7.6519 2.90245,9.4989 1.67111,1.847 2.72655,3.4302 2.28678,5.3652 -0.43976,1.9349 -1.40725,5.1892 1.14339,8.1796 2.55064,2.9904 5.27719,6.5965 6.06876,8.1796 0.79158,1.5832 -0.088,5.3652 2.72655,8.0917 2.8145,2.7265 9.32302,7.7399 9.67484,7.8278 0.35181,0.088 9.14712,8.7953 12.22547,9.3231 3.07836,0.5277 4.04584,0.5277 4.66152,2.1108 0.61567,1.5832 -0.87953,3.782 0.61567,5.2772 1.4952,1.4952 7.65192,8.0917 9.67484,8.6194 2.02292,0.5277 4.83742,-0.5277 4.83742,-0.5277 0,0 4.83741,-2.5506 5.9808,-4.9254 1.14339,-2.3747 1.75907,-29.992 1.40725,-31.2233 -0.35181,-1.2314 2.02292,-8.1797 4.04584,-10.7303 2.02293,-2.5506 7.03625,-16.3593 7.30011,-17.5027 0.26386,-1.1433 -2.19883,-19.2617 -2.19883,-19.2617 l -2.90245,-40.1945 -26.21001,-48.0224 c 0,0 -28.93657,-18.1183 -28.93657,-18.822 0,-0.7036 -6.94829,-19.0858 -6.94829,-19.0858 0,0 -28.40884,-10.0266 -28.93656,-10.3784 -0.52772,-0.3519 -16.00746,-22.1642 -16.88699,-22.516 -0.87953,-0.3518 -28.53891,-17.0629 -28.53891,-17.0629 z"
      id="path3880"
      style="fill:#c1e0b2;fill-opacity:1;stroke:#000000;stroke-width:1px;stroke-linecap:butt;stroke-linejoin:miter;stroke-opacity:1"></path>
  </g>
</svg>