<svg aria-label="MadhyaPradesh" preserveAspectRatio="xMidYMid meet"
  style="width: 100%; height: 100%;" viewBox="300 500 519 873" xmlns="http://www.w3.org/2000/svg">
  <g id="mp">
    <path
      d="m 808.1431,812.6946 -3.50604,9.46632 -1.40242,2.45423 -8.41451,0.70121 -1.75302,0 c 0,0 4.55786,4.20725 7.01209,5.60967 2.45423,1.40241 2.80483,4.20725 2.80483,4.20725 l -1.05181,1.75302 -3.85665,4.55786 c 0,0 -2.80483,-1.05181 -4.55785,-2.45423 -1.75303,-1.40242 -4.90847,-2.10363 -4.90847,-1.05182 0,1.05182 -1.40241,2.45424 -3.15544,2.45424 -1.75302,0 -4.55785,2.80483 -4.55785,2.80483 0,0 -2.45423,-0.70121 -5.60967,-2.10363 -3.15544,-1.40241 -4.55786,-2.10362 -5.96028,-2.10362 -1.40241,0 -3.85665,-1.40242 -5.25906,-3.15544 -1.40242,-1.75302 -3.50605,-2.10363 -3.50605,0 0,2.10362 -0.70121,5.96027 -4.20725,5.25906 -3.50604,-0.7012 -3.15544,2.45423 -4.90846,-1.05181 -1.75302,-3.50604 -4.20725,-5.60967 -4.20725,-5.60967 l 0.3506,3.85665 c 0,0 2.80484,2.80483 3.15544,4.55786 0.35061,1.75302 1.40242,3.15544 0,5.25906 -1.40242,2.10363 -5.25906,3.50605 -5.60967,5.25907 -0.3506,1.75302 2.80484,3.85665 5.25907,1.75302 2.45423,-2.10363 6.31088,-4.20725 8.0639,-2.45423 1.75302,1.75302 4.90846,1.40242 6.31088,5.60967 1.40241,4.20725 0,5.96027 3.85664,5.25906 3.85665,-0.7012 7.01209,-4.20725 8.41451,-2.10362 1.40242,2.10362 0,2.80483 2.45423,5.25906 2.45423,2.45423 2.45423,2.10363 0,4.55786 -2.45423,2.45423 -2.80483,3.50604 -3.15544,6.31088 -0.3506,2.80483 -1.05181,4.20725 -4.20725,3.50604 -3.15544,-0.70121 -5.25907,-1.05181 -7.36269,0 -2.10363,1.05182 -4.20726,-0.70121 -4.20726,1.05182 0,1.75302 2.45423,1.75302 0,3.85664 -2.45423,2.10363 -8.76511,0.35061 -6.66148,4.20726 2.10363,3.85665 6.66148,5.60967 7.01209,7.01208 0.3506,1.40242 -3.85665,3.15544 -7.36269,2.80484 -3.50605,-0.3506 -4.55786,5.96027 -3.85665,6.31088 0.70121,0.3506 -1.05182,0.3506 -3.15544,1.40242 -2.10363,1.05181 -1.75302,3.15544 -3.85665,3.15544 -2.10363,0 -1.05181,-2.10363 -4.55786,-1.05182 -3.50604,1.05182 -1.75302,0.70121 -2.45423,2.80484 -0.70121,2.10362 -1.05181,3.50604 -5.25906,2.10362 -4.20726,-1.40241 -1.05182,-2.80483 -4.55786,-2.80483 -3.50604,0 -5.25907,-1.05181 -4.20725,1.75302 1.05181,2.80484 2.80483,4.55786 2.10362,6.31088 -0.70121,1.75302 -4.20725,1.40242 -4.20725,1.40242 l -2.45423,4.20725 -2.45423,0 c 0,0 -1.40242,-1.05181 -1.05181,2.10363 0.3506,3.15544 -2.10363,5.25906 -3.85665,4.55785 -1.75302,-0.70121 -4.20725,-1.05181 -4.90846,1.75303 -0.70121,2.80483 0,6.31087 -2.10363,7.01208 -2.10363,0.70121 -3.15544,2.45423 -1.40242,3.85665 1.75302,1.40242 4.90846,-0.3506 3.15544,1.75302 -1.75302,2.10363 -2.10362,2.10363 -4.55785,3.85665 -2.45424,1.75302 2.80483,4.55786 0,9.81692 -2.80484,5.25907 -2.80484,2.80484 -2.80484,7.3627 0,4.55785 1.05181,4.55785 -1.40242,7.71329 -2.45423,3.15544 -3.85665,3.85665 -3.85665,3.85665 0,0 -0.7012,-3.85665 -0.7012,-5.60967 0,-1.75302 1.05181,-4.90846 -3.85665,-4.55786 -4.90846,0.35061 -7.7133,4.20726 -8.0639,0.35061 -0.35061,-3.85665 3.15544,-6.31088 0,-9.11572 -3.15544,-2.80483 -1.75302,-6.66148 -7.01209,-6.31088 -5.25907,0.35061 -13.67357,2.10363 -16.47841,3.85665 -2.80483,1.75302 -4.90846,1.75302 -9.11571,1.05182 -4.20725,-0.70121 -3.85665,-4.55786 -9.46632,-1.75303 -5.60967,2.80484 -4.90846,1.75303 -7.36269,-0.3506 -2.45423,-2.10363 -5.25907,-1.75302 -8.41451,-3.50604 -3.15544,-1.75303 -6.66148,-4.55786 -8.0639,-3.50605 -1.40241,1.05182 2.10363,4.90846 -3.50604,4.90846 -5.60967,0 -9.81692,-2.45423 -11.92055,1.75303 -2.10363,4.20725 -0.70121,7.36269 -2.45423,7.71329 -1.75302,0.35061 -7.7133,2.80484 -12.97236,0.70121 -5.25907,-2.10363 -2.45423,-3.50604 -9.46632,-5.96027 -7.01209,-2.45423 -10.16753,-2.45423 -13.32297,1.75302 -3.15544,4.20725 -4.20725,3.85665 -8.76511,5.60967 -4.55785,1.75302 -3.85664,2.45423 -9.46631,2.10362 -5.60968,-0.3506 -9.11572,-2.45423 -11.92055,0 -2.80484,2.45424 -5.96028,1.40242 -7.7133,-1.40241 -1.75302,-2.80484 -4.55786,-3.85665 -2.45423,-5.25907 2.10363,-1.40242 4.90846,-0.3506 5.96027,-1.75302 1.05182,-1.40242 3.50605,0 1.40242,-4.90846 -2.10363,-4.90846 0.70121,-7.01209 -2.45423,-8.41451 -3.15544,-1.40241 -10.51813,-5.25906 -13.32297,-2.10362 -2.80483,3.15544 2.10363,5.96027 -5.25906,5.25906 -7.36269,-0.70121 -14.37478,-4.20725 -17.17962,0 -2.80483,4.20725 -3.50604,4.20725 -5.60967,7.36269 -2.10362,3.15544 -3.15544,2.10363 -3.15544,4.20726 0,2.10362 1.05182,2.45423 -2.10362,4.90846 -3.15544,2.45423 -3.85665,-0.70121 -4.20725,5.25906 -0.35061,5.96028 5.25906,7.3627 -2.10363,8.41451 -7.36269,1.05181 -6.66148,0.3506 -8.0639,3.50604 -1.40242,3.15544 0.70121,4.90846 -2.45423,3.50605 -3.15544,-1.40242 -5.25907,-3.15544 -9.11572,-1.75303 -3.85664,1.40242 -2.45423,2.80484 -2.45423,-5.25906 0,-8.0639 -2.80483,-13.32297 -11.21934,-12.62176 -8.4145,0.70121 -7.71329,2.10363 -11.21934,0.35061 -3.50604,-1.75303 -4.90846,-2.80484 -7.36269,-0.70121 -2.45423,2.10362 -6.31088,1.05181 -13.32297,0 -7.01208,-1.05182 -4.20725,2.10362 -7.71329,2.45423 -3.50605,0.3506 -2.45423,-0.70121 -3.50605,-4.55786 -1.05181,-3.85665 0.70121,-2.80483 -2.80483,-6.31088 -3.50605,-3.50604 -2.80484,-3.85665 -6.66148,-4.90846 -3.85665,-1.05181 -6.31088,1.40242 -8.76511,1.40242 -2.45423,0 -1.75303,0.3506 -4.20726,-3.15544 -2.45423,-3.50605 -5.96027,-1.75302 -7.71329,-5.25907 -1.75303,-3.50604 3.15544,-8.4145 0,-11.56994 -3.15544,-3.15544 -4.20726,0.70121 -4.55786,-3.15544 -0.3506,-3.85665 0.3506,-8.76511 -2.80484,-6.66148 -3.15543,2.10362 -3.15543,9.11571 -8.4145,8.0639 -5.25907,-1.05182 -3.85665,6.31088 -11.92055,0.3506 -8.0639,-5.96027 -11.21934,-55.7461 -7.36269,-62.05697 3.85665,-6.31088 26.64593,-36.46286 28.74956,-40.67011 2.10362,-4.20726 0.70121,-29.10017 0.70121,-29.10017 0,0 -0.70121,-71.17269 4.90846,-72.5751 5.60967,-1.40242 56.4473,7.71329 61.35576,8.4145 4.90847,0.70121 37.51467,-63.45939 45.22797,-66.61483 7.7133,-3.15544 53.64247,-21.03626 53.64247,-21.03626 0,0 90.10533,-34.35923 96.0656,-18.58204 5.96028,15.7772 -8.4145,68.36786 -2.45423,76.43176 5.96027,8.0639 37.51467,9.81692 53.29187,13.67357 15.77719,3.85665 31.55439,14.72538 42.42313,18.93264 10.86873,4.20725 24.1917,-3.50605 31.20379,0.70121 7.01208,4.20725 59.60274,-2.80484 61.00516,9.81692 1.40242,12.62176 4.55786,28.04835 5.25906,37.51467 0.70121,9.46632 -2.80483,24.1917 -2.80483,24.1917 z"
      id="path3805"
      style="fill:#c1e0b2;fill-opacity:1;stroke:#000000;stroke-width:1px;stroke-linecap:butt;stroke-linejoin:miter;stroke-opacity:1"></path>
  </g>
</svg>