<svg aria-label="Maharashtra" preserveAspectRatio="xMidYMid meet" style="width: 100%; height: 100%;"
  viewBox="200 800 519 773" xmlns="http://www.w3.org/2000/svg">
  <g id="maharashtra">
    <path
      d="m 289.13826,1032.1568 -0.78535,5.8901 c 0,0 -2.22515,2.0943 -2.74871,1.8325 -0.52356,-0.2618 -4.58119,-2.2251 -5.62831,-2.6178 -1.04713,-0.3927 -4.71208,-1.9634 -5.75921,-1.7016 -1.04713,0.2618 -1.17802,0.2618 -3.79584,-0.5236 -2.61782,-0.7853 -8.11524,-0.9162 -8.7697,-0.9162 -0.65445,0 -6.67544,-3.0105 -6.67544,-3.0105 0,0 -1.57069,7.199 -1.57069,7.8535 0,0.6544 -1.96337,7.0681 -2.8796,8.9006 -0.91624,1.8324 -3.53406,7.4608 -3.53406,7.4608 0,0 2.22515,8.9005 2.35604,9.4241 0.13089,0.5236 3.53406,3.7958 3.53406,4.3194 0,0.5236 -0.26179,2.8796 -0.65446,3.7958 -0.39267,0.9163 -1.04713,4.4503 -0.65445,4.9739 0.39267,0.5236 4.71207,3.0105 4.71207,3.0105 l -2.74871,4.5812 c 0,0 -0.26178,7.9843 -0.26178,9.1624 0,1.178 0.26178,12.0419 1.30891,11.2566 1.04713,-0.7854 4.58118,-7.3299 5.23564,-7.9844 0.65445,-0.6544 6.15188,-1.3089 6.15188,-1.3089 0,0 2.48693,2.6178 0.65445,3.7959 -1.83247,1.178 -5.23564,1.3089 -5.7592,1.7015 -0.52357,0.3927 -0.39268,4.5812 0.13089,5.3666 0.52356,0.7853 2.22515,2.4869 1.04713,2.7487 -1.17802,0.2618 -6.93723,0.9162 -7.46079,2.6178 -0.52356,1.7016 1.30891,8.1153 2.09426,9.8168 0.78534,1.7016 2.61782,4.7121 1.96336,4.9739 -0.65445,0.2618 -3.40317,2.2251 -3.40317,2.2251 0,0 -1.83247,1.8325 2.61782,6.6755 4.4503,4.8429 4.58119,7.4608 4.31941,9.8168 -0.26178,2.356 0.13089,5.4974 1.83247,8.1153 1.70159,2.6178 2.74871,5.7592 5.23564,11.3875 2.48693,5.6283 1.5707,9.9477 1.83248,13.3509 0.26178,3.4031 -1.96337,6.4136 -0.91624,8.2461 1.04713,1.8325 4.71208,2.2251 4.84297,3.4032 0.13089,1.178 -3.14139,0.9162 -2.09426,4.8429 1.04713,3.9268 2.8796,5.4974 3.14139,6.9372 0.26178,1.4398 -1.70159,15.0525 0,19.3719 1.70158,4.3194 2.18851,7.9844 1.79584,12.4347 -0.39268,4.4503 3.83247,18.0629 5.53405,20.8116 1.70159,2.7487 2.87961,6.1519 3.0105,8.3771 0.13089,2.2251 0.78534,7.7225 3.01049,9.2932 2.22515,1.5707 4.05762,4.4503 4.05762,5.7592 0,1.3089 3.01049,1.8325 4.84297,1.3089 1.83247,-0.5235 5.36653,-1.178 6.67544,-3.2722 1.30891,-2.0943 2.61782,-2.2252 2.61782,-2.2252 0,0 3.92673,6.021 5.36653,6.9372 1.4398,0.9163 5.23564,3.1414 7.3299,1.7016 2.09426,-1.4398 2.61782,-3.6649 4.3194,-5.6283 1.70159,-1.9634 2.09426,-3.9267 4.31941,-3.0105 2.22514,0.9163 7.32989,-0.1309 8.50791,-1.178 1.17802,-1.0471 3.92673,-3.0105 4.71208,-6.6754 0.78535,-3.665 -0.65446,-5.1048 -0.52356,-6.6755 0.13089,-1.5707 2.61782,-1.178 3.01049,-4.0576 0.39267,-2.8796 0.26178,-6.4137 -2.22515,-7.199 -2.48693,-0.7854 -4.45029,-4.7121 -4.58118,-6.4137 -0.13089,-1.7016 -2.09426,-3.534 -3.53406,-5.7592 -1.4398,-2.2251 -0.26178,-4.5812 2.48693,-4.4503 2.74871,0.1309 6.15188,0.9163 8.11524,-1.0471 1.96337,-1.9634 4.05762,-1.4398 5.75921,-0.6545 1.70158,0.7854 5.23564,1.4398 6.67544,-1.178 1.4398,-2.6178 1.83247,-4.0576 4.97386,-5.1047 3.14138,-1.0472 7.59168,-1.0472 8.6388,-1.3089 1.04713,-0.2618 1.30891,-5.3666 1.96337,-8.3771 0.65445,-3.0105 1.57069,-2.8796 4.84297,-0.9162 3.27227,1.9634 4.18851,5.3665 9.16237,3.9267 4.97386,-1.4398 5.49742,-3.2722 7.72257,-4.712 2.22515,-1.4398 15.31425,-0.7854 16.62316,-1.309 1.30891,-0.5235 4.71207,0 4.05762,-3.6649 -0.65446,-3.665 -2.74871,-5.1048 -2.74871,-7.3299 0,-2.2251 1.04713,-0.3927 1.04713,-4.1885 0,-3.7959 -1.5707,-2.2252 -1.96337,-5.8901 -0.39267,-3.665 -0.78535,-5.4974 2.09426,-4.3194 2.8796,1.178 4.58118,4.0576 8.24613,4.9738 3.66495,0.9163 5.49742,1.4398 9.42415,0.6545 3.92673,-0.7853 4.84297,-0.1309 6.28277,0.7853 1.4398,0.9163 3.27228,2.3561 6.15188,1.0472 2.8796,-1.3089 4.71208,-1.3089 6.67544,-0.5236 1.96337,0.7854 5.75921,2.356 6.54455,0.2618 0.78535,-2.0943 4.58119,-3.5341 0.52357,-4.3194 -4.05762,-0.7854 -5.62832,-4.9739 -4.84297,-7.199 0.78535,-2.2252 3.14138,-3.5341 3.92673,-4.4503 0.78535,-0.9162 5.23564,-4.843 5.7592,-7.0681 0.52357,-2.2252 1.70159,-0.7854 1.70159,-0.7854 0,0 0,1.4398 0.26178,2.7487 0.26178,1.3089 3.27228,0.3927 4.05762,-0.9162 0.78535,-1.3089 1.70158,-0.5236 1.83248,1.4398 0.13089,1.9634 -0.26179,4.843 1.83247,2.8796 2.09426,-1.9634 2.8796,-3.7958 3.53406,-7.0681 0.65445,-3.2723 -1.83248,-3.665 1.30891,-3.7958 3.14138,-0.1309 5.89009,1.5706 6.28277,-0.3927 0.39267,-1.9634 0.13089,-4.3194 -0.26179,-5.7592 -0.39267,-1.4398 1.04713,-3.5341 1.70159,-4.843 0.65445,-1.3089 -0.13089,-3.5341 5.23564,-4.843 5.36653,-1.3089 6.02099,-0.3926 7.98435,-4.0576 1.96337,-3.6649 6.28277,-10.733 7.72257,-11.1257 1.4398,-0.3927 2.35604,-2.4869 3.40317,1.8325 1.04713,4.3194 2.09425,8.9005 4.3194,8.9005 2.22515,0 2.22515,1.309 4.3194,-2.0942 2.09426,-3.4032 3.66495,-8.1153 4.71208,-9.9477 1.04713,-1.8325 3.92673,-0.6545 5.23564,-3.665 1.30891,-3.0105 -0.39267,-2.2251 1.83248,-5.4974 2.22514,-3.2723 3.53405,-1.3089 5.23564,-3.665 1.70158,-2.356 -1.30891,-3.4031 2.09425,-4.1885 3.40317,-0.7853 3.40317,1.0472 3.53406,-0.9162 0.13089,-1.9634 1.17802,-3.2723 -0.13089,-4.843 -1.30891,-1.5707 -7.19901,-6.2827 -6.41366,-9.2932 0.78535,-3.0105 1.96336,-3.0105 2.48693,-3.665 0.52356,-0.6544 1.83247,-3.2723 2.74871,-5.6283 0.91624,-2.356 2.74871,-3.7958 3.14138,-4.4503 0.39268,-0.6544 -0.13089,0.6545 3.14139,2.7487 3.27227,2.0943 5.49742,3.4032 7.46079,3.1414 1.96336,-0.2618 3.79584,-1.3089 4.3194,-3.534 0.52356,-2.2252 -0.52356,-3.665 0.65446,-5.2357 1.17801,-1.5707 3.14138,-0.5236 4.71207,-3.0105 1.57069,-2.4869 1.57069,-3.9267 0.65446,-5.3665 -0.91624,-1.4398 0.78534,-2.2252 1.57069,-3.5341 0.78535,-1.3089 4.18851,-6.8063 2.74871,-8.1152 -1.4398,-1.3089 -2.61782,-3.4032 -1.83247,-4.3194 0.78534,-0.9163 3.53405,0 4.71207,1.3089 1.17802,1.3089 1.96337,2.7487 3.79584,0.1309 1.83248,-2.6178 2.74871,-3.1414 4.84297,-1.8325 2.09426,1.3089 4.3194,0.9162 6.80633,1.4398 2.48693,0.5236 3.40317,-0.3927 4.84297,3.4032 1.4398,3.7958 -0.65445,6.021 4.71208,7.0681 5.36653,1.0471 6.15188,1.3089 7.85346,2.4869 1.70158,1.178 2.74871,2.0943 5.10475,3.0105 2.35604,0.9163 4.18851,2.6178 4.97386,1.3089 0.78534,-1.3089 0.91623,-3.0105 0.91623,-4.8429 0,-1.8325 3.66495,-1.1781 5.62832,0 1.96336,1.178 4.97386,3.1413 9.03148,2.356 4.05762,-0.7854 4.84297,-2.2252 8.37702,-2.7487 3.53406,-0.5236 5.49743,-1.4398 7.85346,1.178 2.35604,2.6178 6.15188,5.2356 6.15188,6.9372 0,1.7016 -0.39267,6.6755 -1.04713,10.4713 -0.65445,3.7958 -2.09425,3.2723 -2.22514,6.1519 -0.13089,2.8796 0.91623,1.8325 2.09425,4.7121 1.17802,2.8796 0.13089,5.1047 1.17802,7.7225 1.04713,2.6179 0.78535,4.3194 1.4398,6.6755 0.65446,2.356 -0.13089,3.9267 4.97386,4.3194 5.10475,0.3927 8.90059,0.5235 10.47128,-0.9163 1.5707,-1.4398 2.74871,-1.3089 4.4503,-2.7487 1.70158,-1.4398 2.8796,-4.1885 2.09425,-7.3299 -0.78534,-3.1414 -1.83247,-3.0105 -0.52356,-5.3665 1.30891,-2.356 1.83247,-4.843 1.70158,-6.2828 -0.13089,-1.4398 2.35604,-1.0471 3.27228,-1.5707 0.91624,-0.5235 0,-2.4869 1.17802,-4.712 1.17802,-2.2252 3.92673,-3.0105 4.84297,-4.7121 0.91623,-1.7016 4.58118,-0.6545 6.15187,0.5236 1.5707,1.178 3.92673,5.6283 7.06812,3.534 3.14138,-2.0942 4.3194,-3.1414 4.84297,-5.4974 0.52356,-2.3561 0.91623,-5.8901 3.01049,-7.199 2.09426,-1.3089 1.70158,-2.7487 0.26178,-3.9268 -1.4398,-1.178 -3.66495,-2.7487 -5.89009,-2.7487 -2.22515,0 -7.98436,-4.1885 -8.63881,-6.5445 -0.65446,-2.3561 -0.65446,-3.2723 -1.83248,-3.665 -1.17801,-0.3926 -3.40316,-0.2617 -5.23564,0.6545 -1.83247,0.9162 -3.92673,0 -3.53405,-1.3089 0.39267,-1.3089 1.96336,0 3.14138,-1.9634 1.17802,-1.9633 1.70158,-2.356 1.83247,-4.5812 0.1309,-2.2251 1.70159,-3.534 2.87961,-5.3665 1.17802,-1.8325 3.92673,-1.5707 1.57069,-3.4032 -2.35604,-1.8324 -3.14138,-2.4869 -4.3194,-4.5812 -1.17802,-2.0942 -0.52357,-2.0942 -2.61782,-2.2251 -2.09426,-0.1309 -5.23565,0.1309 -3.53406,-1.9634 1.70158,-2.0942 3.40316,-1.8324 5.62831,-3.0105 2.22515,-1.178 4.18851,-0.9162 4.84297,-1.5707 0.65445,-0.6544 1.04713,-3.7958 0.91624,-6.8063 -0.13089,-3.0105 1.96336,-6.4136 0.26178,-7.7226 -1.70158,-1.3089 -5.8901,-1.8324 -6.54455,-2.356 -0.65446,-0.5236 -1.96337,-1.0471 -0.26178,-2.0942 1.70158,-1.0472 3.92673,-1.9634 3.92673,-4.3195 0,-2.356 1.17802,-1.9633 -1.96337,-6.5445 -3.14138,-4.58119 -4.45029,-6.80634 -4.84297,-10.2095 -0.39267,-3.40317 -1.17802,-4.97386 0.39268,-6.67544 1.57069,-1.70159 2.35603,-3.0105 5.10475,-4.4503 2.74871,-1.4398 4.3194,-1.83247 5.10475,-3.53406 0.78534,-1.70158 2.74871,-11.78019 -0.52357,-13.48177 -3.27227,-1.70158 -4.71207,1.57069 -10.2095,-6.02099 -5.49742,-7.59168 -0.91623,-13.48177 -11.51841,-9.94771 -10.60217,3.53405 -16.09959,9.94771 -26.83266,6.02098 -10.73306,-3.92673 -20.02632,-10.60217 -26.30909,-8.11524 -6.28277,2.48693 -10.86395,4.71208 -21.20435,5.36653 -10.34039,0.65446 -48.56056,7.59168 -54.84333,3.27228 -6.28277,-4.31941 -18.9792,-14.52891 -22.77504,-14.52891 -3.79584,0 -26.83266,-1.70158 -31.15206,1.4398 -4.3194,3.14139 -9.03148,8.7697 -11.6493,13.35089 -2.61782,4.58118 -38.61285,16.09959 -57.98472,5.36653 -19.37187,-10.73306 -25.26197,-12.95821 -33.76988,-15.05247 -8.50792,-2.09425 -12.56554,-15.57603 -21.59702,-19.11009 -9.03148,-3.53405 0,-6.67544 -5.36653,-4.05762 -5.36654,2.61782 -16.62316,6.80634 -20.81168,8.37703 -4.18851,1.57069 -15.05246,-1.70159 -14.39801,7.199 0.65446,8.90059 3.66495,22.90593 3.0105,25.26197 -0.65446,2.35604 -9.68594,10.34039 -12.17287,13.35088 -2.48693,3.0105 6.41366,21.46613 4.58119,22.90593 -1.83248,1.43978 -13.48178,-9.29326 -17.80118,-0.52356 -4.31941,8.76974 -6.15188,20.41904 -7.3299,23.42954 -1.17802,3.0104 -3.01049,10.3403 -3.01049,10.3403 z"
      id="path3819"
      style="fill:#fad0cf;fill-opacity:1;stroke:#000000;stroke-width:1px;stroke-linecap:butt;stroke-linejoin:miter;stroke-opacity:1"></path>
  </g>
</svg>