<svg aria-label="Manipur" preserveAspectRatio="xMidYMid meet" style="width: 100%; height: 100%;"
  viewBox="1100 630 519 273" xmlns="http://www.w3.org/2000/svg">
  <g id="manipur">
    <path
      d="m 1313.8691,796.74053 c 5.5586,-2.34045 18.4311,-4.97345 19.8938,-7.89901 1.4628,-2.92556 2.633,-4.09579 4.3884,-2.34045 1.7553,1.75533 3.8032,3.21811 5.266,3.80323 1.4628,0.58511 -0.2926,-2.63301 6.1437,-1.17023 6.4362,1.46278 8.1915,3.21812 8.1915,3.21812 0,0 7.0214,-2.92556 7.3139,-4.6809 0.2926,-1.75533 -0.2925,-2.633 -0.8776,-4.38834 -0.5851,-1.75533 -2.633,-3.80323 -0.2926,-5.55856 2.3405,-1.75534 4.0958,-8.77668 4.6809,-9.94691 0.5851,-1.17022 1.7553,-8.48412 1.7553,-8.48412 0,0 3.8033,-2.04789 4.0958,-4.38834 0.2926,-2.34045 2.3405,-9.94691 2.3405,-9.94691 l 4.6809,-6.43623 3.2181,-9.65435 -1.4628,-9.36179 -2.9256,-4.09579 -2.3404,0 -2.3404,-7.89901 4.6808,-4.6809 1.1703,-2.633 0.2925,-2.04789 -4.6809,-3.21812 c 0,0 -1.1702,-6.14368 0,-7.89901 1.1703,-1.75534 2.633,-3.51067 2.633,-3.51067 l -3.2181,-2.92556 c 0,0 -1.7553,1.46278 -2.9255,3.51067 -1.1703,2.04789 -3.8033,4.38834 -6.1437,7.02134 -2.3405,2.63301 -1.4628,3.80323 -3.8032,4.38834 -2.3405,0.58512 -6.1437,1.17023 -5.8512,-1.17022 0.2926,-2.34045 -1.4627,-2.92556 -1.7553,-1.75534 -0.2926,1.17023 -2.3405,3.21812 -2.633,2.0479 -0.2926,-1.17023 -0.8777,-1.46278 -2.9256,-2.0479 -2.0479,-0.58511 -7.0213,-1.46278 -10.2394,0 -3.2181,1.46278 -4.3884,3.21812 -3.8033,4.6809 0.5852,1.46278 2.633,2.34045 0.8777,4.09578 -1.7553,1.75534 -3.5107,2.0479 -3.8032,4.09579 -0.2926,2.04789 -1.7554,4.68089 -1.7554,6.14367 0,1.46279 2.0479,3.21812 -0.8776,2.34045 -2.9256,-0.87766 -4.0958,-3.21811 -6.7288,-3.21811 -2.633,0 -4.3884,-0.29256 -5.266,0.87766 -0.8777,1.17023 -1.4628,2.63301 -1.4628,3.51068 0,0.87767 -0.8777,4.09578 -0.8777,4.09578 0,0 -1.7553,0.87767 -1.7553,1.75534 0,0.87767 0.5851,1.46278 -1.1702,2.34045 -1.7554,0.87766 -2.633,3.21811 -2.633,4.09578 0,0.87767 0,4.6809 0,7.02135 0,2.34044 -2.0479,4.09578 -3.8033,5.85112 -1.7553,1.75533 -2.633,3.80322 -2.3404,5.85112 0.2925,2.04789 2.9256,3.80322 0.5851,6.72879 -2.3404,2.92556 -3.5107,6.14367 -3.5107,6.14367 0,0 0,3.21812 0,5.26601 0,2.04789 -2.633,6.43623 -2.0479,11.70224 0.5852,5.26601 14.0427,20.77148 14.0427,20.77148 z"
      id="path3895"
      style="fill:#c1e0b2;fill-opacity:1;stroke:#000000;stroke-width:1px;stroke-linecap:butt;stroke-linejoin:miter;stroke-opacity:1"></path>
  </g>
</svg>