<svg aria-label="Meghalaya" preserveAspectRatio="xMidYMid meet" style="width: 100%; height: 100%;"
  viewBox="950 600 519 273" xmlns="http://www.w3.org/2000/svg">
  <g id="meghalaya">
    <path
      d="m 1142.1387,706.04816 c 0,0 2.9256,3.80323 3.8033,2.04789 0.8776,-1.75533 3.2181,-2.92556 2.3404,-5.26601 -0.8777,-2.34044 -2.633,-3.51067 -2.9255,-5.266 -0.2926,-1.75534 -1.4628,-4.38834 -0.2926,-5.55857 1.1702,-1.17022 3.5107,-5.55856 3.5107,-5.55856 0,0 -1.4628,-2.0479 0.5851,-2.0479 2.0479,0 3.2181,0.58512 5.8511,0 2.633,-0.58511 2.3405,-0.58511 3.8032,-2.04789 1.4628,-1.46278 1.7554,-2.633 4.9735,-2.633 3.2181,0 2.3404,0 4.9734,-1.17023 2.633,-1.17022 4.9735,-1.46278 5.266,1.17023 0.2926,2.633 -1.4627,3.21811 0.8777,3.80323 2.3405,0.58511 2.3405,-1.46278 4.3884,-3.51068 2.0478,-2.04789 3.5106,-3.51067 3.8032,-2.34044 0.2925,1.17022 1.1702,6.14367 1.1702,6.14367 0,0 -0.2925,2.34045 2.3405,1.46278 2.633,-0.87767 3.8032,-3.21811 6.4362,-1.75533 2.633,1.46278 5.5586,2.04789 6.7288,1.75533 1.1702,-0.29255 2.9255,-0.29255 2.9255,-1.75533 0,-1.46278 -1.1702,-1.75534 1.7554,-2.34045 2.9255,-0.58511 3.8032,1.17022 3.8032,-0.87767 0,-2.04789 0.8777,-5.85112 0.8777,-5.85112 0,0 4.9734,-0.87767 4.9734,0.58511 0,1.46278 0.5851,2.92556 0.5851,2.92556 0,0 1.7554,2.04789 2.9256,-0.87767 1.1702,-2.92556 0,-3.80322 4.3883,-3.80322 4.3884,0 4.6809,2.04789 6.7288,-1.17023 2.0479,-3.21812 5.266,-8.48412 7.3139,-7.3139 2.0479,1.17022 5.266,4.09578 5.266,5.85112 0,1.75534 -2.0479,2.92556 -0.2925,4.09579 1.7553,1.17022 3.2181,2.34044 1.1702,3.80322 -2.0479,1.46278 -4.3883,0 -2.9256,3.21812 1.4628,3.21812 2.3405,3.21812 2.3405,5.26601 0,2.04789 1.1702,1.75533 3.8032,0.58511 2.633,-1.17022 4.9735,-3.80323 8.7767,-2.04789 3.8032,1.75533 2.3404,2.633 4.9735,3.51067 2.633,0.87767 4.9734,-0.29256 5.5585,2.633 0.5851,2.92557 0.8777,6.14368 -0.8777,8.19157 -1.7553,2.0479 -3.8032,3.51068 0.8777,3.21812 4.6809,-0.29256 4.9735,-3.21812 5.8511,-0.29256 0.8777,2.92556 0.8777,2.92556 1.4628,4.6809 0.5851,1.75534 1.7554,2.34045 1.1702,4.09578 -0.5851,1.75534 -0.8776,4.38835 -3.5106,5.85113 -2.633,1.46278 -2.9256,1.17022 -4.3884,3.51067 -1.4628,2.34045 -1.7553,4.68089 -2.9255,4.68089 -1.1703,0 -0.2926,-2.34044 -3.8033,-1.75533 -3.5106,0.58511 -2.9255,4.09578 -2.0479,5.26601 0.8777,1.17022 0.5852,-2.0479 -6.1436,-0.87767 -6.7288,1.17022 -6.4363,-2.04789 -8.4842,0.87767 -2.0478,2.92556 2.9256,3.21811 -2.3404,4.38834 -5.266,1.17022 -15.798,-0.87767 -18.1385,-0.87767 -2.3404,0 -9.0692,-4.38834 -10.8245,-3.80323 -1.7554,0.58511 -0.5852,3.21812 -5.2661,4.09579 -4.6809,0.87766 -12.2873,0.29255 -13.4575,-0.58512 -1.1703,-0.87767 -3.2182,-6.43623 -5.5586,-2.04789 -2.3404,4.38834 -0.5851,4.38834 -5.266,4.97345 -4.6809,0.58512 -5.5586,0.87767 -9.3618,0.29256 -3.8032,-0.58511 -4.3883,-1.17022 -7.899,-1.75534 -3.5107,-0.58511 -4.0958,0.29256 -5.8511,0.29256 -1.7554,0 -5.8512,-2.92556 -8.4842,-3.51067 -2.633,-0.58512 -5.5585,1.17022 -7.899,-0.29256 -2.3404,-1.46278 -2.633,-3.21812 -3.2181,-6.43623 -0.5851,-3.21812 -3.5107,-4.09579 -0.2925,-7.02135 3.2181,-2.92556 4.9734,-2.92556 4.6809,-5.26601 -0.2926,-2.34044 -0.5852,-5.55856 -0.5852,-5.55856 z"
      id="path3886"
      style="fill:#c1e0b2;fill-opacity:1;stroke:#000000;stroke-width:1px;stroke-linecap:butt;stroke-linejoin:miter;stroke-opacity:1"></path>
  </g>
</svg>