<svg aria-label="Mizoram" preserveAspectRatio="xMidYMid meet" style="width: 100%; height: 100%;"
  viewBox="1050 700 519 373" xmlns="http://www.w3.org/2000/svg">
  <g id="mizoram">
    <path
      d="m 1262.0867,783.28295 c 2.3405,0 7.3139,-0.87767 9.6544,-3.80323 2.3404,-2.92556 0.2925,-5.266 3.8032,-5.55856 3.5107,-0.29256 2.0479,3.21812 4.0958,4.38834 2.0479,1.17022 3.5106,0 5.8511,-2.04789 2.3404,-2.04789 2.633,-1.46278 2.633,-4.6809 0,-3.21812 -2.9256,-4.09578 0,-6.72879 2.9256,-2.633 6.7288,-6.43623 6.7288,-6.43623 0,0 0.8777,2.92556 1.1702,5.55856 0.2926,2.63301 2.9256,3.21812 3.8032,0.87767 0.8777,-2.34045 2.3405,-3.80323 2.3405,-3.80323 0,0 1.7553,1.75534 1.7553,4.97346 0,3.21811 -1.4628,7.3139 -0.8776,11.40968 0.5851,4.09579 2.0478,5.26601 5.266,5.26601 3.2181,0 6.4362,-1.75534 6.4362,-1.75534 0,0 2.0479,0 3.5107,0.87767 1.4627,0.87767 1.4627,-2.04789 4.0958,2.34045 2.633,4.38834 4.0957,1.46278 4.6808,5.55856 0.5852,4.09579 2.6331,11.40969 2.6331,11.40969 0,0 -0.8777,9.36179 -0.8777,11.40969 0,2.04789 0.2925,4.68089 -1.1702,6.43623 -1.4628,1.75533 -3.2182,1.75533 -1.7554,4.68089 1.4628,2.92556 5.8511,1.46278 4.6809,10.53202 -1.1702,9.06924 -1.1702,9.65435 -1.1702,9.65435 0,0 -5.266,3.80323 -9.3618,4.6809 -4.0958,0.87766 -7.3139,1.17022 -6.7288,4.68089 0.5851,3.51068 3.5107,8.19157 3.5107,8.19157 0,0 0.5851,2.04789 0.8777,5.55857 0.2925,3.51067 2.3404,7.3139 2.633,8.19157 0.2925,0.87766 1.1702,4.09578 1.1702,7.02134 0,2.92556 0,7.3139 0,7.3139 0,0 1.4628,9.36179 1.1702,10.82457 -0.2925,1.46278 -2.633,2.63301 -4.0958,5.55857 -1.4628,2.92556 -4.6809,8.48412 -4.6809,9.9469 0,1.46278 -0.8776,6.14368 -4.0958,4.09579 -3.2181,-2.04789 -8.4841,-5.26601 -8.4841,-5.26601 l -2.633,3.80323 c 0,0 -4.0958,2.92556 -5.266,2.04789 -1.1702,-0.87767 -3.8032,-6.72879 -3.8032,-6.72879 l 0.8776,-9.65435 c 0,0 -2.0478,-6.14367 -1.7553,-7.89901 0.2926,-1.75534 -0.8777,-7.89901 -1.1702,-10.23946 -0.2926,-2.34045 -1.1702,-7.89901 -1.1702,-10.53202 0,-2.633 0.2925,-5.55856 -2.3405,-7.89901 -2.633,-2.34045 -7.6064,-9.36179 -7.0213,-10.82457 0.5851,-1.46278 4.3883,-11.70225 4.3883,-11.70225 0,0 -4.6809,-7.3139 -5.5586,-9.36179 -0.8776,-2.04789 -3.8032,-6.43623 -3.2181,-9.06924 0.5851,-2.633 0.2926,-7.3139 -1.1702,-8.19156 -1.4628,-0.87767 -4.3883,-3.21812 -4.0958,-5.55857 0.2926,-2.34045 3.5107,-4.09578 0.2926,-4.09578 -3.2181,0 -6.7288,-13.75014 -6.7288,-13.75014 z"
      id="path3892"
      style="fill:#fad0cf;fill-opacity:1;stroke:#000000;stroke-width:1px;stroke-linecap:butt;stroke-linejoin:miter;stroke-opacity:1"></path>
  </g>
</svg>