<svg aria-label="Nagaland" preserveAspectRatio="xMidYMid meet" style="width: 100%; height: 100%;"
  viewBox="1100 550 519 303" xmlns="http://www.w3.org/2000/svg">
  <g id="nagaland">
    <path
      d="m 1329.6672,725.64941 c -1.7554,-2.92556 -10.2395,-12.87246 -13.1651,-14.92035 -2.9255,-2.0479 -4.0958,-6.72879 -3.8032,-8.48413 0.2926,-1.75533 0.2926,-4.97345 -1.7553,-7.3139 -2.0479,-2.34045 -3.8033,-1.17022 -2.3405,-4.09578 1.4628,-2.92556 2.633,-2.92556 4.0958,-3.80323 1.4628,-0.87767 4.3883,0 4.6809,-2.63301 0.2926,-2.633 -0.5851,-3.21811 0.8777,-5.266 1.4627,-2.0479 3.8032,-2.34045 4.3883,-4.09579 0.5851,-1.75533 1.4628,-4.09578 2.3405,-5.85112 0.8776,-1.75534 2.3404,-4.09578 4.3883,-3.21812 2.0479,0.87767 4.6809,2.0479 6.4362,2.34045 1.7554,0.29256 2.0479,-2.34045 1.4628,-3.51067 -0.5851,-1.17022 -2.0479,-0.29256 -0.8777,-2.633 1.1703,-2.34045 1.7554,-2.92556 1.4628,-3.80323 -0.2925,-0.87767 -1.7553,-3.21812 -1.4628,-4.97345 0.2926,-1.75534 0.5852,-2.34045 2.0479,-3.51068 1.4628,-1.17022 0.2926,-3.51067 2.9256,-5.55856 2.633,-2.04789 3.2181,-5.85112 3.2181,-7.60646 0,-1.75533 0,-5.26601 1.1702,-5.85112 1.1703,-0.58511 4.0958,-1.17022 4.9735,-0.29256 0.8777,0.87767 3.8032,2.0479 4.3883,0.58512 0.5851,-1.46278 -0.2925,-3.51068 1.1703,-6.72879 1.4627,-3.21812 7.0213,-6.72879 9.6543,-9.36179 2.633,-2.63301 6.7288,-5.55857 9.6544,-8.19157 2.9255,-2.63301 9.6543,-7.89902 9.6543,-7.89902 0,0 0.8777,-2.633 3.2181,-0.87766 2.3405,1.75533 4.9735,2.92556 4.9735,4.38834 0,1.46278 -1.1703,1.46278 -1.1703,4.68089 0,3.21812 0.5852,3.51067 1.7554,3.80323 1.1702,0.29256 2.0479,2.04789 1.7553,4.09579 -0.2925,2.04789 -3.2181,2.34044 -0.5851,5.266 2.633,2.92556 4.3883,3.51068 5.5586,2.34045 1.1702,-1.17022 2.9255,-1.75533 2.9255,-1.75533 0,0 0.8777,0.29255 0.2926,3.21811 -0.5851,2.92556 -4.0958,2.92556 -5.266,4.38834 -1.1702,1.46278 -6.1437,4.97346 -5.8511,7.60646 0.2925,2.633 3.5106,9.06924 3.5106,9.06924 0,0 1.1703,7.60645 1.1703,8.77668 0,1.17022 2.9255,4.38834 2.9255,5.85112 0,1.46278 -3.2181,8.48412 -3.8032,10.82457 -0.5851,2.34045 -0.8777,10.53202 -0.8777,10.53202 0,0 -1.1702,6.43623 -2.633,8.19157 -1.4628,1.75533 -7.3139,9.06923 -7.3139,9.06923 0,0 -8.7767,4.38834 -10.2394,5.85112 -1.4628,1.46278 -45.9313,21.35659 -45.9313,21.35659 z"
      id="path3898"
      style="fill:#fdf9bb;fill-opacity:1;stroke:#000000;stroke-width:1px;stroke-linecap:butt;stroke-linejoin:miter;stroke-opacity:1"></path>
  </g>
</svg>