<svg aria-label="Odisha" preserveAspectRatio="xMidYMid meet" style="width: 100%; height: 100%;"
  viewBox="600 750 519 573" xmlns="http://www.w3.org/2000/svg">
  <g id="odhisha">
    <path
      d="m 735.07136,1165.3911 c 0.64051,1.1867 0.97083,5.0999 1.45803,5.898 2.19584,3.5972 -0.40987,0.033 0.31032,0.1931 0.87998,0.1956 7.13764,-3.1288 9.09316,-3.1288 1.95552,0 5.27991,-1.2711 6.74655,-3.0311 1.46664,-1.7599 3.12883,-4.3021 5.37767,-4.3999 2.24885,-0.098 4.20437,-0.2933 5.67101,-0.5866 1.46664,-0.2934 3.22661,-4.2044 4.69325,-4.6933 1.46664,-0.4889 5.76878,-1.3688 7.91985,-0.7822 2.15107,0.5867 4.39992,2.1511 5.76878,2.9333 1.36887,0.7822 2.15107,0.88 2.54218,0.2933 0.3911,-0.5866 0.68443,-1.8577 1.75997,-3.1288 1.07553,-1.2711 3.03105,-0.88 3.12883,-3.0311 0.0978,-2.151 -0.19556,-3.6177 -0.58666,-4.5954 -0.3911,-0.9778 -0.78221,-2.8355 -0.78221,-4.6933 0,-1.8577 0.78221,-2.0533 0.58666,-3.5199 -0.19555,-1.4667 -1.95552,-1.8578 -0.19555,-4.1066 1.75996,-2.2489 2.8355,-4.3999 3.71548,-5.0844 0.87999,-0.6844 3.32439,-0.7822 3.51994,-0.1955 0.19555,0.5867 1.66219,5.671 2.73773,6.3554 1.07553,0.6845 2.93328,4.1066 2.93328,5.8666 0,1.76 2.05329,0.88 2.05329,0.88 0,0 0.58666,-1.0756 3.12883,-2.2489 2.54218,-1.1733 4.20437,-0.6844 5.2799,-3.3244 1.07554,-2.6399 1.6622,-3.911 3.61771,-3.2266 1.95552,0.6845 3.22661,1.76 4.59548,2.0533 1.36886,0.2934 3.81326,1.3689 5.08435,0.88 1.27108,-0.4889 2.34662,-2.2488 2.34662,-2.2488 0,0 -3.03106,-1.2711 -2.8355,-2.7378 0.19555,-1.4666 1.95552,-1.6621 2.15107,-3.4221 0.19555,-1.76 -2.15107,-3.7155 -1.75997,-6.7466 0.3911,-3.031 1.17331,-3.3243 3.51993,-4.1066 2.34663,-0.7822 7.62653,-4.0088 9.28872,-6.2576 1.66219,-2.2489 2.93328,-3.9111 2.93328,-5.671 0,-1.76 -0.58665,-3.8133 -0.29333,-4.3022 0.29333,-0.4888 1.46664,0.1956 2.24885,-0.7822 0.78221,-0.9777 1.27109,-3.031 1.27109,-3.6177 0,-0.5866 -1.36887,-1.4666 1.07553,-2.4444 2.4444,-0.9777 2.93328,-0.1955 4.10659,0.4889 1.17332,0.6844 2.63996,0.1956 3.61772,-1.5644 0.97775,-1.76 1.56441,-2.8355 1.56441,-2.8355 0,0 0.87998,0.4889 1.46664,2.1511 0.58666,1.6621 -0.3911,3.911 0.97776,5.671 1.36886,1.7599 3.03106,2.6399 3.22661,1.5644 0.19555,-1.0756 0.68443,-2.64 0.68443,-2.64 0,0 0.58665,1.76 2.24885,3.7155 1.66219,1.9555 2.4444,2.64 3.42216,4.1066 0.97775,1.4666 3.81326,2.5422 7.91985,2.2488 4.10659,-0.2933 6.25766,-0.2933 9.58204,-0.4888 3.32439,-0.1956 4.98658,-0.5867 6.25767,-1.8578 1.27108,-1.2711 3.91103,-2.151 4.98657,-4.6932 1.07554,-2.5422 0.87998,-6.3555 4.20437,-6.7466 3.32438,-0.3911 6.15988,-3.1288 8.40873,-2.9332 2.24885,0.1955 6.74654,-0.6845 8.21318,-3.7155 1.46664,-3.0311 3.51994,-5.4755 6.06211,-7.8221 2.54218,-2.3466 8.11541,-2.2489 9.87537,-5.8666 1.75997,-3.6177 5.27991,-2.4444 5.67101,-4.5954 0.3911,-2.1511 1.66219,-5.9644 -1.07553,-6.3555 -2.73773,-0.3911 -6.25767,0.5867 -7.13765,-1.2711 -0.87998,-1.8577 -0.58666,-3.2266 1.17331,-4.2043 1.75997,-0.9778 7.91985,-5.2799 8.89761,-5.3777 0.97776,-0.098 0.78221,3.911 0.87999,4.4977 0.0978,0.5866 0.87998,5.0843 3.51993,5.5732 2.63995,0.4889 4.10659,-0.3911 6.84432,-1.4666 2.73773,-1.0756 6.25766,-2.3466 8.79984,-4.0088 2.54217,-1.6622 16.62191,-7.7243 23.27068,-10.1687 6.64877,-2.4444 13.29753,-8.0177 15.35083,-10.9509 2.05332,-2.9333 9.28872,-11.1465 10.16872,-11.3421 0.88,-0.1955 4.1066,-4.1065 4.3021,-6.3554 0.1956,-2.2488 -1.5644,-4.3021 -1.0755,-6.7465 0.4889,-2.4444 4.3021,-5.671 5.0843,-6.4533 0.7822,-0.7822 3.0311,-4.0088 3.7155,-4.98653 0.6845,-0.97776 -0.88,-4.79102 -0.88,-5.76878 0,-0.97776 0.5867,-3.71548 1.1733,-4.8888 0.5867,-1.17331 -0.098,-3.2266 -0.8799,-4.49769 -0.7822,-1.27109 -8.5065,-6.84432 -7.7243,-10.75536 0.7822,-3.91104 2.6399,-4.98657 4.3999,-7.13764 1.76,-2.15107 5.9643,-5.47546 7.5287,-7.23543 1.5644,-1.75996 3.1289,-3.03105 5.2799,-3.12883 2.1511,-0.0978 4.4,-1.66219 7.6266,-3.03105 3.2266,-1.36886 0.7822,-2.4444 6.2576,-2.93328 5.4755,-0.48888 8.5065,0.0978 12.3198,-1.36886 3.8133,-1.46664 5.4754,-1.36887 4.3999,-2.73773 -1.0755,-1.36886 0.4889,-2.4444 -1.2711,-5.2799 -1.7599,-2.83551 -4.2043,-6.55099 -8.4087,-6.55099 -4.2044,0 -22.7818,-5.37768 -23.8573,-5.96434 -1.0756,-0.58665 -20.7285,-17.30634 -24.6396,-18.08855 -3.91103,-0.78221 -26.20395,-13.00421 -29.33278,-11.63534 -3.12883,1.36886 -9.67982,14.66639 -10.26648,16.03526 -0.58665,1.36886 -39.30594,-12.02645 -45.9547,-14.2753 -6.64877,-2.24884 -30.60388,-2.8355 -30.70166,-3.2266 -0.0978,-0.39111 -3.03105,7.52875 -4.79102,7.62652 -1.75997,0.0978 -8.50651,0.58666 -8.50651,0.58666 0,0 -2.70931,0.24343 -3.19819,1.22119 -0.48888,0.97776 2.60729,9.67982 -0.32598,10.1687 -1.23883,0.20647 -5.84639,5.09155 -10.46679,4.58056 -2.59783,-0.2873 -4.90154,1.36251 -9.24743,4.78934 -1.11288,0.87753 1.13331,4.51422 -0.06,5.49619 -0.74617,0.61405 1.47482,0.65819 0.59863,1.15627 -1.60511,0.91244 -1.69126,-0.99951 -3.76365,-0.31818 -3.15691,1.03788 6.96596,11.47844 0.28241,9.91244 -0.46474,-0.10889 -1.86207,4.70184 -3.75652,3.93673 -0.91572,-0.36983 -3.53731,-0.86533 -4.15553,1.27993 -1.70729,5.92435 -2.61042,6.89678 -4.21938,8.06975 -2.59573,1.89236 1.66032,12.038 -2.48664,9.2772 -0.41882,-0.27883 6.17686,2.59698 5.3946,4.21267 -0.68931,1.42369 -2.98277,-1.05856 -5.12499,0.35062 -1.47085,0.96754 -0.0631,3.24789 -1.44993,4.76726 -0.69531,0.76175 -1.77228,0.15841 -2.90055,1.09281 -1.97594,1.63641 -4.10922,11.9547 -4.17297,8.72522 -0.01,-0.49949 -1.98471,-0.172 -3.41864,-1.12924 -1.25664,-0.83888 -2.25921,-2.95549 -4.20999,-3.97742 -3.12321,-1.63613 -3.15422,3.07226 -7.11033,1.84729 -1.44722,-0.44812 -3.91297,0.16245 -5.5218,-0.37122 -2.31808,-0.76893 -5.5255,4.42662 -6.07264,7.63995 -0.55239,3.2441 -0.61087,8.59698 -3.53175,5.98674 -1.01698,-0.90881 -0.39139,4.12499 -1.42173,2.63342 -0.61007,-0.88317 3.14939,4.73574 1.27311,5.58524 -2.08701,0.945 -4.12742,-2.84327 -7.47598,-1.6087 -3.60351,1.3286 3.36905,7.8896 0.19375,10.366 -0.9087,0.7086 0.11909,4.4484 0.46719,7.5359 0.26627,2.3616 2.39694,6.3775 0.69707,6.3274 -1.56652,-0.046 2.95224,6.5545 0.0335,4.0128 -1.50659,-1.312 0.58619,4.0761 1.33095,7.9537 0.31236,1.6263 -0.22973,4.131 0.57537,7.3214 0.70215,2.7824 8.46325,3.5884 8.16571,4.7092 -0.13043,0.4912 10.4255,0.3247 8.65573,0.3779 -0.75195,0.023 0.2966,3.9542 -0.86095,6.1572 -0.45373,0.8635 2.19762,3.347 1.09526,3.5718 -0.4941,0.1008 -3.18676,1.9608 -4.55676,1.5078 -1.51827,-0.502 -6.47214,-0.8404 -4.94149,-2.4359 0.79769,-0.8315 -2.92172,0.01 -4.07802,-1.254 -1.23513,-1.3495 -6.61468,1.7628 -7.44599,0.3994 -0.89176,-1.4626 -4.21002,-7.3595 -4.40637,-7.495 -2.25198,-1.5541 -11.72619,-1.7121 -13.48248,-3.1193 -1.13922,-0.9128 -2.74837,0.3544 -3.87649,0.4612 -1.31879,0.1248 -4.48681,0.4951 -5.22261,1.597 -0.94668,1.4178 0.65038,3.7504 -0.24989,5.2017 -1.23154,1.9853 4.05027,4.0643 4.40989,4.5346 0.59589,0.7793 7.67192,1.2894 8.32109,4.0852 0.30648,1.3199 -0.51849,3.0378 -1.66416,4.6192 -0.7844,1.0828 3.25745,2.1015 2.43259,2.8847 -0.34262,0.3254 -0.52329,3.4696 -0.97808,6.7208 -0.27691,1.9796 6.58322,4.225 6.00465,5.6717 -0.32653,0.8164 4.80369,3.2277 3.04082,3.5291 -1.47962,0.2529 0.51436,12.2611 -2.65801,11.5773 -1.11235,-0.2397 5.79357,3.4642 5.21788,5.8986 -0.52299,2.2116 -0.21007,5.8222 -3.15684,6.6003 -1.4071,0.3715 -2.99009,7.4627 -5.19906,6.9561 -1.27808,-0.2931 0.48024,4.3185 -4.2003,4.0736 -2.05329,0.6845 -8.33742,-3.396 -5.59969,-2.1249 2.73772,1.2711 0.43433,0.6615 -1.22787,3.3015 1.27852,2.8661 6.53261,2.8322 2.62158,4.7877 -1.68252,0.8413 -4.78176,8.6084 -9.23538,10.9289 -5.89886,3.0735 -9.02262,5.3818 -10.30401,6.7189 -0.56782,0.5925 -2.7179,-1.2027 -3.98399,1.1052 -3.42142,6.2366 -1.50565,10.556 -1.50565,10.556 l -0.98395,5.261 z"
      id="path3832"
      style="fill:#fad0cf;fill-opacity:1;stroke:#000000;stroke-width:1px;stroke-linecap:butt;stroke-linejoin:miter;stroke-opacity:1"></path>
  </g>
</svg>