<svg aria-label="Punjab" preserveAspectRatio="xMidYMid meet" style="width: 100%; height: 100%;"
  viewBox="150 250 519 273" xmlns="http://www.w3.org/2000/svg">
  <g id="punjab">
    <path
      d="m 507.56739,423.54669 -2.13136,5.48064 c 0,0 -2.43584,1.52239 -3.65375,2.13135 -1.21792,0.60896 -3.95824,-0.60896 -3.95824,-0.60896 0,0 -3.34927,-3.65375 -4.56719,-3.34927 -1.21792,0.30448 -3.65376,0.60896 -2.43584,2.43583 1.21792,1.82688 3.95824,3.95824 3.95824,3.95824 l 1.21792,5.48063 c 0,0 -3.34928,1.82688 -5.48064,2.43584 -2.13135,0.60896 -3.95823,0.30448 -3.95823,0.30448 0,0 -0.91344,1.21791 -1.5224,2.43583 -0.60896,1.21792 -6.39407,2.43584 -6.39407,2.43584 0,0 1.21792,1.21792 1.5224,3.04479 0.30448,1.82688 0.60896,1.5224 0,4.26272 -0.60896,2.74031 0.60896,4.87167 -1.21792,5.48063 -1.82688,0.60896 -5.48063,0.60896 -6.39407,-1.21792 -0.91344,-1.82688 -2.74032,-5.48063 -2.74032,-3.65375 0,1.82687 -1.52239,2.74031 -2.74031,2.13135 -1.21792,-0.60896 -2.74032,-3.95823 -3.95823,-0.60896 -1.21792,3.34928 -2.74032,10.04783 -4.5672,11.87471 -1.82688,1.82687 -0.91344,3.65375 -1.82688,6.39407 -0.91343,2.74031 3.0448,6.08959 -3.95823,4.56719 -7.00303,-1.5224 -10.96126,-2.43584 -15.22398,-3.65376 -4.26271,-1.21791 -3.65375,-0.91343 -5.48063,0 -1.82687,0.91344 -5.17615,1.5224 -7.30751,1.21792 -2.13135,-0.30448 -2.13135,0 -3.04479,1.82688 -0.91344,1.82688 -3.34928,3.65375 -3.34928,3.65375 0,0 -3.04479,2.43584 -3.04479,3.65376 0,1.21792 -1.82688,3.95823 -4.26272,2.74032 -2.43583,-1.21792 -2.13135,-1.21792 -3.34927,-4.26272 -1.21792,-3.04479 0.91344,-5.48063 -0.60896,-7.91647 -1.5224,-2.43583 0.30448,-0.60896 -3.04479,-1.21791 -3.34928,-0.60896 -4.5672,-0.30448 -5.17616,-2.74032 -0.60896,-2.43584 0.30448,-1.21792 -2.43583,-3.0448 -2.74032,-1.82687 0.30448,-0.30448 -3.95824,-2.43583 -4.26271,-2.13136 -5.78511,-3.65376 -6.08959,-2.43584 -0.30448,1.21792 -1.2138,5.01361 -5.78099,4.40465 -4.56719,-0.60896 -5.18027,-5.62257 -6.09371,-2.88225 -0.91344,2.74032 0,5.48063 -2.43584,6.08959 -2.43583,0.60896 -7.00303,-0.60896 -8.52542,-0.60896 -1.5224,0 -1.5224,0.91344 -4.5672,0.91344 -3.04479,0 -0.30448,-1.82688 -4.26271,-1.21792 -3.95823,0.60896 -3.65375,0.30448 -5.48063,0.60896 -1.82688,0.30448 -7.00303,0.60896 -9.13439,-0.91344 -2.13135,-1.5224 -5.17615,-4.26271 -3.95823,-4.56719 1.21792,-0.30448 5.48063,-2.13136 5.48063,-2.13136 0,0 2.74032,-6.69855 1.82688,-10.3523 -0.91344,-3.65376 -3.0448,-3.34928 -0.91344,-5.78511 2.13136,-2.43584 4.56719,-3.34928 6.39407,-5.78511 1.82688,-2.43584 1.21792,-3.0448 4.26271,-5.48064 3.0448,-2.43583 6.08959,-1.52239 7.00303,-6.08959 0.91344,-4.56719 5.17615,-9.43886 5.48063,-11.57022 0.30448,-2.13136 3.0448,-5.17615 5.78511,-5.78511 2.74032,-0.60896 4.87168,-1.5224 4.87168,-1.5224 0,0 -2.13136,-3.95823 -2.74032,-6.69855 -0.60896,-2.74031 -1.21792,-5.17615 1.82688,-7.30751 3.04479,-2.13135 5.48063,-4.26271 3.34927,-8.22094 -2.13135,-3.95824 -3.95823,-5.17616 -4.87167,-10.04783 -0.91344,-4.87167 -2.74031,-1.82688 -0.91344,-5.48063 1.82688,-3.65376 6.08959,-11.26574 7.61199,-11.8747 1.5224,-0.60896 3.95823,-0.91344 6.69855,-1.21792 2.74032,-0.30448 1.5224,-2.13136 5.78511,-4.26271 4.26272,-2.13136 10.04783,-4.26272 12.48366,-3.95824 2.43584,0.30448 9.43887,-2.43583 9.74335,-4.56719 0.30448,-2.13136 2.74031,-5.17615 0,-7.30751 -2.74032,-2.13136 -4.87167,-3.0448 -4.87167,-3.0448 0,0 3.65375,-13.3971 4.87167,-14.31053 1.21792,-0.91344 17.35533,-2.74032 21.00909,-3.34928 3.65375,-0.60896 20.09565,-4.56719 20.40012,-3.34927 0.30448,1.21791 1.82688,35.6241 1.82688,43.23609 0,7.61199 10.65679,16.4419 19.79117,22.22701 9.13439,5.78511 21.31357,15.83293 23.44493,22.227 2.13135,6.39407 5.78511,19.18221 5.78511,19.18221 z"
      id="path3784"
      style="fill:#fdf9bb;fill-opacity:1;stroke:#000000;stroke-width:1px;stroke-linecap:butt;stroke-linejoin:miter;stroke-opacity:1"></path>
  </g>
</svg>