<svg aria-label="Rajasthan" preserveAspectRatio="xMidYMid meet" style="width: 100%; height: 100%;"
  viewBox="100 150 519 1073" xmlns="http://www.w3.org/2000/svg">
  <g id="rajasthan">
    <path
      data-image="./States/images/rajasthan.jpg"
      d="m 503.81023,592.30999 11.71147,9.97644 1.51816,1.73503 0.21688,2.38567 -0.43376,2.81943 c 0,0 -0.65064,8.02453 0.65064,9.97644 1.30127,1.95191 3.0363,3.03631 3.47006,1.30128 0.43376,-1.73504 1.51816,-2.60255 2.81943,-1.95192 1.30128,0.65064 1.30128,-0.21688 3.68695,1.95192 2.38567,2.16879 3.90382,2.81942 4.1207,4.33758 0.21688,1.51815 -0.21688,1.95191 0.65064,3.90382 0.86751,1.95191 3.03631,1.51816 1.73503,3.47007 -1.30127,1.95191 -3.68694,4.33758 -4.98822,4.33758 -1.30127,0 -4.33758,0 -2.81943,1.51816 1.51816,1.51815 1.51816,1.51815 1.51816,1.51815 0,0 2.38567,-0.43376 1.51815,1.51815 -0.86752,1.95192 1.73503,1.95192 3.25319,1.95192 1.51815,0 2.38567,-1.95192 2.60255,0.43375 0.21688,2.38567 -1.73504,4.12071 -2.81943,4.55447 -1.0844,0.43375 -5.63886,-0.43376 -7.37389,-0.21688 -1.73504,0.21688 -3.25319,-0.65064 -3.47007,1.95191 -0.21688,2.60255 0.43376,5.63886 0.43376,5.63886 0,0 2.38567,-0.43376 3.03631,-1.95192 0.65063,-1.51815 1.08439,-1.30127 4.55446,-1.51815 3.47007,-0.21688 3.90382,-0.65064 5.2051,-1.51815 1.30127,-0.86752 2.38567,-2.81943 5.42198,-1.51816 3.0363,1.30128 4.1207,0.21688 6.28949,0 2.16879,-0.21688 3.03631,-1.30127 3.47007,0.43376 0.43376,1.73503 0.21688,2.60255 -1.0844,3.68695 -1.30127,1.08439 -1.51815,1.08439 -0.43376,3.25318 1.0844,2.16879 2.60255,4.55446 -2.16879,4.77134 -4.77134,0.21688 -5.2051,0.86752 -6.50637,2.1688 -1.30128,1.30127 -1.73503,2.16879 -4.33758,2.60254 -2.60255,0.43376 -3.90383,1.30128 -3.90383,1.30128 0,0 1.0844,1.73503 0,2.81943 -1.08439,1.08439 0,-1.0844 -2.81943,0.43376 -2.81943,1.51815 -5.63886,2.81943 -6.50637,2.81943 -0.86752,0 -3.47007,-3.03631 -7.15701,1.30127 -3.68695,4.33758 0.21688,5.2051 -3.90383,6.72325 -4.1207,1.51816 -10.84395,3.03631 -11.71147,4.55447 -0.86752,1.51815 -1.30128,3.25318 -2.81943,3.90382 -1.51815,0.65064 -5.85574,1.0844 -6.94013,1.95191 -1.0844,0.86752 0,3.03631 -0.86752,4.98822 -0.86751,1.95191 -0.43376,1.73504 -1.73503,2.81943 -1.30128,1.0844 -0.43376,1.51815 -1.95191,2.60255 -1.51816,1.0844 -2.1688,0.65064 -6.07262,1.0844 -3.90382,0.43375 -5.85574,1.30127 -6.07262,3.25318 -0.21687,1.95192 -0.43375,5.2051 -2.81942,7.15701 -2.38567,1.95192 -1.30128,4.33759 0,6.94014 1.30127,2.60255 -1.0844,6.72325 2.60255,9.10892 3.68694,2.38567 7.59077,4.1207 10.62707,6.72325 3.03631,2.60255 3.03631,4.33759 7.37389,4.33759 4.33759,0 5.85574,1.73503 8.24141,0 2.38567,-1.73504 3.03631,-1.73504 5.85574,-1.30128 2.81943,0.43376 3.25318,1.95191 4.1207,0.21688 0.86752,-1.73503 2.38567,-6.07262 3.90383,-6.50637 1.51815,-0.43376 1.73503,-2.16879 3.0363,-0.43376 1.30128,1.73503 0.21688,3.03631 0.65064,5.85574 0.43376,2.81942 0.65064,3.0363 1.95191,3.68694 1.30128,0.65064 2.60255,1.51815 1.51816,2.81943 -1.0844,1.30127 -2.38567,-0.43376 -1.51816,1.95191 0.86752,2.38567 1.95192,3.03631 1.0844,3.90383 -0.86752,0.86751 -3.47007,2.38567 -4.98822,1.51815 -1.51816,-0.86752 -3.47007,-1.73503 -4.33758,-1.51815 -0.86752,0.21687 -6.07262,2.81942 -8.67517,3.0363 -2.60255,0.21688 -5.63886,-1.08439 -8.02453,0.21688 -2.38567,1.30128 -3.68694,6.50638 -2.81943,7.59077 0.86752,1.0844 1.51816,2.16879 0.43376,3.47007 -1.08439,1.30127 -3.03631,0.21688 -1.95191,2.16879 1.0844,1.95191 3.47007,1.0844 5.85574,2.60255 2.38567,1.51815 4.33758,4.33758 4.1207,8.67517 -0.21688,4.33758 0.65064,7.37389 -1.73503,7.59076 -2.38567,0.21688 -6.2895,0 -8.24141,-1.30127 -1.95191,-1.30127 -3.47007,-3.03631 -3.68695,-1.73503 -0.21687,1.30127 -1.08439,1.08439 0.43376,3.25318 1.51816,2.1688 1.73504,1.73504 1.51816,3.90383 -0.21688,2.16879 -0.86752,2.38567 -0.65064,4.33758 0.21688,1.95191 -2.16879,0.86752 0.86752,2.38567 3.0363,1.51816 3.68694,2.38567 3.0363,4.98822 -0.65063,2.60255 -1.08439,3.68695 -1.08439,5.42198 0,1.73503 -2.16879,4.1207 -2.81943,3.03631 -0.65064,-1.0844 0,-2.60255 -1.73503,-2.81943 -1.73504,-0.21688 -2.60255,0.43376 -4.33759,-1.95191 -1.73503,-2.38567 -0.86751,-4.12071 -0.65063,-5.2051 0.21688,-1.0844 0.86751,-4.55446 -2.38567,-1.95191 -3.25319,2.60255 -4.77135,4.77134 -4.55447,6.07261 0.21688,1.30128 -2.16879,2.16879 -3.25318,0.65064 -1.0844,-1.51816 -1.95192,-4.1207 -6.07262,-3.68695 -4.1207,0.43376 -9.10892,1.30128 -9.75956,0.21688 -0.65064,-1.08439 0.86752,-3.47006 -1.51815,-4.1207 -2.38567,-0.65064 -4.33759,0.21688 -4.33759,2.81943 0,2.60255 1.30128,4.98822 0,7.15701 -1.30127,2.16879 -5.63885,5.85574 -7.59077,6.50637 -1.95191,0.65064 0.65064,1.73504 -2.16879,4.12071 -2.81943,2.38567 -3.68694,4.55446 -5.2051,4.55446 -1.51815,0 -4.98822,-2.81943 -6.28949,-2.38567 -1.30128,0.43376 -1.0844,2.38567 -1.0844,4.1207 0,1.73503 -0.86751,3.25319 -2.38567,1.95191 -1.51815,-1.30127 -1.73503,-2.16879 -3.47006,-1.51815 -1.73504,0.65064 -1.30128,0.21688 -2.60255,-1.51815 -1.30128,-1.73504 -1.30128,-4.12071 -3.25319,-4.77134 -1.95191,-0.65064 -4.1207,-1.0844 -2.16879,-2.38568 1.95191,-1.30127 4.1207,-0.43375 6.07261,-1.51815 1.95192,-1.08439 2.16879,-3.03631 3.90383,-3.03631 1.73503,0 4.33758,1.30128 4.33758,2.38567 0,1.0844 2.81943,2.60255 3.90383,-0.65063 1.08439,-3.25319 1.51815,-1.0844 0.43375,-4.77135 -1.08439,-3.68694 -2.16879,-4.55446 -1.08439,-6.50637 1.08439,-1.95191 5.42198,-2.60255 4.77134,-4.1207 -0.65064,-1.51816 -6.07262,-2.16879 -6.07262,-5.63886 0,-3.47007 0.65064,-4.77134 1.73504,-4.1207 1.08439,0.65063 5.42197,1.08439 6.50637,-1.30128 1.0844,-2.38567 2.38567,-2.60255 0,-5.42198 -2.38567,-2.81943 -2.38567,-3.47006 -2.38567,-6.94013 0,-3.47007 0.65064,-5.85574 -1.0844,-5.63886 -1.73503,0.21688 -1.73503,0.21688 -1.73503,0.21688 0,0 -2.38567,2.38567 -4.55446,1.73504 -2.16879,-0.65064 -2.16879,-0.43376 -3.25319,1.08439 -1.08439,1.51815 -1.08439,1.51815 -3.47006,1.0844 -2.38567,-0.43376 -1.30128,-1.0844 -3.47007,0.65063 -2.16879,1.73504 -2.81943,2.1688 -4.55446,0.43376 -1.73504,-1.73503 -3.03631,-2.60255 -5.63886,-2.60255 -2.60255,0 -3.90382,0.86752 -4.98822,-0.21688 -1.0844,-1.08439 -1.95191,-5.42197 -1.30127,-6.28949 0.65063,-0.86752 3.47006,-2.16879 4.33758,-1.51816 0.86751,0.65064 1.30127,2.1688 3.25319,1.30128 1.95191,-0.86752 3.25318,-1.0844 2.60254,-1.95191 -0.65063,-0.86752 -3.0363,-0.43376 -4.55446,-1.73504 -1.51815,-1.30127 -2.60255,-1.95191 -1.51815,-2.60255 1.08439,-0.65063 1.08439,-0.65063 1.08439,-0.65063 0,0 1.95192,0.65063 2.81943,-0.43376 0.86752,-1.0844 1.30128,-5.63886 0.65064,-5.85574 -0.65064,-0.21688 -9.54268,1.0844 -9.54268,1.0844 0,0 -3.47007,4.55446 -3.90383,6.07261 -0.43375,1.51816 -1.51815,3.47007 -3.68694,3.47007 -2.16879,0 -4.55446,1.73503 -6.07262,-0.65064 -1.51815,-2.38567 -4.33758,-3.25318 -4.33758,-3.25318 0,0 -1.30127,2.60255 0.21688,3.90382 1.51815,1.30127 2.16879,3.03631 3.90382,3.68695 1.73504,0.65063 2.38567,2.38567 0.86752,4.1207 -1.51815,1.73503 -0.43376,2.38567 -3.03631,2.38567 -2.60255,0 -5.85573,1.08439 -6.07261,2.81943 -0.21688,1.73503 -0.43376,2.38567 -1.73504,3.90382 -1.30127,1.51816 -0.43375,2.38567 1.30128,4.55446 1.73503,2.1688 3.90382,2.1688 2.16879,6.07262 -1.73503,3.90382 -3.68695,3.03631 -2.16879,5.63886 1.51815,2.60255 3.03631,2.81943 4.55446,3.25318 1.51815,0.43376 -1.51815,3.47007 0.86752,6.94014 2.38567,3.47006 3.68694,3.25318 3.47006,4.77134 -0.21688,1.51815 -0.43376,3.47006 -1.73503,5.63886 -1.30127,2.16879 -3.03631,4.33758 -1.0844,6.72325 1.95192,2.38567 3.90383,3.68694 2.38567,5.63886 -1.51815,1.95191 -2.16879,3.47006 -1.51815,4.98822 0.65064,1.51815 -1.51815,3.47006 -3.47007,4.1207 -1.95191,0.65064 -3.25318,1.95191 -3.47006,3.03631 -0.21688,1.08439 -2.81943,1.30127 -6.2895,1.73503 -3.47006,0.43376 -7.37389,3.68695 -7.37389,5.63886 0,1.95191 -1.30127,3.03631 -1.30127,3.68694 0,0.65064 1.08439,0.43376 3.25319,1.0844 2.16879,0.65064 3.90382,-0.86752 5.42197,1.51815 1.51816,2.38567 3.03631,4.55447 1.73504,5.63886 -1.30128,1.0844 -4.77134,1.51815 -6.72326,2.38567 -1.95191,0.86752 -2.38567,-0.43376 -5.63885,1.30128 -3.25319,1.73503 -4.33759,2.81942 -6.72326,3.0363 -2.38567,0.21688 -3.25318,0.43376 -4.77134,-1.51815 -1.51815,-1.95191 -3.03631,-3.03631 -5.2051,-4.1207 -2.16879,-1.0844 -3.03631,0.21688 -3.03631,-2.38567 0,-2.60255 -0.86751,-3.25319 -2.16879,-4.12071 -1.30127,-0.86751 -0.86751,-0.43376 -2.16879,-2.60255 -1.30127,-2.16879 -2.81943,-0.21688 -3.03631,-2.16879 -0.21687,-1.95191 -2.60255,-2.81943 -2.60255,-2.81943 0,0 -1.95191,-0.43376 -2.81942,1.30128 -0.86752,1.73503 -2.1688,5.2051 -4.12071,2.81943 -1.95191,-2.38567 -4.77134,-4.33759 -6.50637,-5.63886 -1.73503,-1.30128 -0.43376,-5.42198 -0.86752,-8.24141 -0.43376,-2.81943 0.43376,-3.90382 -2.81943,-5.42198 -3.25318,-1.51815 -4.77134,0 -7.15701,-1.95191 -2.38567,-1.95191 -6.07261,-6.07261 -6.07261,-8.24141 0,-2.16879 2.38567,-3.47006 3.47006,-4.55446 1.0844,-1.08439 -0.21688,-5.63886 -0.86751,-6.94013 -0.65064,-1.30128 -1.95192,-2.60255 -2.60255,-5.2051 -0.65064,-2.60255 -1.0844,-3.68694 -1.0844,-3.68694 l -2.81943,2.16879 -1.08439,4.55446 -2.1688,1.30127 c 0,0 -1.95191,-1.95191 -1.95191,-3.68694 0,-1.73504 0.43376,-2.60255 -0.65064,-4.33758 -1.08439,-1.73504 -2.16879,-2.81943 -2.60254,-3.68695 -0.43376,-0.86752 -1.51816,-4.55446 -0.21688,-5.2051 1.30127,-0.65064 3.0363,-1.0844 3.68694,-1.95191 0.65064,-0.86752 -1.30127,-4.33758 -1.73503,-5.2051 -0.43376,-0.86752 -3.25319,-8.45829 -4.12071,-9.75956 -0.86751,-1.30128 -0.43375,2.38567 -1.08439,3.68694 -0.65064,1.30128 -1.73503,5.2051 -2.60255,5.85574 -0.86752,0.65064 -4.77134,3.90382 -5.85574,3.47007 -1.08439,-0.43376 -4.55446,-0.65064 -6.07261,-1.30128 -1.51816,-0.65064 -4.55447,-3.03631 -5.42198,-3.25319 -0.86752,-0.21687 -5.42198,-4.55446 -6.2895,-5.20509 -0.86751,-0.65064 -1.95191,0.86751 -1.95191,1.51815 0,0.65064 -8.02453,-3.90383 -10.4102,-3.68695 -2.38567,0.21688 -4.77134,-0.43375 -2.60255,-1.73503 2.16879,-1.30127 5.2051,-0.86752 5.42198,-2.16879 0.21688,-1.30128 0.86752,-2.81943 -1.95191,-2.81943 -2.81943,0 -9.97644,0 -12.36211,-0.86752 -2.38567,-0.86751 -8.02453,1.73504 -8.45829,0 -0.43376,-1.73503 -2.81943,-3.90382 -3.03631,-2.16879 -0.21687,1.73504 1.73504,4.33759 -0.86751,3.47007 -2.60255,-0.86752 -3.25319,-1.30128 -5.42198,-2.16879 -2.16879,-0.86752 -3.68695,-0.43376 -4.77134,-1.51816 -1.0844,-1.08439 -6.94013,-1.51815 -9.3258,-0.65063 -2.38567,0.86751 -7.37389,3.25318 -10.4102,2.60255 -3.03631,-0.65064 -5.2051,1.08439 -5.42198,-1.0844 -0.21688,-2.16879 1.30127,-4.77134 -1.51816,-4.1207 -2.81942,0.65063 -5.42197,3.68694 -8.2414,3.90382 -2.81943,0.21688 -7.15701,-12.79587 -6.72326,-15.39842 0.43376,-2.60255 -6.94013,-11.49459 -6.94013,-13.4465 0,-1.95192 -5.42198,-11.06084 -3.68694,-12.79587 1.73503,-1.73504 5.2051,-4.77134 4.55446,-6.72326 -0.65064,-1.95191 -3.25319,-3.47006 -6.2895,-2.16879 -3.0363,1.30128 -9.54268,4.77134 -11.71147,1.51816 -2.16879,-3.25319 -12.79587,-13.01275 -12.79587,-14.96466 0,-1.95192 -3.68694,-11.92836 -2.60255,-13.22963 1.0844,-1.30128 8.89205,-17.78409 8.89205,-18.65161 0,-0.86751 -2.16879,-5.85573 -1.73504,-6.72325 0.43376,-0.86752 -1.08439,-2.38567 -2.60255,-2.38567 -1.51815,0 -6.72325,1.51815 -8.2414,0.65064 -1.51816,-0.86752 -3.68695,-3.90383 -5.85574,-4.33759 -2.16879,-0.43375 -6.07262,2.60255 -9.3258,-1.51815 -3.25319,-4.1207 -8.24141,-13.22963 -8.24141,-17.35033 0,-4.1207 -0.21688,-6.94013 1.0844,-9.97644 1.30127,-3.03631 5.2051,-6.94013 6.94013,-8.02453 1.73503,-1.08439 17.35033,-13.88026 18.43472,-15.18154 1.0844,-1.30127 16.26594,-19.736 18.00097,-22.55543 1.73504,-2.81943 17.13345,-9.10892 19.95288,-8.24141 2.81943,0.86752 5.42198,3.03631 5.42198,4.12071 0,1.08439 -0.86751,6.28949 0,8.67516 0.86752,2.38567 2.81943,3.90383 2.81943,5.2051 0,1.30128 0.21688,3.90383 1.30128,3.90383 1.08439,0 4.77134,-1.51816 6.50637,-3.03631 1.73503,-1.51815 2.16879,-2.38567 9.75956,-2.60255 7.59077,-0.21688 6.2895,-1.73503 12.57899,-2.38567 6.2895,-0.65064 10.84396,1.08439 13.88026,1.30127 3.03631,0.21688 9.32581,-0.21688 10.19332,-2.38567 0.86752,-2.16879 1.51816,-1.51815 2.1688,-5.2051 0.65063,-3.68694 1.73503,-6.94013 4.55446,-8.67516 2.81943,-1.73503 9.10892,-3.90383 11.71147,-8.02453 2.60255,-4.1207 3.47007,-14.5309 6.94013,-16.91657 3.47007,-2.38567 4.55446,-2.16879 6.72326,-4.55446 2.16879,-2.38567 2.60255,-4.12071 3.0363,-6.07262 0.43376,-1.95191 2.81943,-3.47007 7.15702,-3.03631 4.33758,0.43376 10.19331,-0.86751 11.27771,-2.16879 1.0844,-1.30127 12.57899,-15.39842 13.01275,-17.35033 0.43376,-1.95191 1.08439,-1.30127 1.73503,-3.47007 0.65064,-2.16879 2.60255,-4.33758 3.90383,-6.72325 1.30127,-2.38567 5.85573,-5.42198 5.85573,-6.94013 0,-1.51815 6.50638,-25.37486 8.02453,-26.24238 1.51815,-0.86751 6.94013,-2.16879 13.22963,-3.0363 6.28949,-0.86752 1.73503,-2.1688 6.07261,-3.47007 4.33759,-1.30128 0.21688,-0.21688 9.32581,0.21688 9.10892,0.43376 23.42294,0.65064 29.49556,0.86752 6.07261,0.21687 11.06083,0.43375 11.27771,9.97644 0.21688,9.54268 1.30128,15.61529 5.2051,18.00096 3.90383,2.38567 62.46119,30.79684 60.94304,44.02647 -1.51815,13.22963 22.77231,37.95385 31.88123,34.05002 9.10893,-3.90382 20.60352,18.65161 20.60352,18.65161 z"
      id="path3796"
      style="fill:#fad0cf;fill-opacity:1;stroke:#000000;stroke-width:1px;stroke-linecap:butt;stroke-linejoin:miter;stroke-opacity:1"></path>
  </g>
</svg>