<svg aria-label="Sikkim" preserveAspectRatio="xMidYMid meet" style="width: 100%; height: 100%;"
  viewBox="800 550 519 153" xmlns="http://www.w3.org/2000/svg">
  <g id="sikkim">
    <path
      d="m 1089.9302,639.28227 c 3.7008,0.49062 2.9557,7.62871 9.6817,1.3516 11.9377,-11.14092 -7.0075,3.10217 -14.229,-19.42696 -0.2926,-1.17022 2.3404,-4.68089 2.3404,-4.68089 0,0 4.0958,-2.92556 2.0479,-6.43624 -2.0479,-3.51067 -4.6809,-2.34045 -5.266,-6.43623 -0.5851,-4.09578 2.3404,-8.19157 2.3404,-9.65435 0,-1.46278 2.0479,-11.11713 2.0479,-11.11713 l -6.4362,-11.9948 c 0,0 -4.6809,-3.51067 -9.3618,-3.21811 -4.6809,0.29255 -7.3139,4.09578 -9.3618,5.26601 -2.0479,1.17022 -7.6064,3.51067 -11.1171,4.09578 -3.5107,0.58511 -7.3139,-0.29255 -7.0214,3.51067 0.2926,3.80323 4.3884,5.26601 4.9735,7.3139 0.5851,2.0479 0.5851,6.72879 -1.1702,8.19157 -1.7554,1.46278 -4.6809,7.3139 -4.3884,8.77668 0.2926,1.46278 2.3405,11.11713 0.8777,12.87247 -1.4628,1.75534 -2.3404,8.19157 -2.633,9.06924 -0.2926,0.87766 2.3404,4.09578 4.9735,8.48412 12.6008,26.0513 -3.2431,5.29919 11.1597,8.69919 6.6112,1.56068 4.2106,1.50277 7.7831,0.40808 7.7309,-2.36892 5.8438,2.69599 8.8699,-1.55896 1.8263,-2.56795 4.9388,0.85645 10.4343,0.11313 1.8942,-0.25621 0.8886,-3.17243 3.4549,-3.62877 z"
      id="path3883"
      style="fill:#fad0cf;fill-opacity:1;stroke:#000000;stroke-width:1px;stroke-linecap:butt;stroke-linejoin:miter;stroke-opacity:1"></path>
  </g>
</svg>