<svg aria-label="TamilNadu" preserveAspectRatio="xMidYMid meet" style="width: 100%; height: 100%;"
  viewBox="300 1300 519 673" xmlns="http://www.w3.org/2000/svg">
  <g id="tamilnadu">
    <path
      d="m 446.42828,1505.0009 c 0,0.1895 0.18946,2.9368 0.33156,3.1262 0.1421,0.1895 0.75786,1.9894 0.89996,3.5999 0.1421,1.6104 0.0947,2.6998 -0.0947,3.9314 -0.18947,1.2315 -1.13679,1.7052 0.18947,3.0314 1.32625,1.3263 1.04206,0.7579 1.75255,1.8947 0.7105,1.1368 3.45775,2.2262 3.55248,2.8893 0.0947,0.6632 1.32626,1.0421 2.22622,1.6105 0.89996,0.5684 3.55248,1.4683 4.12088,2.5578 0.56839,1.0894 -0.33157,2.463 0.18946,3.8367 0.52103,1.3736 3.45775,4.3577 4.35771,5.0208 0.89996,0.6631 3.36302,2.2736 3.83668,2.6525 0.47366,0.3789 1.08943,-0.3316 1.46836,1.6105 0.37893,1.942 0.94733,4.4524 0.4263,5.0208 -0.52103,0.5684 -1.89466,1.421 -2.51042,2.4157 -0.61577,0.9947 -0.89996,1.7052 -0.4263,2.6051 0.47366,0.9 0.99469,1.8473 2.13149,2.3684 1.13679,0.521 5.9208,2.7472 7.53125,3.4103 1.61046,0.6632 2.51042,0.9947 2.93672,1.9421 0.4263,0.9473 1.18416,4.2156 0.7105,4.784 -0.47367,0.5684 -2.55779,2.7946 -3.36302,3.1735 -0.80523,0.3789 -2.84198,1.0421 -2.93671,1.942 -0.0947,0.9 2.51041,4.2156 2.46305,5.7314 -0.0474,1.5157 0.4263,4.3577 -0.18947,6.2523 -0.61576,1.8947 -2.51042,2.9947 -0.71049,5.8367 1.79992,2.842 3.36301,2.0735 4.21561,3.1156 0.85259,1.042 1.42099,1.7525 1.89465,2.0367 0.47367,0.2842 2.08412,0.5211 3.41038,-0.7105 1.32626,-1.2315 6.205,-2.984 7.34179,-3.7419 1.1368,-0.7579 2.13149,-1.942 3.31565,-1.5631 1.18416,0.3789 2.84199,0.9 3.88405,1.6105 1.04206,0.7105 2.51041,3.0788 2.13148,3.5998 -0.37893,0.521 -1.70519,2.4157 -2.41568,3.0788 -0.7105,0.6632 -2.93672,0.6158 -2.17886,2.4631 0.75787,1.8473 2.03676,3.5998 2.32096,4.8314 0.2842,1.2315 -0.18947,5.7313 -0.8526,7.3891 -0.66313,1.6578 -1.37362,3.363 -0.94733,4.3577 0.4263,0.9947 1.18416,2.5578 1.04206,3.0315 -0.14209,0.4736 -0.18946,2.6525 -1.51572,4.3103 -1.32626,1.6578 -2.27359,3.1262 -2.60515,4.1209 -0.33157,0.9947 -0.61577,3.4104 0.18946,3.5051 0.80523,0.095 2.36832,0.8526 3.78932,-0.9 1.42099,-1.7525 2.17885,-2.463 2.93671,-2.463 0.75786,0 3.50511,2.0367 4.16824,3.0788 0.66313,1.0421 1.18416,1.0894 1.23153,2.5578 0.0474,1.4683 0.7105,7.4365 -1.27889,8.9049 -1.98939,1.4683 -3.78931,2.3683 -4.35771,3.7419 -0.5684,1.3736 -1.37363,7.3892 -1.46836,9.0944 -0.0947,1.7052 -0.52103,2.984 -2.36832,4.3577 -1.84729,1.3736 -3.07881,1.2789 -3.59984,2.9841 -0.52103,1.7051 -0.18947,3.884 0.89996,5.2103 1.08942,1.3262 2.93671,1.8946 3.07881,3.7419 0.1421,1.8473 0.2842,5.0208 -1.08942,5.8261 -1.37363,0.8052 -2.22622,0.9473 -2.79462,2.2736 -0.5684,1.3262 0.37893,2.6525 1.08943,3.6472 0.71049,0.9947 2.55778,3.5998 2.55778,5.0208 0,1.421 -0.61576,3.5525 -1.65782,5.0682 -1.04206,1.5157 -3.36302,5.1629 -3.36302,6.1576 0,0.9947 0.89996,3.5999 1.1368,3.742 0.23683,0.1421 3.36301,-1.5631 4.97347,0.6631 1.61046,2.2262 -0.0474,4.1683 3.22091,4.6893 3.26828,0.521 4.59454,1.2789 6.29973,1.5631 1.70519,0.2842 4.92611,1.1841 6.01554,0.8526 1.08942,-0.3316 8.00492,-5.3998 9.23644,-5.9208 1.23153,-0.5211 8.38385,-5.0682 10.04168,-6.6787 1.65782,-1.6104 9.23645,-5.3998 10.18377,-5.3998 0.94733,0 6.25237,-0.2368 7.10496,-3.1261 0.8526,-2.8894 0.9947,-9.3786 1.51573,-10.7048 0.52103,-1.3263 0.99469,-11.9837 0.94733,-13.0732 -0.0474,-1.0894 3.03144,-8.0049 3.03144,-8.0049 0,0 5.7787,-4.6893 7.4839,-5.1156 1.70519,-0.4263 5.4945,0 8.24175,-0.1421 2.74725,-0.1421 6.39446,-2.2735 8.57332,-3.1261 2.17885,-0.8526 11.03637,-0.5684 13.49942,-0.9 2.46305,-0.3316 10.46797,-0.6631 11.32057,-1.7526 0.85259,-1.0894 2.79461,-2.1788 1.51572,-4.0261 -1.27889,-1.8473 -2.13149,-5.0208 -5.44713,-7.8628 -3.31565,-2.842 -4.78401,-3.2209 -4.97348,-4.4525 -0.18946,-1.2315 3.88405,-13.2626 5.30504,-14.4941 1.42099,-1.2315 5.25767,-4.9261 6.96286,-6.726 1.70519,-1.7999 6.86813,-6.9629 6.91549,-8.6681 0.0474,-1.7052 -1.61045,-3.5051 -1.94202,-4.6419 -0.33156,-1.1368 5.11557,-9.7101 6.72603,-9.7101 1.61046,0 6.0629,-0.7105 7.53126,0 1.46836,0.7105 10.08904,1.6105 11.88896,1.3736 1.79993,-0.2368 12.17317,-2.6525 13.73626,-3.884 1.56309,-1.2315 2.98408,-0.8052 0.94733,-3.4577 -2.03676,-2.6526 -2.41569,-8.2892 -2.46306,-10.5628 -0.0474,-2.2735 1.23153,-13.3573 -0.18946,-15.1572 -1.42099,-1.7999 -2.08412,-8.0997 -1.98939,-9.2364 0.0947,-1.1368 1.51572,-7.626 0.94733,-9.1891 -0.5684,-1.5631 -1.51573,-6.2998 -2.65252,-8.8102 -1.1368,-2.5104 -3.26828,-7.5312 -2.98408,-8.3365 0.28419,-0.8052 2.55778,-3.5051 3.41038,-4.405 0.85259,-0.9 0.37893,-0.5684 -0.5684,-3.1736 -0.94733,-2.6051 -1.98939,-3.363 -2.27359,-4.2156 -0.2842,-0.8526 -0.0474,-6.5839 1.08943,-7.2944 1.13679,-0.7105 2.36832,-8.147 2.65252,-8.9049 0.2842,-0.7579 1.32626,-7.4365 4.12087,-8.3365 2.79462,-0.8999 6.44183,-2.0367 7.57863,-3.6946 1.13679,-1.6578 5.44713,-7.4839 5.68396,-8.0996 0.23684,-0.6158 0,-5.0209 -0.75786,-5.7314 -0.75786,-0.7104 -4.16824,-4.6419 -4.07351,-5.3997 0.0947,-0.7579 0.1421,-0.4263 2.55779,-1.4684 2.41568,-1.042 9.66274,-6.2523 9.99431,-7.9102 0.33156,-1.6578 1.89465,-6.6313 1.89465,-6.6313 0,0 5.06821,-5.826 5.11557,-7.8154 0.0474,-1.9894 0.23684,-11.0838 -0.0474,-11.889 -0.2842,-0.8052 -0.61577,-6.8207 -3.41038,-9.8522 -2.79462,-3.0314 -3.41038,-3.3156 -5.73134,-4.5472 -2.32095,-1.2315 -7.95755,-1.9894 -9.09435,-1.7999 -1.13679,0.1895 -11.22583,8.9049 -12.40999,9.8996 -1.18416,0.9947 -11.88897,2.3209 -14.20992,2.1315 -2.32095,-0.1895 -11.8416,1.5631 -12.45736,1.8473 -0.61576,0.2842 -1.89466,9.2838 -3.17355,9.2838 -1.27889,0 -12.50473,1.6104 -13.40469,1.7525 -0.89996,0.1421 -21.55171,-2.3209 -22.02537,-1.3736 -0.47367,0.9473 -10.27851,5.7787 -10.27851,8.2418 0,2.463 -0.7105,12.931 -1.65783,12.9784 -0.94732,0.047 -16.00984,-0.6632 -17.0519,-1.421 -1.04206,-0.7579 -5.96816,-4.8314 -6.91549,-4.8314 -0.94733,0 -10.08904,-5.305 -13.73626,-2.4631 -3.64721,2.842 -8.24175,8.7628 -9.99431,9.9943 -1.75255,1.2316 -10.08904,3.6473 -10.51534,4.2157 -0.42629,0.5684 1.2789,16.5308 -1.56309,17.9992 -2.84198,1.4683 -4.6419,5.7787 -3.50511,7.2944 1.13679,1.5157 11.46267,8.9996 8.81015,10.5627 -2.65252,1.5631 -7.43652,2.9367 -8.71542,4.6419 -1.27889,1.7052 -2.51042,6.4892 -2.51042,6.4892 0,0 -22.02537,0 -24.67789,-0.1421 -2.65252,-0.1421 -7.86282,-0.4736 -8.43122,3.3157 -0.56839,3.7893 -1.04206,7.3418 -2.22622,7.1049 -1.18416,-0.2368 -19.27812,-5.8734 -21.78854,-6.6786 -2.51042,-0.8053 -4.26297,-0.379 -4.26297,-0.379 z"
      id="path3877"
      style="fill:#fad0cf;fill-opacity:1;stroke:#000000;stroke-width:1px;stroke-linecap:butt;stroke-linejoin:miter;stroke-opacity:1"></path>
  </g>
</svg>