<svg aria-label="Telangana" preserveAspectRatio="xMidYMid meet" style="width: 100%; height: 100%;"
  viewBox="300 900 519 673" xmlns="http://www.w3.org/2000/svg">
  <g id="telangana">
    <path
      style="fill:#ebc5dd;fill-opacity:1;fill-rule:evenodd;stroke:#000000;stroke-width:1px;stroke-linecap:butt;stroke-linejoin:miter;stroke-opacity:1"
      d="m 501.49611,1251.5941 c 13.51894,0.9432 18.23485,-0.9432 18.23485,-0.9432 0,0 2.20075,1.8864 2.51515,0.6288 0.31439,-1.2576 -1.25758,-3.1439 1.25757,-4.0871 2.51516,-0.9432 3.77273,-2.5152 3.77273,-0.9432 0,1.572 0.62879,5.3447 0.62879,5.3447 0,0 3.14394,1.572 3.77273,0 0.62878,-1.572 0.94318,-4.7159 0.94318,-4.7159 l 5.3447,-5.3447 7.54545,-3.7727 c 0,0 2.51515,-0.3144 4.08712,0 1.57197,0.3144 2.20076,0.6288 4.40152,1.2575 2.20075,0.6288 6.28788,3.7728 6.28788,3.7728 0,0 1.57197,0.6288 3.14393,-0.6288 1.57197,-1.2576 3.14394,-1.2576 3.77273,-2.8296 0.62879,-1.5719 5.03031,-3.7727 5.03031,-5.3447 0,-1.5719 -3.14394,-4.0871 -0.62879,-3.7727 2.51515,0.3144 12.57575,0.6288 12.57575,0.6288 0,0 4.40152,-4.7159 4.40152,-7.8598 0,-3.144 -5.97348,-3.7728 0,-6.9167 5.97349,-3.144 0.62879,-3.4583 10.6894,-5.6591 10.06061,-2.2008 12.57576,-6.2879 16.66288,-5.3447 4.08712,0.9432 7.85985,4.0871 10.06061,4.7159 2.20076,0.6288 0.94318,1.8864 3.14394,-1.2576 2.20076,-3.1439 2.20076,-2.2007 4.08712,-5.3447 1.88636,-3.1439 4.40151,-3.1439 2.20076,-4.4015 -2.20076,-1.2576 -5.97349,-0.6288 -3.77273,-3.4583 2.20076,-2.8296 -1.88636,-5.9735 3.45833,-5.0303 5.3447,0.9432 4.40152,-0.3144 8.48864,-1.2576 4.08712,-0.9432 3.77273,-2.8295 5.0303,0.3144 1.25758,3.1439 2.20076,3.4583 2.82955,6.6023 0.62879,3.1439 0,0.3144 4.08712,3.1439 4.08712,2.8296 8.48864,5.9735 8.48864,3.7727 0,-2.2007 1.57197,-5.9734 -0.94319,-7.8598 -2.51515,-1.8864 -4.08712,0.3144 -5.34469,-2.5152 -1.25758,-2.8295 -5.65909,-4.0871 -3.77273,-5.3447 1.88636,-1.2575 5.0303,0 6.91667,-2.5151 1.88636,-2.5152 -1.88637,-4.0871 4.40151,-1.2576 6.28788,2.8296 4.71591,4.0871 9.74621,4.4015 5.03031,0.3144 5.3447,-1.5719 5.3447,-1.5719 0,0 -6.28788,-5.0303 -2.20076,-5.0303 4.08712,0 6.91667,1.8863 11.00379,0.3144 4.08712,-1.572 3.77273,-0.3144 6.28788,-3.144 2.51515,-2.8295 2.82954,-4.0871 4.08712,-4.0871 1.25758,0 0,-3.4583 4.40152,-2.8296 4.40151,0.6288 6.60227,0.6288 7.23106,-1.5719 0.62878,-2.2008 -3.45834,0.3144 3.14394,-3.7728 6.60227,-4.0871 11.00378,-7.231 10.68939,-14.7765 -0.31439,-7.5454 -5.0303,-28.9242 -5.0303,-28.9242 0,0 -42.75758,-41.5 -42.75758,-43.072 0,-1.5719 -51.875,-24.5227 -51.875,-24.5227 l -63.19319,-10.6894 c 0,0 -51.24621,30.8106 -51.875,32.3826 -0.62879,1.5719 -11.63258,47.1591 -11.63258,49.9886 0,2.8296 -3.14394,60.9924 -3.14394,64.7652 0,3.7727 -1.57197,53.7613 -0.31439,55.6477 1.25758,1.8864 6.28788,4.7159 6.28788,4.7159 z"
      id="path4688"></path>
  </g>
</svg>