<svg aria-label="Tripura" preserveAspectRatio="xMidYMid meet" style="width: 100%; height: 100%;"
  viewBox="1000 700 519 213" xmlns="http://www.w3.org/2000/svg">
  <g id="tripura">
    <path
      d="m 1265.8899,811.07578 c 0,0 0,0 0.5852,-2.34045 0.5851,-2.34045 1.7553,-1.17023 1.7553,-4.38834 0,-3.21812 -2.0479,-4.97346 0,-4.09579 2.0479,0.87767 4.0958,-2.34045 3.8032,-4.38834 -0.2925,-2.04789 -0.5851,-2.34045 -2.0479,-4.09578 -1.4628,-1.75534 -1.4628,-5.55857 -0.8776,-7.89902 0.5851,-2.34044 2.9255,-1.46278 0.2925,-4.38834 -2.633,-2.92556 -2.633,0.58512 -2.9255,-5.55856 -0.2926,-6.14368 -0.5852,-4.09579 -1.4628,-6.72879 -0.8777,-2.633 -1.1703,-6.14368 -2.9256,-4.09578 -1.7553,2.04789 -7.3139,2.633 -8.4841,2.34044 -1.1702,-0.29255 -2.3405,-1.75533 -3.5107,0 -1.1702,1.75534 0.5851,10.82458 0.2926,11.9948 -0.2926,1.17023 -6.4363,-0.29255 -6.4363,-0.29255 0,0 -3.2181,-0.58512 -4.0957,0.58511 -0.8777,1.17022 -4.6809,3.51067 -4.6809,3.51067 l -2.633,3.80323 c 0,0 -5.5586,1.75533 -7.3139,2.04789 -1.7554,0.29256 -4.6809,1.17022 -5.5586,2.92556 -0.8777,1.75534 -4.0958,8.19157 -4.0958,9.36179 0,1.17023 1.4628,3.51068 -0.2926,5.55857 -1.7553,2.04789 -3.2181,6.72879 -2.9255,7.89901 0.2925,1.17023 0,7.3139 0.8777,8.48413 0.8776,1.17022 5.5585,6.43623 5.8511,7.89901 0.2925,1.46278 3.5106,11.9948 3.2181,13.45758 -0.2926,1.46278 1.7553,8.48412 1.7553,8.48412 0,0 5.8511,0.29256 5.8511,-0.87767 0,-1.17022 0,-6.72879 0,-6.72879 0,0 3.2182,1.46278 4.0958,3.21812 0.8777,1.75534 1.1703,8.48413 2.633,9.06924 1.4628,0.58511 8.4842,2.34045 9.9469,1.46278 1.4628,-0.87767 4.6809,-6.72879 4.9735,-8.19157 0.2926,-1.46278 -0.2926,-9.06924 -1.1702,-11.11713 -0.8777,-2.04789 -4.0958,-2.633 -1.4628,-4.97345 2.633,-2.34045 4.3883,-3.80323 5.266,-5.85112 0.8777,-2.0479 2.9256,-12.28736 2.9256,-12.28736 0,0 0.5851,-2.92556 2.9255,-2.633 2.3405,0.29256 5.8511,-1.17022 5.8511,-1.17022 z"
      id="path3889"
      style="fill:#c1e0b2;fill-opacity:1;stroke:#000000;stroke-width:1px;stroke-linecap:butt;stroke-linejoin:miter;stroke-opacity:1"></path>
  </g>
</svg>