<svg aria-label="Uttarakhand" preserveAspectRatio="xMidYMid meet" style="width: 100%; height: 100%;"
  viewBox="300 300 619 373" xmlns="http://www.w3.org/2000/svg">
  <g id="uk">
    <path
      d="m 527.40332,438.12402 0.90931,8.18385 -1.81863,3.63726 -1.36397,4.09192 3.63726,4.09192 5.91055,0 3.63727,4.09193 2.72795,0 -0.45466,4.54658 -1.81863,3.63726 -0.90932,7.27453 c 0,0 0,3.63726 0,6.36521 0,2.72795 -1.36397,5.91056 -1.36397,8.18385 0,2.27329 -0.45466,3.63726 3.1826,2.72794 3.63727,-0.90931 3.63727,-4.09192 5.91056,-3.63726 2.27329,0.45466 3.1826,6.36521 3.1826,6.36521 l 4.54658,1.81864 3.18261,-5.4559 c 0,0 2.72795,-0.45466 2.72795,-1.81863 0,-1.36398 -0.45466,-8.63851 -0.45466,-9.54782 0,-0.90932 3.18261,-0.45466 3.18261,-0.45466 l 0.90931,3.63726 c 0,0 1.81863,1.36398 4.09192,1.81864 2.27329,0.45465 5.91056,6.36521 5.91056,6.36521 0,0 2.27329,0.90931 1.36397,2.72795 -0.90931,1.81863 -4.09192,5.91055 -0.45465,6.36521 3.63726,0.45466 6.36521,0.45466 6.36521,0.45466 0,0 0.45466,2.27329 3.1826,0 2.72795,-2.27329 4.09193,-3.63727 4.09193,-0.45466 0,3.18261 0,4.54658 0,4.54658 l 5.91055,1.36397 c 0,0 3.63726,1.81864 0.45466,1.81864 -3.18261,0 -6.36521,1.81863 -6.36521,1.81863 0,0 0,6.81987 3.1826,7.27453 3.18261,0.45465 6.81987,-0.45466 3.18261,2.27329 -3.63727,2.72794 -3.63727,5.00124 -3.63727,5.00124 l 8.18385,-0.45466 c 0,0 0,0.45466 2.27329,0.45466 2.27329,0 4.09192,0.45465 4.54658,2.72794 0.45466,2.27329 1.81863,5.4559 5.4559,6.81987 3.63726,1.36398 7.27452,3.63727 7.72918,1.81864 0.45466,-1.81864 1.81863,-1.36398 1.81863,0.45465 0,1.81864 -4.54658,2.72795 1.81864,5.00124 6.36521,2.27329 14.0944,1.36398 14.0944,1.36398 l 3.1826,-4.09193 c 0,0 1.81863,0.45466 1.81863,3.63727 0,3.1826 4.09193,5.91055 5.4559,5.91055 1.36397,0 5.4559,0.90932 4.54658,-1.36397 -0.90932,-2.27329 -2.27329,-3.63727 0.90932,-3.63727 3.1826,0 0.45465,-5.45589 0.45465,-5.45589 l 5.4559,-1.81863 3.18261,-6.36522 1.81863,-7.72918 c 0,0 4.09192,-5.4559 2.72795,-7.27453 -1.36398,-1.81863 -3.18261,-1.36398 -3.18261,-4.54658 0,-3.18261 0.45466,-3.63727 2.72795,-5.91056 2.27329,-2.27329 4.09192,-8.6385 4.09192,-11.36645 0,-2.72795 0.45466,-3.1826 3.18261,-4.54658 2.72795,-1.36397 5.45589,-2.72795 5.91055,-4.54658 0.45466,-1.81863 0,-5.00124 0,-5.00124 l 6.81987,0 c 0,0 5.00124,-7.72918 7.72919,-10.00247 2.72795,-2.27329 -5.4559,-2.27329 1.36397,-2.27329 6.81987,0 9.54782,-0.90932 9.09316,-3.18261 -0.45465,-2.27329 -1.36397,-7.27453 -1.36397,-7.27453 l -10.00248,-1.36397 c 0,0 -3.1826,-1.81863 -4.09192,-4.54658 -0.90932,-2.72795 -1.81863,-5.00124 -4.54658,-5.00124 -2.72795,0 -8.6385,-0.45466 -8.6385,-0.45466 0,0 -5.00124,-0.45466 -7.27453,-2.27329 -2.27329,-1.81863 -4.54658,-1.81863 -4.54658,-1.81863 l -0.90932,-7.72919 -3.1826,-5.45589 -6.36522,-2.27329 c 0,0 -5.00123,-2.27329 -7.27452,-3.18261 -2.27329,-0.90932 -4.54658,-4.09192 -4.54658,-4.09192 0,0 -4.09193,-3.18261 -7.72919,-2.72795 -3.63727,0.45466 -9.09316,1.81863 -9.54782,0 -0.45466,-1.81863 -2.72795,-3.18261 -4.09192,-5.4559 -1.36398,-2.27329 -4.09192,-3.63726 -4.09192,-3.63726 l 0,-5.00124 -5.4559,-5.4559 c 0,0 0,-5.45589 -2.72795,-5.91055 -2.72795,-0.45466 -6.36521,0 -6.36521,0 0,0 -4.09192,4.09192 -4.54658,6.36521 -0.45466,2.27329 1.36397,5.91056 -0.90932,5.4559 -2.27329,-0.45466 -10.00247,-6.81987 -15.00371,-9.09316 -5.00124,-2.27329 -14.54906,-5.4559 -17.73167,-5.00124 -3.1826,0.45466 -42.28319,17.277 -41.37388,20.91427 0.90932,3.63726 6.36522,27.27948 6.36522,27.27948 z"
      id="path3787"
      style="fill:#ebc5dd;fill-opacity:1;stroke:#000000;stroke-width:1px;stroke-linecap:butt;stroke-linejoin:miter;stroke-opacity:1"></path>
  </g>
</svg>