<svg aria-label="Uttar Pradesh" preserveAspectRatio="xMidYMid meet" style="width: 100%; height: 100%;" viewBox="400 200 519 973" xmlns="http://www.w3.org/2000/svg">
  <g id="up" >
    <path 
      data-image="./States/images/uttarpradesh.jpg"
      d="m 840.96389,619.38599 c 0.69079,0.69078 2.34868,2.48683 4.14472,2.21051 1.79605,-0.27631 3.45394,-1.10526 4.28288,-0.41447 0.82895,0.69079 2.90131,4.55919 2.62499,7.87497 -0.27631,3.31578 -0.41447,10.08549 3.86841,11.60522 4.28288,1.51973 7.18418,-0.55263 9.25654,2.62499 2.07236,3.17762 1.38158,3.45393 2.62499,5.66445 1.24342,2.21052 2.34868,1.65789 2.76315,2.90131 0.41447,1.24341 1.38157,3.03946 2.34868,3.8684 0.9671,0.82895 2.62499,3.17762 -0.13816,4.42104 -2.76315,1.24341 -3.17762,1.65789 -6.4934,0.41447 -3.31578,-1.24342 -4.55919,-0.27631 -5.24998,0.55263 -0.69079,0.82894 -1.9342,3.73025 -4.69735,4.69735 -2.76315,0.9671 -3.86841,1.9342 -1.51973,3.73025 2.34868,1.79604 6.90787,1.9342 8.70391,3.59209 1.79605,1.65789 3.17762,7.04603 2.07236,8.70391 -1.10525,1.65789 -3.31577,2.76315 -5.8026,2.76315 -2.48684,0 -3.73025,-0.82894 -3.45394,0.55263 0.27632,1.38158 3.59209,5.11182 6.76971,7.73681 3.17762,2.62499 3.73025,3.17762 7.04603,3.86841 3.31577,0.69079 7.04602,3.86841 9.11838,5.38814 2.07236,1.51973 7.18419,4.42103 9.25655,4.42103 2.07236,0 4.42103,2.07236 3.45393,3.73025 -0.9671,1.65789 -0.41447,4.28288 -4.00656,3.59209 -3.59209,-0.69078 -15.61178,-1.65788 -17.13152,-1.10526 -1.51973,0.55263 -4.28287,-0.27631 -5.38813,-0.55262 -1.10526,-0.27632 -7.04603,0.41447 -8.28944,4.28287 -1.24342,3.86841 -3.45394,5.5263 -4.83551,8.4276 -1.38158,2.90131 -0.13816,3.31578 -2.07236,4.69735 -1.93421,1.38158 -4.5592,0.27632 -5.94077,0 -1.38157,-0.27631 -2.9013,-1.10526 -3.03946,1.51973 -0.13816,2.62499 0.27631,6.90787 -1.65789,8.15129 -1.9342,1.24342 -4.83551,0.55263 -5.52629,2.62499 -0.69079,2.07236 -0.69079,3.31578 -2.48684,4.69735 -1.79604,1.38157 -3.31577,1.51973 -3.03946,4.14472 0.27632,2.62499 -1.9342,8.28944 0.27632,12.71048 2.21051,4.42103 6.49339,11.05259 7.73681,12.71048 1.24341,1.65788 3.59209,5.38813 1.51973,7.04602 -2.07236,1.65789 -3.45394,0.82895 -3.59209,3.45394 -0.13816,2.62499 0.9671,7.18418 0,8.84207 -0.9671,1.65789 -2.90131,4.00656 -2.62499,8.4276 0.27631,4.42103 0.9671,6.21708 0.13815,6.76971 -0.82894,0.55263 -8.84207,5.52629 -8.01312,6.90787 0.82894,1.38157 2.48683,0.41447 2.62499,2.34867 0.13815,1.9342 -1.93421,3.86841 -4.97367,3.45394 -3.03946,-0.41448 -7.18418,0 -9.3947,-0.27632 -2.21052,-0.27631 -1.9342,0.9671 -2.9013,-0.41447 -0.96711,-1.38157 -1.24342,-1.65789 -3.31578,-1.65789 -2.07236,0 -2.21052,-0.9671 -3.86841,-2.34867 -1.65789,-1.38158 -3.45393,-2.34868 -4.28288,-3.73025 -0.82894,-1.38158 -1.51973,-5.80261 -0.41447,-7.32234 1.10526,-1.51973 0,-3.31578 1.79605,-4.00657 1.79604,-0.69078 2.62499,-0.82894 4.55919,-1.9342 1.9342,-1.10526 2.62499,-1.51973 2.07236,-1.79605 -0.55263,-0.27631 -2.21052,-0.55263 -4.42103,-0.69078 -2.21052,-0.13816 -3.45394,0.41447 -3.45394,-2.62499 0,-3.03947 0.69079,-4.5592 0,-5.5263 -0.69078,-0.9671 -0.13816,-3.59209 0.69079,-4.55919 0.82894,-0.9671 -0.82895,-0.9671 -0.55263,-2.34868 0.27631,-1.38157 3.45393,-2.48683 3.59209,-3.17762 0.13816,-0.69078 -1.24342,-0.9671 -4.28288,-2.9013 -3.03946,-1.9342 -4.00656,-3.17762 -4.69735,-1.9342 -0.69078,1.24341 -1.10526,3.59209 -3.59209,2.07236 -2.48683,-1.51973 -2.76315,-4.14472 -4.97366,-3.03947 -2.21052,1.10526 -2.07236,2.76315 -2.07236,4.28288 0,1.51973 0.27631,3.45394 -1.79605,2.07236 -2.07236,-1.38157 -3.03946,-3.73025 -5.11182,-4.42103 -2.07236,-0.69079 0,1.51973 -2.62499,-2.90131 -2.62499,-4.42103 -1.65789,-5.38813 -5.11183,-5.38813 -3.45393,0 -4.42103,0.82894 -5.52629,-0.55263 -1.10526,-1.38158 -0.82894,0.27631 -4.14472,-3.31578 -3.31578,-3.59209 -3.17762,-4.14472 -6.76971,-4.42104 -3.59209,-0.27631 -3.17762,-1.10525 -5.80261,-2.9013 -2.62499,-1.79605 -2.62499,-1.51973 -4.83551,-1.51973 -2.21052,0 -2.48683,-1.9342 -2.34868,-2.76315 0.13816,-0.82894 2.90131,-4.14472 0.27632,-3.59209 -2.62499,0.55263 -2.76315,1.65789 -3.73025,2.21052 -0.9671,0.55263 -4.28288,1.79604 -6.21708,0.41447 -1.9342,-1.38157 -3.31578,-3.45393 -4.69735,-1.65789 -1.38157,1.79605 -1.65789,3.17762 -1.10526,4.55919 0.55263,1.38158 -0.55263,0.96711 -1.38157,2.21052 -0.82895,1.24342 -0.96711,1.10526 0,2.62499 0.9671,1.51973 2.21051,2.90131 0,3.59209 -2.21052,0.69079 -5.80261,0.82895 -8.70392,0 -2.9013,-0.82894 -6.90787,-0.27631 -8.98023,-0.27631 -2.07236,0 -4.28288,-1.79605 -4.00656,-3.86841 0.27631,-2.07236 0.9671,-1.9342 1.65789,-3.73025 0.69078,-1.79604 2.07236,-3.73025 1.51973,-4.28287 -0.55263,-0.55263 -1.38157,-1.93421 -1.38157,-1.93421 0,0 -1.24342,-0.55263 -2.48684,0.69079 -1.24341,1.24342 -2.21052,1.10526 -3.45393,1.51973 -1.24342,0.41447 -2.76315,0.82894 -1.9342,2.62499 0.82894,1.79605 2.9013,2.76315 0.82894,3.03946 -2.07236,0.27632 -3.59209,1.10526 -4.00656,-0.9671 -0.41448,-2.07236 1.65788,-4.28288 -1.24342,-3.59209 -2.90131,0.69079 -4.28288,0.69079 -4.14472,1.65789 0.13816,0.9671 -0.27632,1.10526 -0.69079,1.9342 -0.41447,0.82894 -0.27631,1.38157 -0.27631,2.07236 0,0.69079 -1.93421,2.48683 -3.31578,0.69079 -1.38157,-1.79605 0.27632,-3.59209 -3.31578,-1.93421 -3.59209,1.65789 -6.49339,2.48684 -5.80261,-0.41447 0.69079,-2.9013 2.34868,-2.07236 3.03947,-4.97366 0.69078,-2.90131 -1.24342,-8.98023 -2.90131,-11.05259 -1.65789,-2.07236 -1.38157,-3.45394 -2.76315,-4.00657 -1.38157,-0.55263 -3.59209,-0.55263 -3.73024,0.69079 -0.13816,1.24342 0.82894,1.9342 -0.96711,1.79605 -1.79604,-0.13816 -0.55263,-1.10526 -3.59209,-0.82895 -3.03946,0.27632 -4.97366,1.93421 -4.69735,3.03946 0.27632,1.10526 -1.24341,2.90131 -2.76315,3.17762 -1.51973,0.27632 -4.42103,-1.24341 -4.55919,0.69079 -0.13816,1.9342 0.82895,6.35524 0.13816,7.59866 -0.69079,1.24341 -6.4934,1.10526 -9.25655,0.69078 -2.76314,-0.41447 -2.76314,-0.82894 -5.11182,-2.07236 -2.34867,-1.24341 -2.9013,1.10526 -2.9013,1.10526 0,0 -0.13816,1.10526 -1.79605,2.21052 -1.65789,1.10526 -1.24341,0.13816 -2.48683,0.27631 -1.24342,0.13816 -2.07236,1.93421 -2.07236,1.93421 0,0 -2.62499,-0.13816 -2.48683,-3.45394 0.13815,-3.31577 1.65788,-2.9013 2.9013,-3.8684 1.24342,-0.9671 4.97367,-1.38158 2.21052,-3.17762 -2.76315,-1.79605 -5.24998,-3.31578 -6.07893,-1.65789 -0.82894,1.65789 -0.82894,1.10526 -2.76314,2.21052 -1.93421,1.10526 -2.48684,1.65789 -1.79605,2.76314 0.69079,1.10526 -2.62499,2.07236 -4.14472,1.51974 -1.51973,-0.55263 -1.24342,1.24341 -1.79605,2.07236 -0.55262,0.82894 -1.38157,0.82894 -1.65788,-0.27632 -0.27632,-1.10526 0.82894,-2.62499 -1.10526,-1.9342 -1.93421,0.69078 -2.07236,1.65789 -3.17762,-1.24342 -1.10526,-2.9013 -2.07236,-6.76971 -3.31578,-5.38814 -1.24342,1.38158 -3.86841,3.5921 -5.11182,3.86841 -1.24342,0.27632 -2.62499,-0.55263 -1.79605,-1.51973 0.82895,-0.9671 2.21052,-0.55263 1.51973,-2.48683 -0.69078,-1.93421 -1.24341,-2.34868 -1.79604,-3.31578 -0.55263,-0.9671 -1.65789,-4.28288 1.38157,-4.97367 3.03946,-0.69078 4.69735,0.27632 4.28288,-1.65788 -0.41447,-1.93421 0,-1.65789 -0.9671,-2.62499 -0.9671,-0.96711 -1.51973,-4.5592 -2.76315,-4.00657 -1.24342,0.55263 -2.21052,0.41447 -2.07236,2.76315 0.13816,2.34868 -0.82894,1.65789 -2.07236,2.21052 -1.24342,0.55263 -0.9671,1.79604 -0.69079,2.9013 0.27632,1.10526 -0.13815,4.28288 -2.48683,4.28288 -2.34867,0 -3.17762,0.13816 -4.83551,-2.34867 -1.65789,-2.48684 -1.9342,-3.45394 -3.03946,-1.79605 -1.10526,1.65789 -1.24342,3.17762 -1.9342,4.00656 -0.69079,0.82895 -2.07236,-0.27631 -3.17762,1.65789 -1.10526,1.93421 -2.76315,3.73025 -2.07236,4.42104 0.69078,0.69078 3.73025,1.10526 5.66445,2.62499 1.9342,1.51973 4.55919,4.28288 4.55919,4.28288 0,0 -0.13815,2.34867 -0.41447,3.8684 -0.27631,1.51973 -1.10526,4.5592 0.55263,6.07893 1.65789,1.51973 4.83551,4.42103 5.24998,5.52629 0.41447,1.10526 0.55263,1.24342 -0.13816,2.90131 -0.69078,1.65788 0.55263,6.90786 1.38158,7.59865 0.82894,0.69079 3.45393,1.10526 3.8684,0.41447 0.41447,-0.69078 3.03946,0.69079 3.03946,3.31578 0,2.62499 -0.82894,4.83551 0.41448,6.35524 1.24341,1.51973 -0.41448,4.69735 -0.82895,6.4934 -0.41447,1.79604 -2.76314,4.97366 -2.9013,5.94076 -0.13816,0.9671 -1.93421,3.86841 -1.93421,3.86841 0,0 -2.21051,-2.90131 -3.73024,-3.31578 -1.51974,-0.41447 -3.31578,0.69079 -3.31578,0.69079 0,0 -3.03946,-2.07236 -4.83551,-4.97367 -1.79604,-2.9013 -3.03946,-4.8355 -4.28288,-5.11182 -1.24341,-0.27631 -3.45393,0.9671 -3.8684,2.07236 -0.41448,1.10526 -2.76315,5.38814 -3.73025,5.24998 -0.9671,-0.13816 -1.38158,-4.83551 -1.38158,-6.63155 0,-1.79605 -9.3947,-8.84207 -7.73681,-12.71048 1.65789,-3.86841 2.76315,-4.42104 1.65789,-5.94077 -1.10526,-1.51973 -1.79605,1.38158 -2.62499,-2.62499 -0.82894,-4.00656 0,-3.17762 -0.82894,-4.83551 -0.82895,-1.65788 -1.65789,-1.51973 -1.65789,-3.03946 0,-1.51973 1.9342,-2.34867 3.31577,-2.9013 1.38158,-0.55263 4.00657,-2.76315 5.11183,-4.28288 1.10526,-1.51973 2.62499,-2.07236 2.62499,-5.11182 0,-3.03946 -0.41448,-3.73025 0.13815,-5.11183 0.55263,-1.38157 0.13816,-1.9342 -0.69078,-3.17761 -0.82895,-1.24342 -2.76315,-6.21709 -1.65789,-8.28945 1.10526,-2.07236 2.21052,-5.11182 3.45393,-7.46049 1.24342,-2.34868 4.00657,-4.97367 5.66445,-4.5592 1.65789,0.41447 4.5592,1.65789 6.35524,1.10526 1.79605,-0.55263 7.4605,-2.76315 8.28945,-4.00656 0.82894,-1.24342 2.62499,-1.93421 1.65788,-3.59209 -0.9671,-1.65789 -4.14472,-0.69079 -2.9013,-3.5921 1.24342,-2.9013 2.62499,-3.03946 3.86841,-3.31577 1.24341,-0.27632 3.31577,0 3.31577,-1.10526 0,-1.10526 0,-1.38157 -0.13815,-3.03946 -0.13816,-1.65789 0.82894,-2.76315 1.79604,-4.69735 0.9671,-1.93421 3.31578,-2.90131 3.17762,-4.83551 -0.13816,-1.9342 -1.10526,-2.34868 -1.38157,-4.14472 -0.27632,-1.79605 2.21051,-3.86841 3.31577,-6.35524 1.10526,-2.48683 2.76315,-1.38158 3.86841,-3.31578 1.10526,-1.9342 3.31578,-2.9013 1.24342,-7.18418 -2.07236,-4.28288 -3.31578,-5.24998 -4.14472,-7.32234 -0.82895,-2.07236 0.27631,-4.42104 -2.90131,-6.63156 -3.17762,-2.21051 -6.90787,-4.42103 -8.56576,-4.8355 -1.65788,-0.41448 -1.51973,-1.51973 -3.31577,-2.34868 -1.79605,-0.82894 -1.79605,-2.62499 -5.24998,-2.07236 -3.45394,0.55263 -2.62499,2.07236 -4.14472,1.79605 -1.51974,-0.27632 -2.07236,-1.51973 -4.83551,-2.76315 -2.76315,-1.24342 -4.14472,-2.76315 -7.18418,-0.55263 -3.03947,2.21052 -2.62499,4.00656 -6.90787,4.28288 -4.28288,0.27631 -7.4605,2.07236 -10.36181,2.07236 -2.9013,0 -12.98679,-0.9671 -12.98679,-0.9671 0,0 -17.68414,6.35524 -19.61834,2.48683 -1.93421,-3.86841 -3.31578,-19.89466 -3.45394,-22.51965 -0.13816,-2.62499 -8.70391,-37.16433 -7.73681,-39.23669 0.9671,-2.07236 8.70391,-17.26967 8.70391,-18.09862 0,-0.82894 4.5592,-16.30257 0.69079,-21.27623 -3.86841,-4.97367 -11.60522,-27.63148 -11.60522,-29.70384 0,-2.07236 -2.9013,-37.5788 -2.9013,-37.5788 0,0 -0.69079,-4.83551 -0.41448,-5.94077 0.27632,-1.10526 2.62499,-29.98015 5.24998,-30.1183 2.62499,-0.13816 20.30914,-5.5263 23.62491,-3.03947 3.31578,2.48684 12.84864,0.27632 15.19731,9.39471 2.34868,9.11838 0.13816,24.59201 3.45394,25.14464 3.31578,0.55263 7.04602,-12.29601 14.23021,-10.49996 7.18418,1.79604 12.71047,8.56575 16.02625,12.43416 3.31578,3.86841 14.23021,7.04602 18.51309,11.19075 4.28288,4.14472 10.22364,21.6907 10.22364,21.6907 0,0 32.60514,17.68415 33.29593,17.68415 0.69079,0 9.94733,1.9342 9.94733,1.9342 0,0 11.3289,9.3947 13.12495,10.3618 1.79605,0.9671 7.4605,4.28288 8.15128,4.42104 0.69079,0.13815 3.73025,-3.31578 4.00657,-4.42104 0.27631,-1.10526 1.9342,-2.34867 4.14472,-0.41447 2.21052,1.9342 7.04602,8.15128 8.28944,9.53286 1.24342,1.38157 2.90131,2.9013 7.18418,3.73025 4.28288,0.82894 9.67102,1.9342 9.67102,1.9342 0,0 10.91443,8.98023 12.29601,9.94733 1.38157,0.9671 2.48683,2.34868 4.8355,2.48683 2.34868,0.13816 3.86841,0.9671 4.5592,2.48684 0.69078,1.51973 1.9342,3.31577 4.00656,6.07892 2.07236,2.76315 4.55919,2.34867 6.4934,4.00656 1.9342,1.65789 2.21051,3.59209 4.55919,4.83551 2.34867,1.24342 5.52629,1.51973 8.70391,1.10526 3.17762,-0.41447 14.64468,2.07236 18.23678,4.28288 3.59209,2.21052 5.24998,7.32234 8.56575,7.18418 3.31578,-0.13816 8.28945,-0.55263 9.80918,-0.82894 1.51973,-0.27632 6.21708,0.55263 6.63155,1.65789 0.41447,1.10525 2.48683,10.08548 4.28288,10.22364 1.79604,0.13816 14.64468,-0.27631 17.26967,1.79605 2.62499,2.07236 3.03946,5.38813 5.66445,4.42103 2.62499,-0.9671 3.59209,-3.45393 4.42104,-4.83551 0.82894,-1.38157 5.66445,-3.17762 8.70391,-2.62499 3.03946,0.55263 7.73681,2.07237 7.73681,2.07237 z"
      id="path3802"
      style="fill:#fdf9bb;fill-opacity:1;stroke:#000000;stroke-width:1px;stroke-linecap:butt;stroke-linejoin:miter;stroke-opacity:1"></path>
  </g>
</svg>