<svg aria-label="West Bengal" preserveAspectRatio="xMidYMid meet" style="width: 100%; height: 100%;"
  viewBox="800 600 519 573" xmlns="http://www.w3.org/2000/svg">
  <g id="west">
    <path
      d="m 1002.1442,908.20969 c 0,0 1.6599,2.69728 1.8674,5.70579 0.2075,3.00851 0.9337,6.84695 1.3486,7.4694 0.415,0.62245 1.2449,2.17857 3.8385,2.17857 2.5935,0 6.017,-0.20748 6.432,0.20749 0.4149,0.41496 -0.5188,1.03741 1.2449,2.07483 1.7636,1.03741 3.7347,1.14116 3.7347,1.14116 0,0 1.0374,1.55612 1.5561,3.11225 0.5187,1.55612 0.7262,3.63095 2.6973,3.94218 1.9711,0.31122 3.6309,-0.10374 4.7721,-1.34864 1.1411,-1.2449 3.3197,-1.14116 4.8758,0.20748 1.5562,1.34864 3.631,5.49831 5.9133,6.01701 2.2823,0.51871 5.2908,2.28232 6.1208,1.76361 0.8299,-0.51871 0.5187,-1.2449 2.6972,-2.17857 2.1786,-0.93368 1.3487,-3.63096 4.3572,-0.41497 3.0085,3.21599 3.0085,3.52722 4.3571,3.31973 1.3487,-0.20748 10.3742,-0.93367 10.1667,-2.90476 -0.2075,-1.97109 -1.8673,-6.32824 -1.0374,-8.19559 0.8299,-1.86735 3.8384,-4.25341 5.3946,-3.7347 1.5561,0.51871 4.6683,2.28232 4.4609,3.42347 -0.2075,1.14116 -1.6599,3.94219 -1.0375,5.60205 0.6225,1.65987 2.3861,3.94218 5.1871,2.38606 2.8011,-1.55612 7.4694,1.14116 9.7517,-1.86735 2.2824,-3.00851 5.6021,-4.66837 6.847,-6.95069 1.2449,-2.28232 2.5935,-3.00851 4.3571,-1.14116 1.7636,1.86735 8.7143,4.87586 10.2705,3.94219 1.5561,-0.93368 3.5272,-1.86735 4.0459,-3.31974 0.5187,-1.45238 0,-6.12075 0.1037,-7.9881 0.1038,-1.86735 2.3861,-4.25341 1.6599,-6.84695 -0.7262,-2.59354 -2.1786,-4.66838 -3.5272,-7.67688 -1.3487,-3.00851 -2.6973,-4.04593 -2.6973,-6.01702 0,-1.97109 0.3112,-9.9592 -1.2449,-12.24151 -1.5561,-2.28232 -3.216,-1.03742 -3.7347,-4.56463 -0.5187,-3.52722 1.1412,-5.60205 0.8299,-7.78063 -0.3112,-2.17857 -0.1037,-5.08334 -0.7262,-7.88436 -0.6224,-2.80103 -3.6309,-3.42348 -2.5935,-5.70579 1.0374,-2.28232 4.1497,-3.31973 4.3571,-5.29083 0.2075,-1.97109 -0.5187,-8.09184 -2.9047,-8.40307 -2.3861,-0.31122 -10.4779,-1.45238 -10.063,-2.69728 0.415,-1.2449 2.2824,-2.80103 2.4898,-3.83844 0.2075,-1.03742 1.9711,-9.23301 -1.6598,-11.41158 -3.631,-2.17858 -8.4031,0 -10.1667,-5.49831 -1.7636,-5.49831 -0.5187,-7.88436 1.4524,-10.4779 1.9711,-2.59355 4.0459,-2.38606 5.8095,-5.60205 1.7636,-3.21599 1.4524,-4.56464 0.9337,-7.57314 -0.5187,-3.00851 -1.5561,-9.54423 -1.0374,-10.89288 0.5187,-1.34864 0.9336,-3.83844 -1.4524,-4.66837 -2.3861,-0.82993 -21.1633,0.20748 -22.512,-2.80102 -1.3486,-3.00851 -7.3656,-9.33675 -7.7806,-12.55274 -0.4149,-3.21599 -0.5187,-7.57314 0.2075,-8.50682 0.7262,-0.93367 0.3112,-1.7636 4.0459,-2.07483 3.7347,-0.31122 7.5732,-0.72619 7.5732,-2.90476 0,-2.17858 0.4149,-7.98811 1.5561,-10.16669 1.1412,-2.17857 -0.2075,-3.52721 3.631,-3.94218 3.8384,-0.41496 6.8469,-2.4898 8.5068,-2.80102 1.6598,-0.31123 9.4405,0.41496 10.4779,0.31122 1.0374,-0.10374 6.6394,-2.38605 5.3945,-7.26191 -1.2449,-4.87586 -1.2449,-8.09185 -3.4234,-8.7143 -2.1786,-0.62245 -7.4694,-0.51871 -7.4694,-3.00851 0,-2.4898 0.4149,-6.43198 -2.5936,-6.43198 -3.0085,0 -6.2245,1.45238 -8.0918,1.14116 -1.8674,-0.31123 -8.1956,-3.21599 -7.8844,-4.9796 0.3112,-1.76361 0.5187,-2.90477 -1.7636,-4.14967 -2.2823,-1.24489 -7.6769,-5.29082 -8.5068,-5.91327 -0.8299,-0.62245 -5.9133,-3.21599 -6.432,-3.7347 -0.5187,-0.51871 -0.8299,-0.72619 -1.4524,-0.10374 -0.4254,0.42548 4.8061,-4.52977 5.1193,-8.00137 0.145,-1.60712 -3.5512,-3.09537 -4.3391,-3.22668 -0.4271,-0.0712 17.3669,-13.46049 12.5691,-8.87185 -1.793,1.71483 4.5544,-0.17378 5.9538,-3.90818 0.7968,-2.12618 -3.4354,-5.36445 -3.1059,-7.58949 0.1464,-0.98871 7.4614,14.85558 14.3561,18.52308 1.2132,0.64532 5.4852,1.60827 5.4038,-0.23653 -0.084,-1.90335 -4.5243,-6.64846 -3.3847,-8.09763 1.0422,-1.32526 6.342,2.38159 8.6793,2.40813 2.3617,0.0268 1.7626,-3.61881 3.1089,-3.45163 4.3734,0.54306 9.2798,12.83508 14.0217,15.31935 5.0307,2.63557 9.8251,0.52111 13.7032,1.28129 6.1337,1.20231 1.214,-8.8716 3.4795,-6.58342 1.861,1.87964 1.2166,-4.00793 1.4762,-7.4189 0.1419,-1.86354 -3.9319,-5.62002 -2.7911,-6.12323 1.0196,-0.44979 3.5413,-0.59094 0.7307,-3.34955 -1.7041,-1.67265 -1.5259,-4.90263 -0.2788,-4.25365 2.6301,1.36871 2.2722,-3.49263 2.2597,-3.90391 -0.066,-2.17904 -5.3265,-4.08032 5.2107,-2.39088 1.6689,0.26756 -0.4195,-1.26878 -1.3793,-4.21001 -1.2697,-3.89076 0.1832,-9.73308 -2.4802,-10.48585 -1.882,-0.53191 -6.44,0.27335 -8.6832,-1.06397 -3.5047,-2.08947 -5.01,-6.48796 -9.8765,-6.9502 -2.9143,-0.2768 -5.7243,5.14503 -8.8708,5.09702 -3.8797,-0.0592 -7.8943,-4.96272 -11.9168,-5.04846 -17.8138,-0.37968 -35.7825,4.12201 -42.875,6.77516 -1.7498,0.65452 -1.4931,7.15056 0.8851,7.56029 1.7604,0.30328 0.532,3.47323 0.074,5.98614 -1.0008,5.49568 -1.0259,12.38809 -1.6783,13.36413 -2.5422,3.80335 -21.3113,13.0402 -20.9912,18.31238 0.1488,2.45028 5.6208,6.38361 9.1907,7.88903 0.8814,0.37168 6.7426,-1.15373 6.0893,-0.44358 -3.9786,4.32494 -1.5356,0.82106 -1.5351,1.1793 0.01,3.23912 2.0644,2.32978 2.0191,3.05483 -0.1038,1.65986 0.3112,9.44049 -1.3487,14.42009 -1.6598,4.9796 -5.1871,31.22623 -1.9711,39.31808 3.216,8.09185 -11.3078,42.74155 -15.7687,45.12761 -4.4609,2.38606 -15.7687,19.29595 -23.8606,19.9184 -8.09181,0.62245 -22.09694,1.86735 -23.44558,5.70579 -1.34864,3.83844 -2.80102,13.38267 -6.32824,11.93029 -3.52721,-1.45239 -16.7024,-0.82994 -19.50343,2.28231 -2.80102,3.11225 -6.7432,27.49154 -2.38605,31.12249 4.35715,3.63096 20.54084,-4.77211 26.45411,0.10374 5.91328,4.87586 15.04254,17.73983 14.73132,19.81466 -0.31123,2.07483 9.75167,20.33336 9.75167,20.33336 z"
      id="path3788"
      style="fill:#fdf9bb;fill-opacity:1;stroke:#000000;stroke-width:1px;stroke-linecap:butt;stroke-linejoin:miter;stroke-opacity:1"></path>
  </g>
</svg>